<ttFont>
    <TTGlyph name="A" xMin="-1" yMin="-32" xMax="605" yMax="869">
      <contour>
        <pt x="-1" y="0" on="1"/>
        <pt x="6" y="23" on="0"/>
        <pt x="37" y="129" on="0"/>
        <pt x="87" y="326" on="0"/>
        <pt x="160" y="630" on="0"/>
        <pt x="209" y="852" on="1"/>
        <pt x="215" y="862" on="0"/>
        <pt x="237" y="869" on="0"/>
        <pt x="259" y="866" on="0"/>
        <pt x="274" y="855" on="0"/>
        <pt x="273" y="848" on="1"/>
        <pt x="470" y="369" on="1"/>
        <pt x="572" y="400" on="1"/>
        <pt x="585" y="400" on="0"/>
        <pt x="603" y="386" on="0"/>
        <pt x="605" y="366" on="0"/>
        <pt x="589" y="343" on="0"/>
        <pt x="569" y="336" on="1"/>
        <pt x="561" y="333" on="0"/>
        <pt x="535" y="326" on="0"/>
        <pt x="509" y="320" on="0"/>
        <pt x="491" y="314" on="0"/>
        <pt x="491" y="311" on="1"/>
        <pt x="602" y="15" on="1"/>
        <pt x="600" y="10" on="0"/>
        <pt x="596" y="-5" on="0"/>
        <pt x="584" y="-14" on="0"/>
        <pt x="560" y="-11" on="0"/>
        <pt x="538" y="2" on="1"/>
        <pt x="423" y="296" on="1"/>
        <pt x="402" y="290" on="0"/>
        <pt x="340" y="279" on="0"/>
        <pt x="272" y="268" on="0"/>
        <pt x="203" y="253" on="0"/>
        <pt x="145" y="231" on="0"/>
        <pt x="105" y="200" on="0"/>
        <pt x="101" y="178" on="1"/>
        <pt x="99" y="164" on="0"/>
        <pt x="88" y="100" on="0"/>
        <pt x="83" y="68" on="1"/>
        <pt x="77" y="30" on="0"/>
        <pt x="69" y="-14" on="1"/>
        <pt x="51" y="-32" on="0"/>
        <pt x="22" y="-20" on="0"/>
      </contour>
      <contour>
        <pt x="250" y="742" on="1"/>
        <pt x="144" y="297" on="1"/>
        <pt x="161" y="303" on="0"/>
        <pt x="221" y="317" on="0"/>
        <pt x="291" y="333" on="0"/>
        <pt x="362" y="349" on="0"/>
        <pt x="391" y="358" on="1"/>
      </contour>
    </TTGlyph>
    <TTGlyph name="AE" xMin="9" yMin="-9" xMax="842" yMax="856">
      <contour>
        <pt x="370" y="20" on="1"/>
        <pt x="370" y="77" on="0"/>
        <pt x="372" y="193" on="0"/>
        <pt x="374" y="253" on="1"/>
        <pt x="344" y="253" on="0"/>
        <pt x="265" y="244" on="0"/>
        <pt x="191" y="227" on="0"/>
        <pt x="136" y="202" on="0"/>
        <pt x="130" y="186" on="1"/>
        <pt x="126" y="172" on="0"/>
        <pt x="108" y="113" on="0"/>
        <pt x="99" y="82" on="1"/>
        <pt x="88" y="46" on="0"/>
        <pt x="76" y="5" on="1"/>
        <pt x="56" y="-9" on="0"/>
        <pt x="29" y="8" on="0"/>
        <pt x="9" y="33" on="1"/>
        <pt x="19" y="54" on="0"/>
        <pt x="61" y="152" on="0"/>
        <pt x="135" y="336" on="0"/>
        <pt x="243" y="621" on="0"/>
        <pt x="319" y="829" on="1"/>
        <pt x="339" y="856" on="0"/>
        <pt x="367" y="851" on="0"/>
        <pt x="386" y="816" on="0"/>
        <pt x="401" y="764" on="0"/>
        <pt x="408" y="745" on="1"/>
        <pt x="808" y="841" on="1"/>
        <pt x="817" y="839" on="0"/>
        <pt x="828" y="822" on="0"/>
        <pt x="827" y="801" on="0"/>
        <pt x="814" y="781" on="0"/>
        <pt x="801" y="777" on="1"/>
        <pt x="422" y="674" on="1"/>
        <pt x="422" y="609" on="0"/>
        <pt x="429" y="481" on="0"/>
        <pt x="434" y="415" on="1"/>
        <pt x="712" y="512" on="1"/>
        <pt x="712" y="512" on="0"/>
        <pt x="724" y="524" on="0"/>
        <pt x="741" y="532" on="0"/>
        <pt x="760" y="530" on="0"/>
        <pt x="769" y="516" on="1"/>
        <pt x="769" y="496" on="0"/>
        <pt x="721" y="463" on="0"/>
        <pt x="650" y="435" on="0"/>
        <pt x="567" y="410" on="0"/>
        <pt x="496" y="384" on="0"/>
        <pt x="448" y="357" on="0"/>
        <pt x="448" y="342" on="1"/>
        <pt x="441" y="79" on="1"/>
        <pt x="456" y="70" on="0"/>
        <pt x="513" y="77" on="0"/>
        <pt x="583" y="97" on="0"/>
        <pt x="661" y="126" on="0"/>
        <pt x="733" y="152" on="0"/>
        <pt x="794" y="172" on="0"/>
        <pt x="813" y="173" on="1"/>
        <pt x="822" y="172" on="0"/>
        <pt x="836" y="161" on="0"/>
        <pt x="842" y="147" on="0"/>
        <pt x="837" y="132" on="0"/>
        <pt x="826" y="127" on="1"/>
        <pt x="787" y="110" on="0"/>
        <pt x="677" y="68" on="0"/>
        <pt x="560" y="29" on="0"/>
        <pt x="450" y="0" on="0"/>
        <pt x="412" y="-3" on="1"/>
        <pt x="398" y="-1" on="0"/>
        <pt x="381" y="8" on="0"/>
      </contour>
      <contour>
        <pt x="187" y="295" on="1"/>
        <pt x="195" y="296" on="0"/>
        <pt x="240" y="301" on="0"/>
        <pt x="296" y="307" on="0"/>
        <pt x="354" y="312" on="0"/>
        <pt x="375" y="313" on="1"/>
        <pt x="375" y="329" on="0"/>
        <pt x="375" y="369" on="0"/>
        <pt x="369" y="451" on="0"/>
        <pt x="357" y="593" on="0"/>
        <pt x="346" y="711" on="1"/>
      </contour>
    </TTGlyph>
    <TTGlyph name="AEacute" xMin="9" yMin="-9" xMax="842" yMax="1062">
      <component glyphName="AE" x="0" y="0" flags="0x204"/>
      <component glyphName="acute" x="366" y="238" flags="0x4"/>
    </TTGlyph>
    <TTGlyph name="Aacute" xMin="-1" yMin="-32" xMax="605" yMax="1048">
      <component glyphName="A" x="0" y="0" flags="0x4"/>
      <component glyphName="acute" x="133" y="224" flags="0x4"/>
    </TTGlyph>
    <TTGlyph name="Abreve" xMin="-1" yMin="-32" xMax="605" yMax="1058">
      <component glyphName="A" x="0" y="0" flags="0x4"/>
      <component glyphName="breve" x="36" y="268" flags="0x4"/>
    </TTGlyph>
    <TTGlyph name="Acircumflex" xMin="-1" yMin="-32" xMax="605" yMax="1094">
      <component glyphName="A" x="0" y="0" flags="0x4"/>
      <component glyphName="circumflex" x="25" y="235" flags="0x4"/>
    </TTGlyph>
    <TTGlyph name="Adieresis" xMin="-1" yMin="-32" xMax="605" yMax="972">
      <component glyphName="A" x="0" y="0" flags="0x4"/>
      <component glyphName="dieresis" x="82" y="248" flags="0x4"/>
    </TTGlyph>
    <TTGlyph name="Agrave" xMin="16" yMin="-62" xMax="622" yMax="1039">
      <component glyphName="A" x="17" y="-30" flags="0x4"/>
      <component glyphName="grave" x="162" y="229" flags="0x4"/>
    </TTGlyph>
    <TTGlyph name="Amacron" xMin="-1" yMin="-32" xMax="605" yMax="973">
      <component glyphName="A" x="0" y="0" flags="0x4"/>
      <component glyphName="macron" x="22" y="260" flags="0x4"/>
    </TTGlyph>
    <TTGlyph name="Aogonek" xMin="-1" yMin="-251" xMax="701" yMax="869">
      <component glyphName="A" x="0" y="0" flags="0x4"/>
      <component glyphName="ogonek" x="321" y="32" flags="0x4"/>
    </TTGlyph>
    <TTGlyph name="Aring" xMin="-1" yMin="-32" xMax="605" yMax="1094">
      <component glyphName="A" x="0" y="0" flags="0x4"/>
      <component glyphName="ring" x="87" y="281" flags="0x4"/>
    </TTGlyph>
    <TTGlyph name="Atilde" xMin="-1" yMin="-32" xMax="605" yMax="1035">
      <component glyphName="A" x="0" y="0" flags="0x4"/>
      <component glyphName="tilde" x="72" y="254" flags="0x4"/>
    </TTGlyph>
    <TTGlyph name="B" xMin="27" yMin="-13" xMax="551" yMax="848">
      <contour>
        <pt x="37" y="744" on="1"/>
        <pt x="32" y="761" on="0"/>
        <pt x="27" y="788" on="0"/>
        <pt x="29" y="804" on="1"/>
        <pt x="30" y="809" on="0"/>
        <pt x="33" y="821" on="0"/>
        <pt x="40" y="828" on="0"/>
        <pt x="52" y="831" on="0"/>
        <pt x="62" y="827" on="1"/>
        <pt x="68" y="824" on="0"/>
        <pt x="80" y="809" on="0"/>
        <pt x="89" y="789" on="0"/>
        <pt x="95" y="771" on="0"/>
        <pt x="96" y="765" on="1"/>
        <pt x="123" y="781" on="0"/>
        <pt x="189" y="814" on="0"/>
        <pt x="260" y="837" on="0"/>
        <pt x="332" y="848" on="0"/>
        <pt x="365" y="844" on="1"/>
        <pt x="376" y="843" on="0"/>
        <pt x="405" y="834" on="0"/>
        <pt x="430" y="819" on="0"/>
        <pt x="447" y="798" on="0"/>
        <pt x="445" y="784" on="1"/>
        <pt x="445" y="757" on="0"/>
        <pt x="422" y="699" on="0"/>
        <pt x="386" y="641" on="0"/>
        <pt x="341" y="585" on="0"/>
        <pt x="298" y="536" on="0"/>
        <pt x="260" y="496" on="0"/>
        <pt x="250" y="483" on="1"/>
        <pt x="284" y="496" on="0"/>
        <pt x="376" y="515" on="0"/>
        <pt x="465" y="509" on="0"/>
        <pt x="536" y="471" on="0"/>
        <pt x="548" y="428" on="1"/>
        <pt x="551" y="402" on="0"/>
        <pt x="525" y="337" on="0"/>
        <pt x="477" y="267" on="0"/>
        <pt x="412" y="196" on="0"/>
        <pt x="341" y="130" on="0"/>
        <pt x="269" y="74" on="0"/>
        <pt x="208" y="33" on="0"/>
        <pt x="162" y="12" on="0"/>
        <pt x="152" y="14" on="1"/>
        <pt x="128" y="54" on="1"/>
        <pt x="133" y="53" on="0"/>
        <pt x="187" y="88" on="0"/>
        <pt x="262" y="145" on="0"/>
        <pt x="348" y="218" on="0"/>
        <pt x="423" y="292" on="0"/>
        <pt x="475" y="361" on="0"/>
        <pt x="479" y="387" on="1"/>
        <pt x="484" y="422" on="0"/>
        <pt x="437" y="453" on="0"/>
        <pt x="357" y="453" on="0"/>
        <pt x="259" y="426" on="0"/>
        <pt x="171" y="383" on="0"/>
        <pt x="105" y="327" on="0"/>
        <pt x="97" y="297" on="1"/>
        <pt x="93" y="266" on="0"/>
        <pt x="91" y="200" on="0"/>
        <pt x="90" y="133" on="0"/>
        <pt x="89" y="67" on="0"/>
        <pt x="85" y="37" on="1"/>
        <pt x="82" y="15" on="0"/>
        <pt x="71" y="-13" on="0"/>
        <pt x="47" y="-9" on="1"/>
        <pt x="45" y="-9" on="0"/>
        <pt x="35" y="-7" on="0"/>
        <pt x="35" y="-6" on="1"/>
      </contour>
      <contour>
        <pt x="98" y="666" on="1"/>
        <pt x="95" y="646" on="0"/>
        <pt x="92" y="584" on="0"/>
        <pt x="92" y="518" on="0"/>
        <pt x="97" y="456" on="0"/>
        <pt x="102" y="435" on="1"/>
        <pt x="120" y="450" on="0"/>
        <pt x="183" y="504" on="0"/>
        <pt x="254" y="571" on="0"/>
        <pt x="322" y="645" on="0"/>
        <pt x="367" y="714" on="0"/>
        <pt x="379" y="771" on="0"/>
        <pt x="359" y="788" on="1"/>
        <pt x="341" y="790" on="0"/>
        <pt x="290" y="787" on="0"/>
        <pt x="234" y="776" on="0"/>
        <pt x="178" y="756" on="0"/>
        <pt x="132" y="727" on="0"/>
        <pt x="101" y="689" on="0"/>
      </contour>
    </TTGlyph>
    <TTGlyph name="C" xMin="28" yMin="-10" xMax="527" yMax="845">
      <contour>
        <pt x="28" y="199" on="1"/>
        <pt x="28" y="235" on="0"/>
        <pt x="43" y="359" on="0"/>
        <pt x="72" y="503" on="0"/>
        <pt x="118" y="650" on="0"/>
        <pt x="180" y="769" on="0"/>
        <pt x="259" y="845" on="0"/>
        <pt x="307" y="845" on="1"/>
        <pt x="334" y="845" on="0"/>
        <pt x="373" y="825" on="0"/>
        <pt x="399" y="791" on="0"/>
        <pt x="411" y="747" on="0"/>
        <pt x="411" y="722" on="1"/>
        <pt x="384" y="709" on="0"/>
        <pt x="356" y="723" on="0"/>
        <pt x="339" y="752" on="0"/>
        <pt x="323" y="784" on="0"/>
        <pt x="308" y="788" on="1"/>
        <pt x="272" y="788" on="0"/>
        <pt x="212" y="719" on="0"/>
        <pt x="164" y="613" on="0"/>
        <pt x="128" y="483" on="0"/>
        <pt x="104" y="360" on="0"/>
        <pt x="92" y="260" on="0"/>
        <pt x="92" y="236" on="1"/>
        <pt x="92" y="204" on="0"/>
        <pt x="97" y="145" on="0"/>
        <pt x="118" y="99" on="0"/>
        <pt x="160" y="72" on="0"/>
        <pt x="198" y="72" on="1"/>
        <pt x="243" y="72" on="0"/>
        <pt x="330" y="124" on="0"/>
        <pt x="403" y="202" on="0"/>
        <pt x="458" y="291" on="0"/>
        <pt x="470" y="327" on="1"/>
        <pt x="472" y="328" on="0"/>
        <pt x="488" y="329" on="0"/>
        <pt x="490" y="329" on="1"/>
        <pt x="503" y="329" on="0"/>
        <pt x="527" y="323" on="0"/>
        <pt x="527" y="306" on="1"/>
        <pt x="520" y="270" on="0"/>
        <pt x="471" y="191" on="0"/>
        <pt x="404" y="116" on="0"/>
        <pt x="325" y="51" on="0"/>
        <pt x="249" y="7" on="0"/>
        <pt x="184" y="-10" on="0"/>
        <pt x="164" y="0" on="1"/>
        <pt x="128" y="0" on="0"/>
        <pt x="76" y="41" on="0"/>
        <pt x="43" y="101" on="0"/>
        <pt x="28" y="170" on="0"/>
      </contour>
    </TTGlyph>
    <TTGlyph name="Cacute" xMin="28" yMin="-10" xMax="527" yMax="1022">
      <component glyphName="C" x="0" y="0" flags="0x4"/>
      <component glyphName="acute" x="186" y="198" flags="0x4"/>
    </TTGlyph>
    <TTGlyph name="Ccaron" xMin="28" yMin="-10" xMax="527" yMax="1108">
      <component glyphName="C" x="0" y="0" flags="0x4"/>
      <component glyphName="caron" x="85" y="238" flags="0x4"/>
    </TTGlyph>
    <TTGlyph name="Ccedilla" xMin="28" yMin="-247" xMax="527" yMax="845">
      <component glyphName="C" x="0" y="0" flags="0x4"/>
      <component glyphName="cedilla" x="82" y="24" flags="0x4"/>
    </TTGlyph>
    <TTGlyph name="Ccircumflex" xMin="28" yMin="-10" xMax="527" yMax="1110">
      <component glyphName="C" x="0" y="0" flags="0x4"/>
      <component glyphName="circumflex" x="73" y="251" flags="0x4"/>
    </TTGlyph>
    <TTGlyph name="Cdotaccent" xMin="28" yMin="-10" xMax="527" yMax="1008">
      <component glyphName="C" x="0" y="0" flags="0x4"/>
      <component glyphName="dotaccent" x="202" y="302" flags="0x4"/>
    </TTGlyph>
    <TTGlyph name="D" xMin="18" yMin="-1" xMax="609" yMax="884">
      <contour>
        <pt x="179" y="37" on="1"/>
        <pt x="178" y="47" on="0"/>
        <pt x="230" y="101" on="0"/>
        <pt x="310" y="179" on="0"/>
        <pt x="405" y="280" on="0"/>
        <pt x="489" y="397" on="0"/>
        <pt x="548" y="526" on="0"/>
        <pt x="552" y="593" on="1"/>
        <pt x="552" y="624" on="0"/>
        <pt x="518" y="673" on="0"/>
        <pt x="465" y="712" on="0"/>
        <pt x="397" y="740" on="0"/>
        <pt x="330" y="759" on="0"/>
        <pt x="268" y="768" on="0"/>
        <pt x="247" y="768" on="1"/>
        <pt x="242" y="768" on="0"/>
        <pt x="223" y="767" on="0"/>
        <pt x="199" y="762" on="0"/>
        <pt x="174" y="755" on="0"/>
        <pt x="164" y="749" on="1"/>
        <pt x="210" y="141" on="1"/>
        <pt x="215" y="130" on="0"/>
        <pt x="204" y="104" on="0"/>
        <pt x="183" y="86" on="0"/>
        <pt x="159" y="85" on="0"/>
        <pt x="152" y="99" on="1"/>
        <pt x="103" y="722" on="1"/>
        <pt x="100" y="720" on="0"/>
        <pt x="83" y="712" on="0"/>
        <pt x="65" y="703" on="0"/>
        <pt x="49" y="694" on="0"/>
        <pt x="46" y="693" on="1"/>
        <pt x="45" y="693" on="0"/>
        <pt x="40" y="692" on="0"/>
        <pt x="39" y="692" on="1"/>
        <pt x="33" y="692" on="0"/>
        <pt x="18" y="698" on="0"/>
        <pt x="18" y="708" on="1"/>
        <pt x="18" y="725" on="0"/>
        <pt x="33" y="746" on="0"/>
        <pt x="56" y="764" on="0"/>
        <pt x="83" y="781" on="0"/>
        <pt x="106" y="809" on="0"/>
        <pt x="121" y="851" on="0"/>
        <pt x="121" y="884" on="1"/>
        <pt x="143" y="884" on="0"/>
        <pt x="154" y="868" on="0"/>
        <pt x="156" y="847" on="0"/>
        <pt x="160" y="826" on="0"/>
        <pt x="174" y="821" on="1"/>
        <pt x="205" y="824" on="0"/>
        <pt x="295" y="822" on="0"/>
        <pt x="393" y="804" on="0"/>
        <pt x="489" y="771" on="0"/>
        <pt x="565" y="715" on="0"/>
        <pt x="609" y="636" on="0"/>
        <pt x="606" y="583" on="1"/>
        <pt x="598" y="501" on="0"/>
        <pt x="530" y="348" on="0"/>
        <pt x="425" y="204" on="0"/>
        <pt x="287" y="67" on="0"/>
        <pt x="209" y="0" on="1"/>
        <pt x="208" y="0" on="0"/>
        <pt x="203" y="-1" on="0"/>
        <pt x="202" y="-1" on="1"/>
        <pt x="192" y="-1" on="0"/>
        <pt x="179" y="27" on="0"/>
      </contour>
    </TTGlyph>
    <TTGlyph name="Dcaron" xMin="18" yMin="-1" xMax="609" yMax="1110">
      <component glyphName="D" x="0" y="0" flags="0x204"/>
      <component glyphName="caron" x="98" y="240" flags="0x4"/>
    </TTGlyph>
    <TTGlyph name="Dcroat" xMin="14" yMin="-1" xMax="609" yMax="884">
      <component glyphName="D" x="0" y="0" flags="0x204"/>
      <component glyphName="macron" x="-12" y="-61" scalex="0.731750488281" scaley="0.816345214844" flags="0x4"/>
    </TTGlyph>
    <TTGlyph name="E" xMin="16" yMin="-1" xMax="520" yMax="856">
      <contour>
        <pt x="48" y="22" on="1"/>
        <pt x="48" y="118" on="0"/>
        <pt x="55" y="318" on="0"/>
        <pt x="54" y="521" on="0"/>
        <pt x="38" y="721" on="0"/>
        <pt x="16" y="817" on="1"/>
        <pt x="16" y="822" on="0"/>
        <pt x="24" y="837" on="0"/>
        <pt x="36" y="849" on="0"/>
        <pt x="51" y="856" on="0"/>
        <pt x="59" y="853" on="1"/>
        <pt x="72" y="848" on="0"/>
        <pt x="89" y="819" on="0"/>
        <pt x="98" y="785" on="0"/>
        <pt x="101" y="754" on="0"/>
        <pt x="101" y="747" on="1"/>
        <pt x="486" y="843" on="1"/>
        <pt x="495" y="841" on="0"/>
        <pt x="506" y="824" on="0"/>
        <pt x="505" y="803" on="0"/>
        <pt x="492" y="783" on="0"/>
        <pt x="479" y="779" on="1"/>
        <pt x="100" y="676" on="1"/>
        <pt x="100" y="611" on="0"/>
        <pt x="107" y="483" on="0"/>
        <pt x="112" y="417" on="1"/>
        <pt x="390" y="514" on="1"/>
        <pt x="390" y="514" on="0"/>
        <pt x="402" y="526" on="0"/>
        <pt x="419" y="534" on="0"/>
        <pt x="438" y="532" on="0"/>
        <pt x="447" y="518" on="1"/>
        <pt x="447" y="498" on="0"/>
        <pt x="399" y="465" on="0"/>
        <pt x="328" y="437" on="0"/>
        <pt x="245" y="412" on="0"/>
        <pt x="174" y="386" on="0"/>
        <pt x="126" y="359" on="0"/>
        <pt x="126" y="344" on="1"/>
        <pt x="119" y="81" on="1"/>
        <pt x="134" y="72" on="0"/>
        <pt x="191" y="79" on="0"/>
        <pt x="261" y="99" on="0"/>
        <pt x="339" y="128" on="0"/>
        <pt x="411" y="154" on="0"/>
        <pt x="472" y="174" on="0"/>
        <pt x="491" y="175" on="1"/>
        <pt x="500" y="174" on="0"/>
        <pt x="514" y="163" on="0"/>
        <pt x="520" y="149" on="0"/>
        <pt x="515" y="134" on="0"/>
        <pt x="504" y="129" on="1"/>
        <pt x="465" y="112" on="0"/>
        <pt x="355" y="70" on="0"/>
        <pt x="238" y="31" on="0"/>
        <pt x="128" y="2" on="0"/>
        <pt x="90" y="-1" on="1"/>
        <pt x="76" y="1" on="0"/>
        <pt x="59" y="10" on="0"/>
      </contour>
    </TTGlyph>
    <TTGlyph name="Eacute" xMin="16" yMin="-1" xMax="520" yMax="992">
      <component glyphName="E" x="0" y="0" flags="0x4"/>
      <component glyphName="acute" x="178" y="168" flags="0x4"/>
    </TTGlyph>
    <TTGlyph name="Ebreve" xMin="16" yMin="-1" xMax="520" yMax="993">
      <component glyphName="E" x="0" y="0" flags="0x4"/>
      <component glyphName="breve" x="61" y="203" flags="0x4"/>
    </TTGlyph>
    <TTGlyph name="Ecaron" xMin="16" yMin="-1" xMax="520" yMax="1055">
      <component glyphName="E" x="0" y="0" flags="0x4"/>
      <component glyphName="caron" x="41" y="185" flags="0x4"/>
    </TTGlyph>
    <TTGlyph name="Ecircumflex" xMin="16" yMin="-1" xMax="520" yMax="1090">
      <component glyphName="E" x="0" y="0" flags="0x4"/>
      <component glyphName="circumflex" x="52" y="231" flags="0x4"/>
    </TTGlyph>
    <TTGlyph name="Edieresis" xMin="16" yMin="-1" xMax="520" yMax="977">
      <component glyphName="E" x="0" y="0" flags="0x4"/>
      <component glyphName="dieresis" x="112" y="253" flags="0x4"/>
    </TTGlyph>
    <TTGlyph name="Edotaccent" xMin="16" yMin="-1" xMax="520" yMax="922">
      <component glyphName="E" x="0" y="0" flags="0x4"/>
      <component glyphName="dotaccent" x="160" y="216" flags="0x4"/>
    </TTGlyph>
    <TTGlyph name="Egrave" xMin="16" yMin="-1" xMax="520" yMax="1000">
      <component glyphName="E" x="0" y="0" flags="0x4"/>
      <component glyphName="grave" x="127" y="190" flags="0x4"/>
    </TTGlyph>
    <TTGlyph name="Emacron" xMin="16" yMin="-1" xMax="520" yMax="980">
      <component glyphName="E" x="0" y="0" flags="0x4"/>
      <component glyphName="macron" x="42" y="267" flags="0x4"/>
    </TTGlyph>
    <TTGlyph name="Eogonek" xMin="16" yMin="-143" xMax="609" yMax="856">
      <component glyphName="E" x="0" y="0" flags="0x4"/>
      <component glyphName="ogonek" x="229" y="140" flags="0x4"/>
    </TTGlyph>
    <TTGlyph name="Eth" xMin="7" yMin="-1" xMax="609" yMax="884">
      <contour>
        <pt x="179" y="37" on="1"/>
        <pt x="178" y="47" on="0"/>
        <pt x="230" y="101" on="0"/>
        <pt x="310" y="179" on="0"/>
        <pt x="405" y="280" on="0"/>
        <pt x="489" y="397" on="0"/>
        <pt x="548" y="526" on="0"/>
        <pt x="552" y="593" on="1"/>
        <pt x="552" y="624" on="0"/>
        <pt x="518" y="673" on="0"/>
        <pt x="465" y="712" on="0"/>
        <pt x="397" y="740" on="0"/>
        <pt x="330" y="759" on="0"/>
        <pt x="268" y="768" on="0"/>
        <pt x="247" y="768" on="1"/>
        <pt x="242" y="768" on="0"/>
        <pt x="223" y="767" on="0"/>
        <pt x="199" y="762" on="0"/>
        <pt x="174" y="755" on="0"/>
        <pt x="164" y="749" on="1"/>
        <pt x="210" y="141" on="1"/>
        <pt x="215" y="130" on="0"/>
        <pt x="204" y="104" on="0"/>
        <pt x="183" y="86" on="0"/>
        <pt x="159" y="85" on="0"/>
        <pt x="152" y="99" on="1"/>
        <pt x="103" y="722" on="1"/>
        <pt x="100" y="720" on="0"/>
        <pt x="83" y="712" on="0"/>
        <pt x="65" y="703" on="0"/>
        <pt x="49" y="694" on="0"/>
        <pt x="46" y="693" on="1"/>
        <pt x="45" y="693" on="0"/>
        <pt x="40" y="692" on="0"/>
        <pt x="39" y="692" on="1"/>
        <pt x="33" y="692" on="0"/>
        <pt x="18" y="698" on="0"/>
        <pt x="18" y="708" on="1"/>
        <pt x="18" y="725" on="0"/>
        <pt x="33" y="746" on="0"/>
        <pt x="56" y="764" on="0"/>
        <pt x="83" y="781" on="0"/>
        <pt x="106" y="809" on="0"/>
        <pt x="121" y="851" on="0"/>
        <pt x="121" y="884" on="1"/>
        <pt x="143" y="884" on="0"/>
        <pt x="154" y="868" on="0"/>
        <pt x="156" y="847" on="0"/>
        <pt x="160" y="826" on="0"/>
        <pt x="174" y="821" on="1"/>
        <pt x="205" y="824" on="0"/>
        <pt x="295" y="822" on="0"/>
        <pt x="393" y="804" on="0"/>
        <pt x="489" y="771" on="0"/>
        <pt x="565" y="715" on="0"/>
        <pt x="609" y="636" on="0"/>
        <pt x="606" y="583" on="1"/>
        <pt x="598" y="501" on="0"/>
        <pt x="530" y="348" on="0"/>
        <pt x="425" y="204" on="0"/>
        <pt x="287" y="67" on="0"/>
        <pt x="209" y="0" on="1"/>
        <pt x="208" y="0" on="0"/>
        <pt x="203" y="-1" on="0"/>
        <pt x="202" y="-1" on="1"/>
        <pt x="192" y="-1" on="0"/>
        <pt x="179" y="27" on="0"/>
      </contour>
      <contour>
        <pt x="38" y="409" on="1"/>
        <pt x="30" y="404" on="0"/>
        <pt x="13" y="421" on="0"/>
        <pt x="7" y="448" on="0"/>
        <pt x="18" y="476" on="0"/>
        <pt x="38" y="481" on="1"/>
        <pt x="383" y="492" on="1"/>
        <pt x="393" y="492" on="0"/>
        <pt x="403" y="477" on="0"/>
        <pt x="405" y="454" on="0"/>
        <pt x="400" y="430" on="0"/>
        <pt x="395" y="423" on="1"/>
      </contour>
    </TTGlyph>
    <TTGlyph name="Euro" xMin="9" yMin="-11" xMax="643" yMax="851">
      <contour>
        <pt x="74" y="384" on="1"/>
        <pt x="48" y="384" on="0"/>
        <pt x="33" y="418" on="0"/>
        <pt x="39" y="441" on="1"/>
        <pt x="56" y="443" on="0"/>
        <pt x="133" y="454" on="0"/>
        <pt x="180" y="460" on="1"/>
        <pt x="196" y="527" on="0"/>
        <pt x="244" y="666" on="0"/>
        <pt x="307" y="779" on="0"/>
        <pt x="385" y="851" on="0"/>
        <pt x="430" y="851" on="1"/>
        <pt x="457" y="851" on="0"/>
        <pt x="496" y="831" on="0"/>
        <pt x="522" y="797" on="0"/>
        <pt x="534" y="753" on="0"/>
        <pt x="534" y="728" on="1"/>
        <pt x="514" y="728" on="0"/>
        <pt x="490" y="749" on="0"/>
        <pt x="470" y="773" on="0"/>
        <pt x="448" y="794" on="0"/>
        <pt x="431" y="794" on="1"/>
        <pt x="399" y="794" on="0"/>
        <pt x="342" y="733" on="0"/>
        <pt x="292" y="639" on="0"/>
        <pt x="253" y="522" on="0"/>
        <pt x="239" y="467" on="1"/>
        <pt x="260" y="470" on="0"/>
        <pt x="306" y="479" on="0"/>
        <pt x="348" y="487" on="0"/>
        <pt x="380" y="493" on="0"/>
        <pt x="388" y="493" on="1"/>
        <pt x="397" y="493" on="0"/>
        <pt x="403" y="473" on="0"/>
        <pt x="400" y="451" on="0"/>
        <pt x="390" y="433" on="0"/>
        <pt x="383" y="434" on="1"/>
        <pt x="225" y="404" on="1"/>
        <pt x="211" y="336" on="0"/>
        <pt x="205" y="287" on="1"/>
        <pt x="426" y="342" on="1"/>
        <pt x="430" y="339" on="0"/>
        <pt x="440" y="331" on="0"/>
        <pt x="442" y="318" on="0"/>
        <pt x="431" y="300" on="0"/>
        <pt x="414" y="287" on="1"/>
        <pt x="205" y="227" on="1"/>
        <pt x="205" y="191" on="0"/>
        <pt x="209" y="129" on="0"/>
        <pt x="230" y="82" on="0"/>
        <pt x="272" y="56" on="0"/>
        <pt x="310" y="56" on="1"/>
        <pt x="355" y="56" on="0"/>
        <pt x="443" y="76" on="0"/>
        <pt x="518" y="114" on="0"/>
        <pt x="574" y="171" on="0"/>
        <pt x="586" y="207" on="1"/>
        <pt x="592" y="210" on="0"/>
        <pt x="611" y="212" on="0"/>
        <pt x="629" y="207" on="0"/>
        <pt x="642" y="195" on="0"/>
        <pt x="643" y="186" on="1"/>
        <pt x="636" y="150" on="0"/>
        <pt x="587" y="89" on="0"/>
        <pt x="520" y="41" on="0"/>
        <pt x="441" y="7" on="0"/>
        <pt x="365" y="-11" on="0"/>
        <pt x="300" y="-10" on="0"/>
        <pt x="280" y="0" on="1"/>
        <pt x="244" y="0" on="0"/>
        <pt x="191" y="37" on="0"/>
        <pt x="155" y="97" on="0"/>
        <pt x="138" y="172" on="0"/>
        <pt x="138" y="209" on="1"/>
        <pt x="49" y="184" on="1"/>
        <pt x="42" y="186" on="0"/>
        <pt x="22" y="198" on="0"/>
        <pt x="9" y="216" on="0"/>
        <pt x="10" y="236" on="0"/>
        <pt x="24" y="246" on="1"/>
        <pt x="56" y="248" on="0"/>
        <pt x="118" y="261" on="0"/>
        <pt x="148" y="269" on="1"/>
        <pt x="150" y="296" on="0"/>
        <pt x="160" y="359" on="0"/>
        <pt x="166" y="394" on="1"/>
        <pt x="134" y="389" on="0"/>
        <pt x="85" y="384" on="0"/>
      </contour>
    </TTGlyph>
    <TTGlyph name="F" xMin="30" yMin="-1" xMax="480" yMax="863">
      <contour>
        <pt x="30" y="824" on="1"/>
        <pt x="30" y="836" on="0"/>
        <pt x="44" y="846" on="0"/>
        <pt x="64" y="850" on="0"/>
        <pt x="86" y="850" on="0"/>
        <pt x="94" y="851" on="1"/>
        <pt x="94" y="745" on="1"/>
        <pt x="167" y="767" on="0"/>
        <pt x="263" y="802" on="0"/>
        <pt x="341" y="829" on="0"/>
        <pt x="415" y="852" on="0"/>
        <pt x="466" y="863" on="1"/>
        <pt x="474" y="863" on="0"/>
        <pt x="480" y="847" on="0"/>
        <pt x="480" y="841" on="1"/>
        <pt x="480" y="828" on="0"/>
        <pt x="466" y="820" on="1"/>
        <pt x="98" y="685" on="1"/>
        <pt x="115" y="361" on="1"/>
        <pt x="197" y="407" on="0"/>
        <pt x="310" y="471" on="0"/>
        <pt x="384" y="513" on="0"/>
        <pt x="425" y="535" on="0"/>
        <pt x="445" y="545" on="0"/>
        <pt x="449" y="547" on="0"/>
        <pt x="450" y="547" on="1"/>
        <pt x="459" y="550" on="0"/>
        <pt x="465" y="543" on="0"/>
        <pt x="465" y="529" on="0"/>
        <pt x="460" y="511" on="0"/>
        <pt x="457" y="503" on="1"/>
        <pt x="452" y="496" on="0"/>
        <pt x="397" y="462" on="0"/>
        <pt x="321" y="418" on="0"/>
        <pt x="236" y="369" on="0"/>
        <pt x="163" y="327" on="0"/>
        <pt x="115" y="295" on="0"/>
        <pt x="115" y="290" on="1"/>
        <pt x="118" y="29" on="1"/>
        <pt x="118" y="15" on="0"/>
        <pt x="108" y="-1" on="0"/>
        <pt x="97" y="-1" on="1"/>
        <pt x="85" y="-1" on="0"/>
        <pt x="66" y="62" on="0"/>
        <pt x="52" y="167" on="0"/>
        <pt x="42" y="304" on="0"/>
        <pt x="36" y="450" on="0"/>
        <pt x="32" y="595" on="0"/>
        <pt x="30" y="717" on="0"/>
        <pt x="30" y="807" on="0"/>
      </contour>
    </TTGlyph>
    <TTGlyph name="G" xMin="11" yMin="-112" xMax="658" yMax="867">
      <contour>
        <pt x="509" y="221" on="1"/>
        <pt x="480" y="186" on="0"/>
        <pt x="398" y="110" on="0"/>
        <pt x="304" y="48" on="0"/>
        <pt x="206" y="10" on="0"/>
        <pt x="118" y="13" on="0"/>
        <pt x="45" y="66" on="0"/>
        <pt x="24" y="128" on="1"/>
        <pt x="11" y="172" on="0"/>
        <pt x="18" y="290" on="0"/>
        <pt x="51" y="421" on="0"/>
        <pt x="108" y="556" on="0"/>
        <pt x="185" y="678" on="0"/>
        <pt x="280" y="781" on="0"/>
        <pt x="387" y="846" on="0"/>
        <pt x="505" y="867" on="0"/>
        <pt x="567" y="846" on="1"/>
        <pt x="575" y="846" on="0"/>
        <pt x="579" y="839" on="0"/>
        <pt x="577" y="827" on="0"/>
        <pt x="572" y="809" on="0"/>
        <pt x="572" y="797" on="1"/>
        <pt x="499" y="807" on="0"/>
        <pt x="367" y="760" on="0"/>
        <pt x="254" y="666" on="0"/>
        <pt x="164" y="536" on="0"/>
        <pt x="103" y="390" on="0"/>
        <pt x="75" y="239" on="0"/>
        <pt x="80" y="171" on="1"/>
        <pt x="84" y="113" on="0"/>
        <pt x="144" y="72" on="0"/>
        <pt x="231" y="85" on="0"/>
        <pt x="333" y="142" on="0"/>
        <pt x="428" y="225" on="0"/>
        <pt x="503" y="323" on="0"/>
        <pt x="519" y="370" on="1"/>
        <pt x="339" y="370" on="1"/>
        <pt x="324" y="391" on="0"/>
        <pt x="348" y="413" on="0"/>
        <pt x="407" y="422" on="0"/>
        <pt x="489" y="422" on="0"/>
        <pt x="532" y="420" on="1"/>
        <pt x="545" y="423" on="0"/>
        <pt x="591" y="442" on="0"/>
        <pt x="633" y="454" on="0"/>
        <pt x="658" y="448" on="0"/>
        <pt x="649" y="427" on="1"/>
        <pt x="648" y="425" on="0"/>
        <pt x="636" y="416" on="0"/>
        <pt x="621" y="407" on="0"/>
        <pt x="608" y="399" on="0"/>
        <pt x="606" y="398" on="1"/>
        <pt x="582" y="351" on="0"/>
        <pt x="562" y="225" on="0"/>
        <pt x="560" y="89" on="0"/>
        <pt x="571" y="-45" on="0"/>
        <pt x="579" y="-99" on="1"/>
        <pt x="541" y="-112" on="1"/>
        <pt x="531" y="-97" on="0"/>
        <pt x="518" y="-11" on="0"/>
        <pt x="510" y="93" on="0"/>
        <pt x="508" y="192" on="0"/>
      </contour>
    </TTGlyph>
    <TTGlyph name="Gbreve" xMin="11" yMin="-112" xMax="658" yMax="1027">
      <component glyphName="G" x="0" y="0" flags="0x4"/>
      <component glyphName="breve" x="146" y="237" flags="0x4"/>
    </TTGlyph>
    <TTGlyph name="Gcircumflex" xMin="11" yMin="-112" xMax="658" yMax="1112">
      <component glyphName="G" x="0" y="0" flags="0x4"/>
      <component glyphName="circumflex" x="142" y="253" flags="0x4"/>
    </TTGlyph>
    <TTGlyph name="Gcommaaccent" xMin="11" yMin="-298" xMax="658" yMax="867">
      <component glyphName="G" x="0" y="0" flags="0x4"/>
      <component glyphName="commaaccent" x="134" y="-5" flags="0x4"/>
    </TTGlyph>
    <TTGlyph name="Gdotaccent" xMin="32" yMin="-99" xMax="679" yMax="990">
      <component glyphName="G" x="21" y="13" flags="0x4"/>
      <component glyphName="dotaccent" x="312" y="284" flags="0x4"/>
    </TTGlyph>
    <TTGlyph name="H" xMin="23" yMin="-11" xMax="450" yMax="848">
      <contour>
        <pt x="391" y="466" on="1"/>
        <pt x="383" y="461" on="0"/>
        <pt x="341" y="444" on="0"/>
        <pt x="286" y="424" on="0"/>
        <pt x="225" y="402" on="0"/>
        <pt x="170" y="381" on="0"/>
        <pt x="127" y="364" on="0"/>
        <pt x="119" y="358" on="1"/>
        <pt x="101" y="345" on="0"/>
        <pt x="83" y="298" on="0"/>
        <pt x="75" y="239" on="0"/>
        <pt x="75" y="172" on="0"/>
        <pt x="79" y="108" on="0"/>
        <pt x="84" y="50" on="0"/>
        <pt x="85" y="30" on="1"/>
        <pt x="84" y="14" on="0"/>
        <pt x="63" y="-11" on="0"/>
        <pt x="47" y="-11" on="1"/>
        <pt x="41" y="-11" on="0"/>
        <pt x="25" y="-5" on="0"/>
        <pt x="26" y="3" on="1"/>
        <pt x="23" y="820" on="1"/>
        <pt x="23" y="834" on="0"/>
        <pt x="35" y="847" on="0"/>
        <pt x="53" y="848" on="0"/>
        <pt x="73" y="840" on="0"/>
        <pt x="81" y="834" on="1"/>
        <pt x="82" y="790" on="0"/>
        <pt x="82" y="676" on="0"/>
        <pt x="83" y="560" on="0"/>
        <pt x="88" y="452" on="0"/>
        <pt x="95" y="414" on="1"/>
        <pt x="144" y="435" on="0"/>
        <pt x="246" y="464" on="0"/>
        <pt x="329" y="503" on="0"/>
        <pt x="383" y="564" on="0"/>
        <pt x="386" y="616" on="1"/>
        <pt x="388" y="643" on="0"/>
        <pt x="388" y="685" on="0"/>
        <pt x="385" y="727" on="0"/>
        <pt x="376" y="774" on="0"/>
        <pt x="369" y="806" on="1"/>
        <pt x="369" y="826" on="0"/>
        <pt x="386" y="837" on="0"/>
        <pt x="399" y="837" on="1"/>
        <pt x="413" y="837" on="0"/>
        <pt x="428" y="823" on="0"/>
        <pt x="435" y="802" on="0"/>
        <pt x="437" y="776" on="0"/>
        <pt x="437" y="765" on="1"/>
        <pt x="438" y="748" on="0"/>
        <pt x="440" y="676" on="0"/>
        <pt x="442" y="587" on="0"/>
        <pt x="445" y="487" on="0"/>
        <pt x="447" y="398" on="0"/>
        <pt x="449" y="326" on="0"/>
        <pt x="449" y="309" on="1"/>
        <pt x="450" y="288" on="0"/>
        <pt x="450" y="218" on="0"/>
        <pt x="450" y="142" on="0"/>
        <pt x="448" y="71" on="0"/>
        <pt x="447" y="50" on="1"/>
        <pt x="446" y="41" on="0"/>
        <pt x="445" y="23" on="0"/>
        <pt x="440" y="7" on="0"/>
        <pt x="427" y="-5" on="0"/>
        <pt x="414" y="-8" on="1"/>
        <pt x="394" y="5" on="0"/>
        <pt x="391" y="41" on="0"/>
        <pt x="390" y="62" on="1"/>
        <pt x="390" y="74" on="0"/>
        <pt x="391" y="137" on="0"/>
        <pt x="391" y="219" on="0"/>
        <pt x="392" y="310" on="0"/>
        <pt x="392" y="391" on="0"/>
        <pt x="392" y="454" on="0"/>
      </contour>
    </TTGlyph>
    <TTGlyph name="Hbar" xMin="-6" yMin="-11" xMax="487" yMax="848">
      <component glyphName="H" x="0" y="0" flags="0x4"/>
      <component glyphName="macron" x="-49" y="-42" scalex="1.23767089844" scaley="0.938781738281" flags="0x4"/>
    </TTGlyph>
    <TTGlyph name="Hcircumflex" xMin="23" yMin="-11" xMax="450" yMax="1121">
      <component glyphName="H" x="0" y="0" flags="0x4"/>
      <component glyphName="circumflex" x="4" y="262" flags="0x4"/>
    </TTGlyph>
    <TTGlyph name="I" xMin="31" yMin="-9" xMax="105" yMax="849">
      <contour>
        <pt x="31" y="838" on="1"/>
        <pt x="35" y="844" on="0"/>
        <pt x="52" y="849" on="0"/>
        <pt x="70" y="847" on="0"/>
        <pt x="87" y="839" on="0"/>
        <pt x="90" y="834" on="1"/>
        <pt x="105" y="14" on="1"/>
        <pt x="105" y="2" on="0"/>
        <pt x="93" y="-8" on="0"/>
        <pt x="76" y="-9" on="0"/>
        <pt x="58" y="-3" on="0"/>
        <pt x="52" y="3" on="1"/>
      </contour>
    </TTGlyph>
    <TTGlyph name="Iacute" xMin="36" yMin="-9" xMax="174" yMax="1062">
      <component glyphName="I" x="29" y="0" flags="0x4"/>
      <component glyphName="acute" x="17" y="238" flags="0x4"/>
    </TTGlyph>
    <TTGlyph name="Ibreve" xMin="-76" yMin="-3" xMax="195" yMax="1053">
      <component glyphName="I" x="20" y="6" flags="0x4"/>
      <component glyphName="breve" x="-117" y="263" flags="0x4"/>
    </TTGlyph>
    <TTGlyph name="Icircumflex" xMin="-51" yMin="-7" xMax="230" yMax="1107">
      <component glyphName="I" x="14" y="2" flags="0x4"/>
      <component glyphName="circumflex" x="-141" y="248" flags="0x4"/>
    </TTGlyph>
    <TTGlyph name="Idieresis" xMin="-42" yMin="-14" xMax="196" yMax="1012">
      <component glyphName="I" x="23" y="-5" flags="0x4"/>
      <component glyphName="dieresis" x="-83" y="288" flags="0x4"/>
    </TTGlyph>
    <TTGlyph name="Idotaccent" xMin="25" yMin="0" xMax="117" yMax="1018">
      <component glyphName="I" x="12" y="9" flags="0x4"/>
      <component glyphName="dotaccent" x="5" y="312" flags="0x4"/>
    </TTGlyph>
    <TTGlyph name="Igrave" xMin="16" yMin="-11" xMax="149" yMax="1034">
      <component glyphName="I" x="23" y="-2" flags="0x4"/>
      <component glyphName="grave" x="0" y="224" flags="0x4"/>
    </TTGlyph>
    <TTGlyph name="Iogonek" xMin="-19" yMin="-235" xMax="254" yMax="855">
      <component glyphName="I" x="11" y="6" flags="0x4"/>
      <component glyphName="ogonek" x="-126" y="48" flags="0x4"/>
    </TTGlyph>
    <TTGlyph name="Itilde" xMin="-143" yMin="-9" xMax="213" yMax="1088">
      <component glyphName="I" x="17" y="0" flags="0x4"/>
      <component glyphName="tilde" x="-161" y="307" flags="0x4"/>
    </TTGlyph>
    <TTGlyph name="J" xMin="5" yMin="-74" xMax="447" yMax="852">
      <contour>
        <pt x="12" y="193" on="1"/>
        <pt x="16" y="213" on="0"/>
        <pt x="30" y="231" on="0"/>
        <pt x="44" y="232" on="0"/>
        <pt x="54" y="220" on="0"/>
        <pt x="53" y="211" on="1"/>
        <pt x="51" y="184" on="0"/>
        <pt x="80" y="120" on="0"/>
        <pt x="131" y="60" on="0"/>
        <pt x="199" y="12" on="0"/>
        <pt x="271" y="-9" on="0"/>
        <pt x="342" y="4" on="0"/>
        <pt x="371" y="35" on="1"/>
        <pt x="383" y="55" on="0"/>
        <pt x="391" y="137" on="0"/>
        <pt x="386" y="246" on="0"/>
        <pt x="371" y="373" on="0"/>
        <pt x="352" y="502" on="0"/>
        <pt x="332" y="625" on="0"/>
        <pt x="315" y="725" on="0"/>
        <pt x="304" y="794" on="0"/>
        <pt x="305" y="805" on="1"/>
        <pt x="300" y="815" on="0"/>
        <pt x="310" y="838" on="0"/>
        <pt x="329" y="852" on="0"/>
        <pt x="352" y="850" on="0"/>
        <pt x="361" y="835" on="1"/>
        <pt x="375" y="754" on="0"/>
        <pt x="405" y="576" on="0"/>
        <pt x="431" y="394" on="0"/>
        <pt x="447" y="215" on="0"/>
        <pt x="447" y="133" on="1"/>
        <pt x="447" y="89" on="0"/>
        <pt x="432" y="14" on="0"/>
        <pt x="394" y="-42" on="0"/>
        <pt x="329" y="-74" on="0"/>
        <pt x="280" y="-74" on="1"/>
        <pt x="252" y="-74" on="0"/>
        <pt x="187" y="-47" on="0"/>
        <pt x="123" y="-3" on="0"/>
        <pt x="65" y="54" on="0"/>
        <pt x="24" y="113" on="0"/>
        <pt x="5" y="170" on="0"/>
      </contour>
    </TTGlyph>
    <TTGlyph name="Jcircumflex" xMin="5" yMin="-74" xMax="448" yMax="1094">
      <component glyphName="J" x="0" y="0" flags="0x4"/>
      <component glyphName="circumflex" x="77" y="235" flags="0x4"/>
    </TTGlyph>
    <TTGlyph name="K" xMin="19" yMin="-15" xMax="520" yMax="855">
      <contour>
        <pt x="19" y="807" on="1"/>
        <pt x="20" y="819" on="0"/>
        <pt x="30" y="839" on="0"/>
        <pt x="45" y="850" on="0"/>
        <pt x="61" y="849" on="0"/>
        <pt x="69" y="840" on="1"/>
        <pt x="73" y="840" on="0"/>
        <pt x="78" y="825" on="0"/>
        <pt x="80" y="786" on="0"/>
        <pt x="81" y="718" on="0"/>
        <pt x="81" y="612" on="0"/>
        <pt x="82" y="463" on="0"/>
        <pt x="83" y="363" on="1"/>
        <pt x="87" y="370" on="0"/>
        <pt x="122" y="427" on="0"/>
        <pt x="176" y="510" on="0"/>
        <pt x="243" y="607" on="0"/>
        <pt x="314" y="703" on="0"/>
        <pt x="385" y="787" on="0"/>
        <pt x="445" y="840" on="0"/>
        <pt x="492" y="855" on="0"/>
        <pt x="503" y="834" on="1"/>
        <pt x="416" y="722" on="0"/>
        <pt x="282" y="556" on="0"/>
        <pt x="185" y="423" on="0"/>
        <pt x="120" y="311" on="0"/>
        <pt x="101" y="253" on="1"/>
        <pt x="520" y="51" on="1"/>
        <pt x="518" y="34" on="0"/>
        <pt x="499" y="4" on="0"/>
        <pt x="477" y="6" on="1"/>
        <pt x="88" y="187" on="1"/>
        <pt x="91" y="171" on="0"/>
        <pt x="90" y="126" on="0"/>
        <pt x="87" y="78" on="0"/>
        <pt x="81" y="34" on="0"/>
        <pt x="80" y="20" on="1"/>
        <pt x="82" y="-1" on="0"/>
        <pt x="49" y="-15" on="0"/>
        <pt x="33" y="-1" on="1"/>
      </contour>
    </TTGlyph>
    <TTGlyph name="Kcommaaccent" xMin="19" yMin="-293" xMax="520" yMax="855">
      <component glyphName="K" x="0" y="0" flags="0x4"/>
      <component glyphName="commaaccent" x="56" y="0" flags="0x4"/>
    </TTGlyph>
    <TTGlyph name="L" xMin="33" yMin="0" xMax="622" yMax="850">
      <contour>
        <pt x="54" y="43" on="1"/>
        <pt x="51" y="257" on="0"/>
        <pt x="43" y="542" on="0"/>
        <pt x="37" y="719" on="0"/>
        <pt x="33" y="804" on="0"/>
        <pt x="33" y="817" on="1"/>
        <pt x="33" y="832" on="0"/>
        <pt x="50" y="850" on="0"/>
        <pt x="70" y="849" on="0"/>
        <pt x="88" y="828" on="0"/>
        <pt x="89" y="805" on="1"/>
        <pt x="121" y="72" on="1"/>
        <pt x="555" y="164" on="1"/>
        <pt x="622" y="164" on="0"/>
        <pt x="584" y="107" on="1"/>
        <pt x="82" y="0" on="1"/>
        <pt x="54" y="0" on="0"/>
      </contour>
    </TTGlyph>
    <TTGlyph name="Lacute" xMin="33" yMin="0" xMax="622" yMax="1033">
      <component glyphName="L" x="0" y="0" flags="0x204"/>
      <component glyphName="acute" x="174" y="209" flags="0x4"/>
    </TTGlyph>
    <TTGlyph name="Lcaron" xMin="33" yMin="0" xMax="622" yMax="850">
      <component glyphName="L" x="0" y="0" flags="0x204"/>
      <component glyphName="quoteright" x="156" y="102" flags="0x4"/>
    </TTGlyph>
    <TTGlyph name="Lcommaaccent" xMin="33" yMin="-293" xMax="622" yMax="850">
      <component glyphName="L" x="0" y="0" flags="0x204"/>
      <component glyphName="commaaccent" x="63" y="0" flags="0x4"/>
    </TTGlyph>
    <TTGlyph name="Ldot" xMin="33" yMin="0" xMax="622" yMax="850">
      <component glyphName="L" x="0" y="0" flags="0x204"/>
      <component glyphName="periodcentered" x="197" y="86" flags="0x4"/>
    </TTGlyph>
    <TTGlyph name="Lslash" xMin="-23" yMin="0" xMax="622" yMax="850">
      <contour>
        <pt x="8" y="326" on="1"/>
        <pt x="0" y="321" on="0"/>
        <pt x="-17" y="338" on="0"/>
        <pt x="-23" y="365" on="0"/>
        <pt x="-12" y="393" on="0"/>
        <pt x="8" y="398" on="1"/>
        <pt x="187" y="463" on="1"/>
        <pt x="197" y="463" on="0"/>
        <pt x="207" y="448" on="0"/>
        <pt x="209" y="425" on="0"/>
        <pt x="204" y="401" on="0"/>
        <pt x="199" y="394" on="1"/>
      </contour>
      <contour>
        <pt x="54" y="43" on="1"/>
        <pt x="51" y="257" on="0"/>
        <pt x="43" y="542" on="0"/>
        <pt x="37" y="719" on="0"/>
        <pt x="33" y="804" on="0"/>
        <pt x="33" y="817" on="1"/>
        <pt x="33" y="832" on="0"/>
        <pt x="50" y="850" on="0"/>
        <pt x="70" y="849" on="0"/>
        <pt x="88" y="828" on="0"/>
        <pt x="89" y="805" on="1"/>
        <pt x="121" y="72" on="1"/>
        <pt x="555" y="164" on="1"/>
        <pt x="622" y="164" on="0"/>
        <pt x="584" y="107" on="1"/>
        <pt x="82" y="0" on="1"/>
        <pt x="54" y="0" on="0"/>
      </contour>
    </TTGlyph>
    <TTGlyph name="M" xMin="19" yMin="-22" xMax="723" yMax="869">
      <contour>
        <pt x="589" y="739" on="1"/>
        <pt x="585" y="741" on="0"/>
        <pt x="568" y="687" on="0"/>
        <pt x="542" y="601" on="0"/>
        <pt x="511" y="493" on="0"/>
        <pt x="476" y="387" on="0"/>
        <pt x="440" y="295" on="0"/>
        <pt x="405" y="241" on="0"/>
        <pt x="374" y="236" on="0"/>
        <pt x="361" y="270" on="1"/>
        <pt x="345" y="294" on="0"/>
        <pt x="305" y="378" on="0"/>
        <pt x="260" y="476" on="0"/>
        <pt x="211" y="581" on="0"/>
        <pt x="161" y="671" on="0"/>
        <pt x="113" y="738" on="0"/>
        <pt x="91" y="751" on="1"/>
        <pt x="91" y="673" on="0"/>
        <pt x="109" y="487" on="0"/>
        <pt x="130" y="296" on="0"/>
        <pt x="148" y="110" on="0"/>
        <pt x="148" y="31" on="1"/>
        <pt x="153" y="21" on="0"/>
        <pt x="144" y="1" on="0"/>
        <pt x="126" y="-9" on="0"/>
        <pt x="102" y="-3" on="0"/>
        <pt x="92" y="12" on="1"/>
        <pt x="78" y="112" on="0"/>
        <pt x="66" y="320" on="0"/>
        <pt x="54" y="530" on="0"/>
        <pt x="37" y="738" on="0"/>
        <pt x="20" y="839" on="1"/>
        <pt x="19" y="859" on="0"/>
        <pt x="35" y="869" on="0"/>
        <pt x="47" y="869" on="1"/>
        <pt x="92" y="856" on="0"/>
        <pt x="164" y="787" on="0"/>
        <pt x="223" y="694" on="0"/>
        <pt x="272" y="584" on="0"/>
        <pt x="320" y="475" on="0"/>
        <pt x="368" y="376" on="0"/>
        <pt x="397" y="340" on="1"/>
        <pt x="401" y="340" on="0"/>
        <pt x="408" y="347" on="0"/>
        <pt x="420" y="378" on="0"/>
        <pt x="442" y="442" on="0"/>
        <pt x="479" y="556" on="0"/>
        <pt x="535" y="729" on="0"/>
        <pt x="575" y="853" on="1"/>
        <pt x="577" y="859" on="0"/>
        <pt x="593" y="868" on="0"/>
        <pt x="612" y="868" on="0"/>
        <pt x="628" y="855" on="0"/>
        <pt x="631" y="839" on="1"/>
        <pt x="641" y="747" on="0"/>
        <pt x="658" y="542" on="0"/>
        <pt x="678" y="328" on="0"/>
        <pt x="704" y="109" on="0"/>
        <pt x="723" y="3" on="1"/>
        <pt x="721" y="-11" on="0"/>
        <pt x="707" y="-22" on="0"/>
        <pt x="687" y="-20" on="0"/>
        <pt x="664" y="-9" on="0"/>
        <pt x="654" y="-1" on="1"/>
      </contour>
    </TTGlyph>
    <TTGlyph name="N" xMin="27" yMin="-9" xMax="556" yMax="857">
      <contour>
        <pt x="27" y="841" on="1"/>
        <pt x="38" y="857" on="0"/>
        <pt x="69" y="844" on="0"/>
        <pt x="96" y="817" on="0"/>
        <pt x="112" y="790" on="0"/>
        <pt x="108" y="791" on="1"/>
        <pt x="475" y="164" on="1"/>
        <pt x="478" y="179" on="0"/>
        <pt x="483" y="246" on="0"/>
        <pt x="485" y="337" on="0"/>
        <pt x="484" y="445" on="0"/>
        <pt x="481" y="553" on="0"/>
        <pt x="475" y="657" on="0"/>
        <pt x="467" y="740" on="0"/>
        <pt x="457" y="795" on="0"/>
        <pt x="450" y="801" on="1"/>
        <pt x="450" y="817" on="0"/>
        <pt x="462" y="846" on="0"/>
        <pt x="480" y="846" on="1"/>
        <pt x="497" y="846" on="0"/>
        <pt x="519" y="806" on="0"/>
        <pt x="531" y="756" on="0"/>
        <pt x="536" y="708" on="0"/>
        <pt x="536" y="701" on="1"/>
        <pt x="537" y="681" on="0"/>
        <pt x="538" y="594" on="0"/>
        <pt x="539" y="482" on="0"/>
        <pt x="540" y="359" on="0"/>
        <pt x="541" y="247" on="0"/>
        <pt x="541" y="159" on="0"/>
        <pt x="542" y="139" on="1"/>
        <pt x="543" y="111" on="0"/>
        <pt x="556" y="69" on="0"/>
        <pt x="556" y="42" on="1"/>
        <pt x="556" y="20" on="0"/>
        <pt x="523" y="-2" on="0"/>
        <pt x="503" y="-2" on="1"/>
        <pt x="492" y="-2" on="0"/>
        <pt x="475" y="4" on="0"/>
        <pt x="465" y="18" on="0"/>
        <pt x="464" y="41" on="0"/>
        <pt x="469" y="58" on="1"/>
        <pt x="451" y="79" on="0"/>
        <pt x="395" y="178" on="0"/>
        <pt x="328" y="303" on="0"/>
        <pt x="255" y="441" on="0"/>
        <pt x="188" y="564" on="0"/>
        <pt x="130" y="656" on="0"/>
        <pt x="112" y="673" on="1"/>
        <pt x="107" y="608" on="0"/>
        <pt x="111" y="437" on="0"/>
        <pt x="121" y="258" on="0"/>
        <pt x="132" y="88" on="0"/>
        <pt x="132" y="23" on="1"/>
        <pt x="132" y="2" on="0"/>
        <pt x="108" y="-9" on="0"/>
        <pt x="82" y="-3" on="0"/>
        <pt x="64" y="12" on="0"/>
        <pt x="70" y="16" on="1"/>
      </contour>
    </TTGlyph>
    <TTGlyph name="Nacute" xMin="27" yMin="-9" xMax="556" yMax="1028">
      <component glyphName="N" x="0" y="0" flags="0x4"/>
      <component glyphName="acute" x="173" y="204" flags="0x4"/>
    </TTGlyph>
    <TTGlyph name="Ncaron" xMin="27" yMin="-9" xMax="556" yMax="1096">
      <component glyphName="N" x="0" y="0" flags="0x4"/>
      <component glyphName="caron" x="67" y="226" flags="0x4"/>
    </TTGlyph>
    <TTGlyph name="Ncommaaccent" xMin="27" yMin="-293" xMax="556" yMax="857">
      <component glyphName="N" x="0" y="0" flags="0x4"/>
      <component glyphName="commaaccent" x="65" y="0" flags="0x4"/>
    </TTGlyph>
    <TTGlyph name="Ntilde" xMin="27" yMin="-9" xMax="556" yMax="1021">
      <component glyphName="N" x="0" y="0" flags="0x4"/>
      <component glyphName="tilde" x="107" y="240" flags="0x4"/>
    </TTGlyph>
    <TTGlyph name="O" xMin="21" yMin="6" xMax="553" yMax="861">
      <contour>
        <pt x="22" y="253" on="1"/>
        <pt x="21" y="379" on="0"/>
        <pt x="75" y="586" on="0"/>
        <pt x="163" y="740" on="0"/>
        <pt x="272" y="835" on="0"/>
        <pt x="380" y="861" on="0"/>
        <pt x="476" y="815" on="0"/>
        <pt x="506" y="751" on="1"/>
        <pt x="533" y="694" on="0"/>
        <pt x="553" y="543" on="0"/>
        <pt x="540" y="382" on="0"/>
        <pt x="494" y="226" on="0"/>
        <pt x="415" y="99" on="0"/>
        <pt x="305" y="16" on="0"/>
        <pt x="234" y="9" on="1"/>
        <pt x="178" y="6" on="0"/>
        <pt x="98" y="57" on="0"/>
        <pt x="47" y="134" on="0"/>
        <pt x="22" y="221" on="0"/>
      </contour>
      <contour>
        <pt x="234" y="737" on="1"/>
        <pt x="217" y="723" on="0"/>
        <pt x="175" y="653" on="0"/>
        <pt x="135" y="556" on="0"/>
        <pt x="102" y="442" on="0"/>
        <pt x="83" y="326" on="0"/>
        <pt x="84" y="216" on="0"/>
        <pt x="114" y="127" on="0"/>
        <pt x="176" y="68" on="0"/>
        <pt x="228" y="61" on="1"/>
        <pt x="268" y="56" on="0"/>
        <pt x="349" y="118" on="0"/>
        <pt x="417" y="224" on="0"/>
        <pt x="468" y="359" on="0"/>
        <pt x="480" y="426" on="1"/>
        <pt x="490" y="486" on="0"/>
        <pt x="490" y="601" on="0"/>
        <pt x="468" y="697" on="0"/>
        <pt x="426" y="767" on="0"/>
        <pt x="364" y="797" on="0"/>
        <pt x="283" y="778" on="0"/>
      </contour>
    </TTGlyph>
    <TTGlyph name="OE" xMin="21" yMin="5" xMax="774" yMax="862">
      <contour>
        <pt x="22" y="253" on="1"/>
        <pt x="21" y="362" on="0"/>
        <pt x="62" y="548" on="0"/>
        <pt x="132" y="694" on="0"/>
        <pt x="222" y="797" on="0"/>
        <pt x="270" y="824" on="1"/>
        <pt x="270" y="830" on="0"/>
        <pt x="278" y="844" on="0"/>
        <pt x="290" y="856" on="0"/>
        <pt x="305" y="862" on="0"/>
        <pt x="313" y="859" on="1"/>
        <pt x="326" y="854" on="0"/>
        <pt x="343" y="825" on="0"/>
        <pt x="352" y="791" on="0"/>
        <pt x="355" y="760" on="0"/>
        <pt x="355" y="753" on="1"/>
        <pt x="740" y="849" on="1"/>
        <pt x="749" y="847" on="0"/>
        <pt x="760" y="830" on="0"/>
        <pt x="759" y="809" on="0"/>
        <pt x="746" y="789" on="0"/>
        <pt x="733" y="785" on="1"/>
        <pt x="354" y="682" on="1"/>
        <pt x="354" y="617" on="0"/>
        <pt x="361" y="489" on="0"/>
        <pt x="366" y="423" on="1"/>
        <pt x="644" y="520" on="1"/>
        <pt x="644" y="520" on="0"/>
        <pt x="656" y="532" on="0"/>
        <pt x="673" y="540" on="0"/>
        <pt x="692" y="538" on="0"/>
        <pt x="701" y="524" on="1"/>
        <pt x="701" y="504" on="0"/>
        <pt x="653" y="471" on="0"/>
        <pt x="582" y="443" on="0"/>
        <pt x="499" y="418" on="0"/>
        <pt x="428" y="392" on="0"/>
        <pt x="380" y="365" on="0"/>
        <pt x="380" y="350" on="1"/>
        <pt x="373" y="87" on="1"/>
        <pt x="388" y="78" on="0"/>
        <pt x="445" y="85" on="0"/>
        <pt x="515" y="105" on="0"/>
        <pt x="593" y="134" on="0"/>
        <pt x="665" y="160" on="0"/>
        <pt x="726" y="180" on="0"/>
        <pt x="745" y="181" on="1"/>
        <pt x="754" y="180" on="0"/>
        <pt x="768" y="169" on="0"/>
        <pt x="774" y="155" on="0"/>
        <pt x="769" y="140" on="0"/>
        <pt x="758" y="135" on="1"/>
        <pt x="719" y="118" on="0"/>
        <pt x="609" y="76" on="0"/>
        <pt x="492" y="37" on="0"/>
        <pt x="382" y="8" on="0"/>
        <pt x="344" y="5" on="1"/>
        <pt x="331" y="7" on="0"/>
        <pt x="314" y="14" on="0"/>
        <pt x="304" y="25" on="1"/>
        <pt x="287" y="19" on="0"/>
        <pt x="253" y="11" on="0"/>
        <pt x="234" y="9" on="1"/>
        <pt x="178" y="6" on="0"/>
        <pt x="98" y="57" on="0"/>
        <pt x="47" y="134" on="0"/>
        <pt x="22" y="221" on="0"/>
      </contour>
      <contour>
        <pt x="234" y="737" on="1"/>
        <pt x="217" y="723" on="0"/>
        <pt x="175" y="653" on="0"/>
        <pt x="135" y="556" on="0"/>
        <pt x="102" y="442" on="0"/>
        <pt x="83" y="326" on="0"/>
        <pt x="84" y="216" on="0"/>
        <pt x="114" y="127" on="0"/>
        <pt x="176" y="68" on="0"/>
        <pt x="228" y="61" on="1"/>
        <pt x="262" y="57" on="0"/>
        <pt x="302" y="82" on="1"/>
        <pt x="303" y="166" on="0"/>
        <pt x="308" y="338" on="0"/>
        <pt x="308" y="512" on="0"/>
        <pt x="296" y="685" on="0"/>
        <pt x="281" y="769" on="1"/>
        <pt x="259" y="757" on="0"/>
      </contour>
    </TTGlyph>
    <TTGlyph name="Oacute" xMin="21" yMin="6" xMax="553" yMax="1018">
      <component glyphName="O" x="0" y="0" flags="0x4"/>
      <component glyphName="acute" x="207" y="194" flags="0x4"/>
    </TTGlyph>
    <TTGlyph name="Obreve" xMin="21" yMin="6" xMax="553" yMax="1065">
      <component glyphName="O" x="0" y="0" flags="0x4"/>
      <component glyphName="breve" x="179" y="275" flags="0x4"/>
    </TTGlyph>
    <TTGlyph name="Ocircumflex" xMin="21" yMin="6" xMax="553" yMax="1109">
      <component glyphName="O" x="0" y="0" flags="0x4"/>
      <component glyphName="circumflex" x="119" y="250" flags="0x4"/>
    </TTGlyph>
    <TTGlyph name="Odieresis" xMin="21" yMin="6" xMax="553" yMax="973">
      <component glyphName="O" x="0" y="0" flags="0x204"/>
      <component glyphName="dieresis" x="170" y="249" flags="0x4"/>
    </TTGlyph>
    <TTGlyph name="Ograve" xMin="21" yMin="6" xMax="553" yMax="1051">
      <component glyphName="O" x="0" y="0" flags="0x4"/>
      <component glyphName="grave" x="221" y="241" flags="0x4"/>
    </TTGlyph>
    <TTGlyph name="Ohungarumlaut" xMin="21" yMin="6" xMax="553" yMax="1047">
      <component glyphName="O" x="0" y="0" flags="0x4"/>
      <component glyphName="hungarumlaut" x="215" y="235" flags="0x4"/>
    </TTGlyph>
    <TTGlyph name="Omacron" xMin="21" yMin="6" xMax="553" yMax="967">
      <component glyphName="O" x="0" y="0" flags="0x4"/>
      <component glyphName="macron" x="81" y="254" flags="0x4"/>
    </TTGlyph>
    <TTGlyph name="Oslash" xMin="21" yMin="-26" xMax="553" yMax="858">
      <contour>
        <pt x="22" y="253" on="1"/>
        <pt x="21" y="361" on="0"/>
        <pt x="61" y="545" on="0"/>
        <pt x="129" y="690" on="0"/>
        <pt x="217" y="794" on="0"/>
        <pt x="311" y="850" on="0"/>
        <pt x="404" y="855" on="0"/>
        <pt x="442" y="829" on="1"/>
        <pt x="449" y="844" on="1"/>
        <pt x="467" y="858" on="0"/>
        <pt x="502" y="856" on="0"/>
        <pt x="503" y="831" on="1"/>
        <pt x="484" y="788" on="1"/>
        <pt x="490" y="780" on="0"/>
        <pt x="501" y="761" on="0"/>
        <pt x="506" y="751" on="1"/>
        <pt x="533" y="694" on="0"/>
        <pt x="553" y="543" on="0"/>
        <pt x="540" y="382" on="0"/>
        <pt x="494" y="226" on="0"/>
        <pt x="415" y="99" on="0"/>
        <pt x="305" y="16" on="0"/>
        <pt x="234" y="9" on="1"/>
        <pt x="211" y="7" on="0"/>
        <pt x="171" y="15" on="0"/>
        <pt x="154" y="23" on="1"/>
        <pt x="136" y="-18" on="1"/>
        <pt x="126" y="-23" on="0"/>
        <pt x="105" y="-26" on="0"/>
        <pt x="87" y="-20" on="0"/>
        <pt x="75" y="-8" on="0"/>
        <pt x="75" y="2" on="1"/>
        <pt x="101" y="61" on="1"/>
        <pt x="81" y="81" on="0"/>
        <pt x="51" y="131" on="0"/>
        <pt x="31" y="183" on="0"/>
        <pt x="22" y="233" on="0"/>
      </contour>
      <contour>
        <pt x="234" y="737" on="1"/>
        <pt x="215" y="721" on="0"/>
        <pt x="168" y="638" on="0"/>
        <pt x="125" y="526" on="0"/>
        <pt x="91" y="396" on="0"/>
        <pt x="80" y="269" on="0"/>
        <pt x="97" y="156" on="0"/>
        <pt x="126" y="118" on="1"/>
        <pt x="415" y="768" on="1"/>
        <pt x="383" y="794" on="0"/>
        <pt x="292" y="785" on="0"/>
      </contour>
      <contour>
        <pt x="480" y="426" on="1"/>
        <pt x="494" y="510" on="0"/>
        <pt x="481" y="665" on="0"/>
        <pt x="454" y="718" on="1"/>
        <pt x="177" y="76" on="1"/>
        <pt x="188" y="71" on="0"/>
        <pt x="213" y="63" on="0"/>
        <pt x="228" y="61" on="1"/>
        <pt x="268" y="56" on="0"/>
        <pt x="349" y="118" on="0"/>
        <pt x="417" y="224" on="0"/>
        <pt x="468" y="359" on="0"/>
      </contour>
    </TTGlyph>
    <TTGlyph name="Oslashacute" xMin="21" yMin="-26" xMax="553" yMax="1033">
      <contour>
        <pt x="22" y="253" on="1"/>
        <pt x="22" y="233" on="0"/>
        <pt x="31" y="183" on="0"/>
        <pt x="51" y="131" on="0"/>
        <pt x="81" y="81" on="0"/>
        <pt x="101" y="61" on="1"/>
        <pt x="75" y="2" on="1"/>
        <pt x="75" y="-8" on="0"/>
        <pt x="87" y="-20" on="0"/>
        <pt x="105" y="-26" on="0"/>
        <pt x="126" y="-23" on="0"/>
        <pt x="136" y="-18" on="1"/>
        <pt x="154" y="23" on="1"/>
        <pt x="171" y="15" on="0"/>
        <pt x="211" y="7" on="0"/>
        <pt x="234" y="9" on="1"/>
        <pt x="305" y="16" on="0"/>
        <pt x="415" y="99" on="0"/>
        <pt x="494" y="226" on="0"/>
        <pt x="540" y="382" on="0"/>
        <pt x="553" y="543" on="0"/>
        <pt x="533" y="694" on="0"/>
        <pt x="506" y="751" on="1"/>
        <pt x="501" y="761" on="0"/>
        <pt x="490" y="780" on="0"/>
        <pt x="484" y="788" on="1"/>
        <pt x="503" y="831" on="1"/>
        <pt x="502" y="856" on="0"/>
        <pt x="467" y="858" on="0"/>
        <pt x="449" y="844" on="1"/>
        <pt x="442" y="829" on="1"/>
        <pt x="404" y="855" on="0"/>
        <pt x="311" y="850" on="0"/>
        <pt x="217" y="794" on="0"/>
        <pt x="129" y="690" on="0"/>
        <pt x="61" y="545" on="0"/>
        <pt x="21" y="361" on="0"/>
      </contour>
      <contour>
        <pt x="234" y="737" on="1"/>
        <pt x="292" y="785" on="0"/>
        <pt x="383" y="794" on="0"/>
        <pt x="415" y="768" on="1"/>
        <pt x="126" y="118" on="1"/>
        <pt x="97" y="156" on="0"/>
        <pt x="80" y="269" on="0"/>
        <pt x="91" y="396" on="0"/>
        <pt x="125" y="526" on="0"/>
        <pt x="168" y="638" on="0"/>
        <pt x="215" y="721" on="0"/>
      </contour>
      <contour>
        <pt x="480" y="426" on="1"/>
        <pt x="468" y="359" on="0"/>
        <pt x="417" y="224" on="0"/>
        <pt x="349" y="118" on="0"/>
        <pt x="268" y="56" on="0"/>
        <pt x="228" y="61" on="1"/>
        <pt x="213" y="63" on="0"/>
        <pt x="188" y="71" on="0"/>
        <pt x="177" y="76" on="1"/>
        <pt x="454" y="718" on="1"/>
        <pt x="481" y="665" on="0"/>
        <pt x="494" y="510" on="0"/>
      </contour>
      <contour>
        <pt x="287" y="877" on="1"/>
        <pt x="257" y="883" on="0"/>
        <pt x="251" y="917" on="0"/>
        <pt x="280" y="960" on="0"/>
        <pt x="331" y="1010" on="0"/>
        <pt x="357" y="1033" on="1"/>
        <pt x="375" y="1033" on="0"/>
        <pt x="389" y="1013" on="0"/>
        <pt x="389" y="1000" on="1"/>
        <pt x="389" y="992" on="1"/>
        <pt x="387" y="979" on="0"/>
        <pt x="364" y="948" on="0"/>
        <pt x="333" y="917" on="0"/>
        <pt x="299" y="888" on="0"/>
      </contour>
    </TTGlyph>
    <TTGlyph name="Otilde" xMin="21" yMin="6" xMax="553" yMax="1027">
      <component glyphName="O" x="0" y="0" flags="0x4"/>
      <component glyphName="tilde" x="138" y="246" flags="0x4"/>
    </TTGlyph>
    <TTGlyph name="P" xMin="17" yMin="0" xMax="545" yMax="849">
      <contour>
        <pt x="79" y="13" on="1"/>
        <pt x="79" y="116" on="0"/>
        <pt x="86" y="302" on="0"/>
        <pt x="92" y="472" on="0"/>
        <pt x="94" y="629" on="0"/>
        <pt x="88" y="703" on="1"/>
        <pt x="83" y="700" on="0"/>
        <pt x="70" y="686" on="0"/>
        <pt x="57" y="672" on="0"/>
        <pt x="43" y="661" on="0"/>
        <pt x="38" y="661" on="1"/>
        <pt x="30" y="661" on="0"/>
        <pt x="17" y="674" on="0"/>
        <pt x="17" y="684" on="1"/>
        <pt x="17" y="687" on="1"/>
        <pt x="17" y="688" on="0"/>
        <pt x="18" y="690" on="1"/>
        <pt x="27" y="701" on="0"/>
        <pt x="52" y="749" on="0"/>
        <pt x="81" y="797" on="0"/>
        <pt x="108" y="834" on="0"/>
        <pt x="118" y="834" on="1"/>
        <pt x="128" y="834" on="0"/>
        <pt x="138" y="824" on="0"/>
        <pt x="145" y="810" on="0"/>
        <pt x="152" y="794" on="0"/>
        <pt x="160" y="789" on="1"/>
        <pt x="194" y="809" on="0"/>
        <pt x="274" y="838" on="0"/>
        <pt x="355" y="849" on="0"/>
        <pt x="431" y="842" on="0"/>
        <pt x="494" y="812" on="0"/>
        <pt x="538" y="756" on="0"/>
        <pt x="545" y="714" on="1"/>
        <pt x="544" y="659" on="0"/>
        <pt x="482" y="563" on="0"/>
        <pt x="392" y="484" on="0"/>
        <pt x="288" y="423" on="0"/>
        <pt x="200" y="378" on="0"/>
        <pt x="144" y="352" on="0"/>
        <pt x="146" y="349" on="1"/>
        <pt x="133" y="15" on="1"/>
        <pt x="133" y="7" on="0"/>
        <pt x="119" y="0" on="0"/>
        <pt x="101" y="1" on="0"/>
        <pt x="83" y="8" on="0"/>
      </contour>
      <contour>
        <pt x="146" y="419" on="1"/>
        <pt x="197" y="438" on="0"/>
        <pt x="307" y="488" on="0"/>
        <pt x="403" y="553" on="0"/>
        <pt x="476" y="636" on="0"/>
        <pt x="489" y="690" on="1"/>
        <pt x="481" y="747" on="0"/>
        <pt x="408" y="798" on="0"/>
        <pt x="307" y="799" on="0"/>
        <pt x="194" y="756" on="0"/>
        <pt x="146" y="718" on="1"/>
      </contour>
    </TTGlyph>
    <TTGlyph name="Q" xMin="21" yMin="-2" xMax="550" yMax="855">
      <contour>
        <pt x="210" y="855" on="1"/>
        <pt x="215" y="855" on="0"/>
        <pt x="231" y="853" on="0"/>
        <pt x="244" y="846" on="0"/>
        <pt x="250" y="834" on="0"/>
        <pt x="246" y="825" on="1"/>
        <pt x="264" y="834" on="0"/>
        <pt x="292" y="845" on="0"/>
        <pt x="317" y="852" on="0"/>
        <pt x="342" y="854" on="0"/>
        <pt x="359" y="854" on="1"/>
        <pt x="398" y="854" on="0"/>
        <pt x="454" y="807" on="0"/>
        <pt x="493" y="729" on="0"/>
        <pt x="516" y="627" on="0"/>
        <pt x="524" y="515" on="0"/>
        <pt x="521" y="401" on="0"/>
        <pt x="508" y="299" on="0"/>
        <pt x="486" y="216" on="0"/>
        <pt x="473" y="191" on="1"/>
        <pt x="473" y="190" on="0"/>
        <pt x="476" y="184" on="0"/>
        <pt x="489" y="158" on="0"/>
        <pt x="518" y="105" on="0"/>
        <pt x="545" y="57" on="1"/>
        <pt x="550" y="46" on="0"/>
        <pt x="546" y="28" on="0"/>
        <pt x="532" y="15" on="0"/>
        <pt x="512" y="11" on="0"/>
        <pt x="502" y="14" on="1"/>
        <pt x="488" y="38" on="0"/>
        <pt x="454" y="89" on="0"/>
        <pt x="431" y="114" on="1"/>
        <pt x="416" y="95" on="0"/>
        <pt x="380" y="54" on="0"/>
        <pt x="337" y="21" on="0"/>
        <pt x="289" y="-1" on="0"/>
        <pt x="262" y="-1" on="1"/>
        <pt x="218" y="-2" on="0"/>
        <pt x="141" y="52" on="0"/>
        <pt x="80" y="146" on="0"/>
        <pt x="38" y="272" on="0"/>
        <pt x="21" y="412" on="0"/>
        <pt x="31" y="559" on="0"/>
        <pt x="74" y="695" on="0"/>
        <pt x="151" y="813" on="0"/>
      </contour>
      <contour>
        <pt x="297" y="402" on="1"/>
        <pt x="293" y="398" on="0"/>
        <pt x="291" y="419" on="0"/>
        <pt x="299" y="441" on="0"/>
        <pt x="320" y="450" on="0"/>
        <pt x="340" y="434" on="1"/>
        <pt x="340" y="434" on="0"/>
        <pt x="353" y="407" on="0"/>
        <pt x="373" y="368" on="0"/>
        <pt x="397" y="322" on="0"/>
        <pt x="417" y="282" on="0"/>
        <pt x="431" y="256" on="0"/>
        <pt x="431" y="256" on="1"/>
        <pt x="446" y="296" on="0"/>
        <pt x="465" y="408" on="0"/>
        <pt x="470" y="528" on="0"/>
        <pt x="459" y="645" on="0"/>
        <pt x="430" y="739" on="0"/>
        <pt x="382" y="798" on="0"/>
        <pt x="346" y="799" on="1"/>
        <pt x="276" y="806" on="0"/>
        <pt x="176" y="756" on="0"/>
        <pt x="112" y="664" on="0"/>
        <pt x="80" y="540" on="0"/>
        <pt x="77" y="405" on="0"/>
        <pt x="99" y="272" on="0"/>
        <pt x="142" y="161" on="0"/>
        <pt x="203" y="82" on="0"/>
        <pt x="276" y="58" on="0"/>
        <pt x="360" y="98" on="0"/>
        <pt x="405" y="162" on="1"/>
      </contour>
    </TTGlyph>
    <TTGlyph name="R" xMin="28" yMin="-16" xMax="570" yMax="852">
      <contour>
        <pt x="28" y="837" on="1"/>
        <pt x="31" y="844" on="0"/>
        <pt x="50" y="852" on="0"/>
        <pt x="71" y="852" on="0"/>
        <pt x="87" y="841" on="0"/>
        <pt x="89" y="829" on="1"/>
        <pt x="95" y="774" on="1"/>
        <pt x="114" y="778" on="0"/>
        <pt x="166" y="803" on="0"/>
        <pt x="235" y="827" on="0"/>
        <pt x="321" y="843" on="0"/>
        <pt x="374" y="837" on="1"/>
        <pt x="456" y="821" on="0"/>
        <pt x="530" y="777" on="0"/>
        <pt x="535" y="724" on="0"/>
        <pt x="486" y="663" on="0"/>
        <pt x="404" y="601" on="0"/>
        <pt x="302" y="537" on="0"/>
        <pt x="205" y="478" on="0"/>
        <pt x="122" y="425" on="0"/>
        <pt x="101" y="403" on="1"/>
        <pt x="570" y="121" on="1"/>
        <pt x="570" y="105" on="0"/>
        <pt x="544" y="76" on="0"/>
        <pt x="527" y="78" on="1"/>
        <pt x="86" y="332" on="1"/>
        <pt x="86" y="0" on="1"/>
        <pt x="74" y="-10" on="0"/>
        <pt x="57" y="-16" on="0"/>
        <pt x="47" y="-14" on="0"/>
        <pt x="39" y="-5" on="0"/>
        <pt x="36" y="0" on="1"/>
      </contour>
      <contour>
        <pt x="95" y="699" on="1"/>
        <pt x="93" y="679" on="0"/>
        <pt x="91" y="623" on="0"/>
        <pt x="91" y="560" on="0"/>
        <pt x="91" y="499" on="0"/>
        <pt x="91" y="475" on="1"/>
        <pt x="96" y="480" on="0"/>
        <pt x="149" y="507" on="0"/>
        <pt x="225" y="547" on="0"/>
        <pt x="312" y="596" on="0"/>
        <pt x="390" y="648" on="0"/>
        <pt x="449" y="699" on="0"/>
        <pt x="466" y="743" on="0"/>
        <pt x="431" y="778" on="0"/>
        <pt x="377" y="788" on="1"/>
        <pt x="347" y="790" on="0"/>
        <pt x="266" y="782" on="0"/>
        <pt x="185" y="761" on="0"/>
        <pt x="115" y="725" on="0"/>
      </contour>
    </TTGlyph>
    <TTGlyph name="Racute" xMin="28" yMin="-16" xMax="570" yMax="1070">
      <component glyphName="R" x="0" y="0" flags="0x204"/>
      <component glyphName="acute" x="243" y="246" flags="0x4"/>
    </TTGlyph>
    <TTGlyph name="Rcaron" xMin="28" yMin="-16" xMax="570" yMax="1112">
      <component glyphName="R" x="0" y="0" flags="0x204"/>
      <component glyphName="caron" x="58" y="242" flags="0x4"/>
    </TTGlyph>
    <TTGlyph name="Rcommaaccent" xMin="28" yMin="-284" xMax="570" yMax="852">
      <component glyphName="R" x="0" y="0" flags="0x204"/>
      <component glyphName="commaaccent" x="105" y="9" flags="0x4"/>
    </TTGlyph>
    <TTGlyph name="S" xMin="13" yMin="-1" xMax="585" yMax="847">
      <contour>
        <pt x="104" y="30" on="1"/>
        <pt x="105" y="36" on="0"/>
        <pt x="160" y="54" on="0"/>
        <pt x="242" y="79" on="0"/>
        <pt x="342" y="112" on="0"/>
        <pt x="435" y="154" on="0"/>
        <pt x="509" y="205" on="0"/>
        <pt x="526" y="236" on="1"/>
        <pt x="526" y="252" on="0"/>
        <pt x="482" y="270" on="0"/>
        <pt x="410" y="282" on="0"/>
        <pt x="318" y="290" on="0"/>
        <pt x="221" y="304" on="0"/>
        <pt x="129" y="326" on="0"/>
        <pt x="57" y="365" on="0"/>
        <pt x="13" y="424" on="0"/>
        <pt x="13" y="468" on="1"/>
        <pt x="13" y="511" on="0"/>
        <pt x="52" y="600" on="0"/>
        <pt x="116" y="684" on="0"/>
        <pt x="199" y="758" on="0"/>
        <pt x="289" y="814" on="0"/>
        <pt x="377" y="846" on="0"/>
        <pt x="415" y="846" on="1"/>
        <pt x="425" y="846" on="0"/>
        <pt x="447" y="847" on="0"/>
        <pt x="464" y="843" on="0"/>
        <pt x="475" y="830" on="0"/>
        <pt x="475" y="817" on="1"/>
        <pt x="475" y="785" on="0"/>
        <pt x="433" y="757" on="0"/>
        <pt x="403" y="757" on="1"/>
        <pt x="360" y="771" on="1"/>
        <pt x="335" y="771" on="0"/>
        <pt x="272" y="742" on="0"/>
        <pt x="208" y="693" on="0"/>
        <pt x="147" y="630" on="0"/>
        <pt x="100" y="563" on="0"/>
        <pt x="71" y="496" on="0"/>
        <pt x="71" y="469" on="1"/>
        <pt x="71" y="435" on="0"/>
        <pt x="115" y="392" on="0"/>
        <pt x="187" y="366" on="0"/>
        <pt x="280" y="353" on="0"/>
        <pt x="376" y="343" on="0"/>
        <pt x="469" y="331" on="0"/>
        <pt x="541" y="310" on="0"/>
        <pt x="585" y="273" on="0"/>
        <pt x="585" y="242" on="1"/>
        <pt x="585" y="212" on="0"/>
        <pt x="537" y="152" on="0"/>
        <pt x="459" y="97" on="0"/>
        <pt x="358" y="50" on="0"/>
        <pt x="256" y="17" on="0"/>
        <pt x="159" y="-1" on="0"/>
        <pt x="124" y="0" on="1"/>
        <pt x="114" y="0" on="0"/>
        <pt x="100" y="14" on="0"/>
      </contour>
    </TTGlyph>
    <TTGlyph name="Sacute" xMin="13" yMin="-1" xMax="585" yMax="1009">
      <component glyphName="S" x="0" y="0" flags="0x4"/>
      <component glyphName="acute" x="233" y="185" flags="0x4"/>
    </TTGlyph>
    <TTGlyph name="Scaron" xMin="13" yMin="-1" xMax="585" yMax="1103">
      <component glyphName="S" x="0" y="0" flags="0x4"/>
      <component glyphName="caron" x="89" y="233" flags="0x4"/>
    </TTGlyph>
    <TTGlyph name="Scedilla" xMin="13" yMin="-210" xMax="585" yMax="847">
      <component glyphName="S" x="0" y="0" flags="0x4"/>
      <component glyphName="cedilla" x="205" y="61" flags="0x4"/>
    </TTGlyph>
    <TTGlyph name="Scircumflex" xMin="13" yMin="-1" xMax="585" yMax="1091">
      <component glyphName="S" x="0" y="0" flags="0x4"/>
      <component glyphName="circumflex" x="114" y="232" flags="0x4"/>
    </TTGlyph>
    <TTGlyph name="Scommaaccent" xMin="13" yMin="-284" xMax="585" yMax="847">
      <component glyphName="S" x="0" y="0" flags="0x4"/>
      <component glyphName="commaaccent" x="137" y="9" flags="0x4"/>
    </TTGlyph>
    <TTGlyph name="T" xMin="-1" yMin="4" xMax="797" yMax="882">
      <contour>
        <pt x="344" y="769" on="1"/>
        <pt x="305" y="774" on="0"/>
        <pt x="227" y="767" on="0"/>
        <pt x="150" y="757" on="0"/>
        <pt x="72" y="748" on="0"/>
        <pt x="33" y="751" on="1"/>
        <pt x="22" y="752" on="0"/>
        <pt x="-1" y="760" on="0"/>
        <pt x="1" y="777" on="1"/>
        <pt x="2" y="788" on="0"/>
        <pt x="22" y="810" on="0"/>
        <pt x="33" y="809" on="1"/>
        <pt x="334" y="827" on="1"/>
        <pt x="335" y="832" on="0"/>
        <pt x="341" y="851" on="0"/>
        <pt x="351" y="869" on="0"/>
        <pt x="365" y="882" on="0"/>
        <pt x="374" y="881" on="1"/>
        <pt x="387" y="880" on="0"/>
        <pt x="402" y="865" on="0"/>
        <pt x="412" y="848" on="0"/>
        <pt x="420" y="834" on="0"/>
        <pt x="426" y="833" on="1"/>
        <pt x="587" y="833" on="0"/>
        <pt x="757" y="839" on="1"/>
        <pt x="760" y="839" on="0"/>
        <pt x="786" y="838" on="0"/>
        <pt x="791" y="837" on="1"/>
        <pt x="797" y="820" on="0"/>
        <pt x="760" y="801" on="0"/>
        <pt x="691" y="791" on="0"/>
        <pt x="603" y="787" on="0"/>
        <pt x="516" y="785" on="0"/>
        <pt x="439" y="781" on="0"/>
        <pt x="417" y="777" on="1"/>
        <pt x="409" y="725" on="0"/>
        <pt x="407" y="605" on="0"/>
        <pt x="410" y="477" on="0"/>
        <pt x="418" y="345" on="0"/>
        <pt x="425" y="217" on="0"/>
        <pt x="427" y="97" on="0"/>
        <pt x="423" y="45" on="1"/>
        <pt x="429" y="13" on="0"/>
        <pt x="406" y="4" on="0"/>
        <pt x="374" y="9" on="1"/>
        <pt x="366" y="50" on="0"/>
        <pt x="358" y="167" on="0"/>
        <pt x="354" y="304" on="0"/>
        <pt x="354" y="451" on="0"/>
        <pt x="352" y="593" on="0"/>
        <pt x="349" y="720" on="0"/>
      </contour>
    </TTGlyph>
    <TTGlyph name="Tbar" xMin="-1" yMin="4" xMax="797" yMax="882">
      <component glyphName="T" x="0" y="0" flags="0x204"/>
      <component glyphName="macron" x="166" y="-279" flags="0x4"/>
    </TTGlyph>
    <TTGlyph name="Tcaron" xMin="-1" yMin="4" xMax="797" yMax="1145">
      <component glyphName="T" x="0" y="0" flags="0x204"/>
      <component glyphName="caron" x="184" y="275" flags="0x4"/>
    </TTGlyph>
    <TTGlyph name="Tcommaaccent" xMin="-1" yMin="-298" xMax="797" yMax="882">
      <component glyphName="T" x="0" y="0" flags="0x204"/>
      <component glyphName="commaaccent" x="300" y="-5" flags="0x4"/>
    </TTGlyph>
    <TTGlyph name="Thorn" xMin="29" yMin="-296" xMax="446" yMax="632">
      <contour>
        <pt x="38" y="-293" on="1"/>
        <pt x="29" y="629" on="1"/>
        <pt x="42" y="629" on="0"/>
        <pt x="65" y="632" on="0"/>
        <pt x="82" y="630" on="0"/>
        <pt x="92" y="619" on="0"/>
        <pt x="92" y="604" on="1"/>
        <pt x="92" y="405" on="1"/>
        <pt x="131" y="456" on="0"/>
        <pt x="196" y="517" on="0"/>
        <pt x="254" y="548" on="0"/>
        <pt x="309" y="555" on="0"/>
        <pt x="337" y="552" on="1"/>
        <pt x="369" y="552" on="0"/>
        <pt x="411" y="525" on="0"/>
        <pt x="436" y="480" on="0"/>
        <pt x="446" y="422" on="0"/>
        <pt x="446" y="391" on="1"/>
        <pt x="445" y="358" on="0"/>
        <pt x="428" y="272" on="0"/>
        <pt x="361" y="171" on="0"/>
        <pt x="225" y="57" on="0"/>
        <pt x="104" y="-3" on="1"/>
        <pt x="101" y="-296" on="1"/>
      </contour>
      <contour>
        <pt x="95" y="66" on="1"/>
        <pt x="100" y="70" on="0"/>
        <pt x="146" y="92" on="0"/>
        <pt x="210" y="128" on="0"/>
        <pt x="282" y="180" on="0"/>
        <pt x="345" y="249" on="0"/>
        <pt x="389" y="337" on="0"/>
        <pt x="393" y="391" on="1"/>
        <pt x="393" y="406" on="0"/>
        <pt x="384" y="442" on="0"/>
        <pt x="365" y="473" on="0"/>
        <pt x="336" y="494" on="0"/>
        <pt x="316" y="494" on="1"/>
        <pt x="275" y="494" on="0"/>
        <pt x="208" y="453" on="0"/>
        <pt x="154" y="391" on="0"/>
        <pt x="113" y="318" on="0"/>
        <pt x="99" y="286" on="1"/>
      </contour>
    </TTGlyph>
    <TTGlyph name="U" xMin="28" yMin="-11" xMax="563" yMax="849">
      <contour>
        <pt x="475" y="296" on="1"/>
        <pt x="464" y="255" on="0"/>
        <pt x="432" y="153" on="0"/>
        <pt x="382" y="63" on="0"/>
        <pt x="311" y="1" on="0"/>
        <pt x="261" y="1" on="1"/>
        <pt x="209" y="14" on="0"/>
        <pt x="134" y="90" on="0"/>
        <pt x="82" y="198" on="0"/>
        <pt x="50" y="329" on="0"/>
        <pt x="33" y="466" on="0"/>
        <pt x="28" y="599" on="0"/>
        <pt x="29" y="711" on="0"/>
        <pt x="34" y="792" on="0"/>
        <pt x="36" y="809" on="1"/>
        <pt x="33" y="825" on="0"/>
        <pt x="53" y="841" on="0"/>
        <pt x="79" y="843" on="0"/>
        <pt x="102" y="833" on="0"/>
        <pt x="103" y="825" on="1"/>
        <pt x="83" y="678" on="0"/>
        <pt x="82" y="454" on="0"/>
        <pt x="106" y="287" on="0"/>
        <pt x="151" y="173" on="0"/>
        <pt x="202" y="100" on="0"/>
        <pt x="256" y="63" on="0"/>
        <pt x="277" y="57" on="1"/>
        <pt x="311" y="60" on="0"/>
        <pt x="364" y="125" on="0"/>
        <pt x="404" y="228" on="0"/>
        <pt x="433" y="358" on="0"/>
        <pt x="453" y="496" on="0"/>
        <pt x="465" y="631" on="0"/>
        <pt x="471" y="741" on="0"/>
        <pt x="472" y="818" on="0"/>
        <pt x="471" y="829" on="1"/>
        <pt x="478" y="841" on="0"/>
        <pt x="497" y="849" on="0"/>
        <pt x="514" y="847" on="0"/>
        <pt x="528" y="836" on="0"/>
        <pt x="531" y="829" on="1"/>
        <pt x="532" y="803" on="0"/>
        <pt x="521" y="662" on="0"/>
        <pt x="518" y="449" on="0"/>
        <pt x="534" y="172" on="0"/>
        <pt x="563" y="12" on="1"/>
        <pt x="563" y="2" on="0"/>
        <pt x="550" y="-8" on="0"/>
        <pt x="532" y="-11" on="0"/>
        <pt x="512" y="-10" on="0"/>
        <pt x="505" y="-9" on="1"/>
        <pt x="475" y="296" on="1"/>
      </contour>
    </TTGlyph>
    <TTGlyph name="Uacute" xMin="28" yMin="-11" xMax="563" yMax="1022">
      <component glyphName="U" x="0" y="0" flags="0x4"/>
      <component glyphName="acute" x="184" y="198" flags="0x4"/>
    </TTGlyph>
    <TTGlyph name="Ubreve" xMin="28" yMin="-11" xMax="563" yMax="1017">
      <component glyphName="U" x="0" y="0" flags="0x4"/>
      <component glyphName="breve" x="78" y="227" flags="0x4"/>
    </TTGlyph>
    <TTGlyph name="Ucircumflex" xMin="28" yMin="-11" xMax="563" yMax="1109">
      <component glyphName="U" x="0" y="0" flags="0x4"/>
      <component glyphName="circumflex" x="44" y="250" flags="0x4"/>
    </TTGlyph>
    <TTGlyph name="Udieresis" xMin="28" yMin="-11" xMax="563" yMax="974">
      <component glyphName="U" x="0" y="0" flags="0x204"/>
      <component glyphName="dieresis" x="110" y="250" flags="0x4"/>
    </TTGlyph>
    <TTGlyph name="Ugrave" xMin="28" yMin="-11" xMax="563" yMax="1074">
      <component glyphName="U" x="0" y="0" flags="0x4"/>
      <component glyphName="grave" x="171" y="264" flags="0x4"/>
    </TTGlyph>
    <TTGlyph name="Uhungarumlaut" xMin="28" yMin="-11" xMax="563" yMax="1067">
      <component glyphName="U" x="0" y="0" flags="0x4"/>
      <component glyphName="hungarumlaut" x="125" y="255" flags="0x4"/>
    </TTGlyph>
    <TTGlyph name="Umacron" xMin="28" yMin="-11" xMax="563" yMax="969">
      <component glyphName="U" x="0" y="0" flags="0x4"/>
      <component glyphName="macron" x="41" y="256" flags="0x4"/>
    </TTGlyph>
    <TTGlyph name="Uogonek" xMin="28" yMin="-246" xMax="671" yMax="849">
      <component glyphName="U" x="0" y="0" flags="0x4"/>
      <component glyphName="ogonek" x="291" y="37" flags="0x4"/>
    </TTGlyph>
    <TTGlyph name="Uring" xMin="28" yMin="-11" xMax="563" yMax="1063">
      <component glyphName="U" x="0" y="0" flags="0x4"/>
      <component glyphName="ring" x="110" y="250" flags="0x4"/>
    </TTGlyph>
    <TTGlyph name="Utilde" xMin="28" yMin="-11" xMax="563" yMax="1022">
      <component glyphName="U" x="0" y="0" flags="0x4"/>
      <component glyphName="tilde" x="108" y="241" flags="0x4"/>
    </TTGlyph>
    <TTGlyph name="V" xMin="4" yMin="-2" xMax="585" yMax="857">
      <contour>
        <pt x="7" y="823" on="1"/>
        <pt x="4" y="836" on="0"/>
        <pt x="17" y="851" on="0"/>
        <pt x="37" y="852" on="0"/>
        <pt x="59" y="838" on="0"/>
        <pt x="66" y="823" on="1"/>
        <pt x="313" y="89" on="1"/>
        <pt x="527" y="842" on="1"/>
        <pt x="530" y="852" on="0"/>
        <pt x="549" y="857" on="0"/>
        <pt x="569" y="852" on="0"/>
        <pt x="585" y="837" on="0"/>
        <pt x="584" y="828" on="1"/>
        <pt x="352" y="13" on="1"/>
        <pt x="323" y="-2" on="0"/>
        <pt x="289" y="3" on="0"/>
        <pt x="277" y="13" on="1"/>
        <pt x="7" y="823" on="1"/>
      </contour>
    </TTGlyph>
    <TTGlyph name="W" xMin="13" yMin="-3" xMax="916" yMax="856">
      <contour>
        <pt x="13" y="822" on="1"/>
        <pt x="13" y="837" on="0"/>
        <pt x="24" y="850" on="0"/>
        <pt x="41" y="853" on="0"/>
        <pt x="60" y="849" on="0"/>
        <pt x="68" y="846" on="1"/>
        <pt x="243" y="76" on="1"/>
        <pt x="247" y="80" on="0"/>
        <pt x="272" y="148" on="0"/>
        <pt x="305" y="251" on="0"/>
        <pt x="345" y="377" on="0"/>
        <pt x="384" y="504" on="0"/>
        <pt x="418" y="618" on="0"/>
        <pt x="430" y="658" on="1"/>
        <pt x="437" y="673" on="0"/>
        <pt x="458" y="688" on="0"/>
        <pt x="482" y="688" on="0"/>
        <pt x="504" y="676" on="0"/>
        <pt x="511" y="664" on="1"/>
        <pt x="709" y="86" on="1"/>
        <pt x="859" y="836" on="1"/>
        <pt x="864" y="845" on="0"/>
        <pt x="881" y="856" on="0"/>
        <pt x="897" y="856" on="0"/>
        <pt x="912" y="841" on="0"/>
        <pt x="916" y="822" on="1"/>
        <pt x="747" y="22" on="1"/>
        <pt x="745" y="18" on="0"/>
        <pt x="730" y="5" on="0"/>
        <pt x="709" y="1" on="0"/>
        <pt x="685" y="13" on="0"/>
        <pt x="676" y="34" on="1"/>
        <pt x="470" y="602" on="1"/>
        <pt x="284" y="14" on="1"/>
        <pt x="275" y="2" on="0"/>
        <pt x="247" y="-3" on="0"/>
        <pt x="221" y="3" on="0"/>
        <pt x="201" y="14" on="0"/>
        <pt x="200" y="17" on="1"/>
      </contour>
    </TTGlyph>
    <TTGlyph name="Wacute" xMin="13" yMin="-3" xMax="916" yMax="1036">
      <component glyphName="W" x="0" y="0" flags="0x4"/>
      <component glyphName="acute" x="378" y="212" flags="0x4"/>
    </TTGlyph>
    <TTGlyph name="Wcircumflex" xMin="13" yMin="-3" xMax="916" yMax="1097">
      <component glyphName="W" x="0" y="0" flags="0x4"/>
      <component glyphName="circumflex" x="239" y="238" flags="0x4"/>
    </TTGlyph>
    <TTGlyph name="Wdieresis" xMin="13" yMin="-3" xMax="916" yMax="968">
      <component glyphName="W" x="0" y="0" flags="0x204"/>
      <component glyphName="dieresis" x="263" y="244" flags="0x4"/>
    </TTGlyph>
    <TTGlyph name="Wgrave" xMin="13" yMin="-3" xMax="916" yMax="1027">
      <component glyphName="W" x="0" y="0" flags="0x4"/>
      <component glyphName="grave" x="350" y="217" flags="0x4"/>
    </TTGlyph>
    <TTGlyph name="X" xMin="-4" yMin="-8" xMax="507" yMax="854">
      <contour>
        <pt x="65" y="1" on="1"/>
        <pt x="65" y="1" on="0"/>
        <pt x="48" y="-4" on="0"/>
        <pt x="28" y="1" on="0"/>
        <pt x="15" y="24" on="0"/>
        <pt x="20" y="52" on="1"/>
        <pt x="212" y="396" on="1"/>
        <pt x="-1" y="803" on="1"/>
        <pt x="-4" y="826" on="0"/>
        <pt x="22" y="845" on="0"/>
        <pt x="43" y="840" on="1"/>
        <pt x="253" y="463" on="1"/>
        <pt x="259" y="472" on="0"/>
        <pt x="289" y="527" on="0"/>
        <pt x="329" y="602" on="0"/>
        <pt x="373" y="689" on="0"/>
        <pt x="415" y="770" on="0"/>
        <pt x="450" y="836" on="0"/>
        <pt x="460" y="853" on="1"/>
        <pt x="466" y="854" on="0"/>
        <pt x="482" y="850" on="0"/>
        <pt x="496" y="842" on="0"/>
        <pt x="503" y="829" on="0"/>
        <pt x="500" y="820" on="1"/>
        <pt x="285" y="400" on="1"/>
        <pt x="500" y="40" on="1"/>
        <pt x="507" y="25" on="0"/>
        <pt x="497" y="2" on="0"/>
        <pt x="477" y="-8" on="0"/>
        <pt x="454" y="-4" on="0"/>
        <pt x="448" y="8" on="1"/>
        <pt x="253" y="344" on="1"/>
        <pt x="69" y="12" on="1"/>
      </contour>
    </TTGlyph>
    <TTGlyph name="Y" xMin="-4" yMin="-6" xMax="518" yMax="856">
      <contour>
        <pt x="305" y="337" on="1"/>
        <pt x="-4" y="743" on="1"/>
        <pt x="-4" y="756" on="0"/>
        <pt x="24" y="771" on="0"/>
        <pt x="35" y="771" on="1"/>
        <pt x="328" y="413" on="1"/>
        <pt x="332" y="421" on="0"/>
        <pt x="353" y="477" on="0"/>
        <pt x="381" y="555" on="0"/>
        <pt x="413" y="648" on="0"/>
        <pt x="442" y="740" on="0"/>
        <pt x="464" y="821" on="0"/>
        <pt x="469" y="849" on="1"/>
        <pt x="476" y="856" on="0"/>
        <pt x="493" y="852" on="0"/>
        <pt x="508" y="840" on="0"/>
        <pt x="518" y="823" on="0"/>
        <pt x="518" y="817" on="1"/>
        <pt x="483" y="712" on="0"/>
        <pt x="435" y="566" on="0"/>
        <pt x="403" y="465" on="0"/>
        <pt x="384" y="403" on="0"/>
        <pt x="373" y="361" on="0"/>
        <pt x="365" y="332" on="0"/>
        <pt x="356" y="300" on="0"/>
        <pt x="343" y="256" on="0"/>
        <pt x="319" y="184" on="0"/>
        <pt x="281" y="75" on="0"/>
        <pt x="253" y="-6" on="1"/>
        <pt x="238" y="-6" on="0"/>
        <pt x="207" y="-6" on="0"/>
        <pt x="207" y="9" on="1"/>
      </contour>
    </TTGlyph>
    <TTGlyph name="Yacute" xMin="-4" yMin="-6" xMax="518" yMax="1020">
      <component glyphName="Y" x="0" y="0" flags="0x4"/>
      <component glyphName="acute" x="177" y="196" flags="0x4"/>
    </TTGlyph>
    <TTGlyph name="Ycircumflex" xMin="-4" yMin="-6" xMax="518" yMax="1107">
      <component glyphName="Y" x="0" y="0" flags="0x4"/>
      <component glyphName="circumflex" x="35" y="248" flags="0x4"/>
    </TTGlyph>
    <TTGlyph name="Ydieresis" xMin="-4" yMin="-6" xMax="518" yMax="986">
      <component glyphName="Y" x="0" y="0" flags="0x4"/>
      <component glyphName="dieresis" x="95" y="262" flags="0x4"/>
    </TTGlyph>
    <TTGlyph name="Ygrave" xMin="-4" yMin="-6" xMax="518" yMax="1018">
      <component glyphName="Y" x="0" y="0" flags="0x4"/>
      <component glyphName="grave" x="189" y="208" flags="0x4"/>
    </TTGlyph>
    <TTGlyph name="Z" xMin="5" yMin="8" xMax="536" yMax="850">
      <contour>
        <pt x="442" y="794" on="1"/>
        <pt x="29" y="788" on="1"/>
        <pt x="19" y="791" on="0"/>
        <pt x="8" y="803" on="0"/>
        <pt x="5" y="818" on="0"/>
        <pt x="11" y="832" on="0"/>
        <pt x="18" y="835" on="1"/>
        <pt x="18" y="836" on="0"/>
        <pt x="59" y="839" on="0"/>
        <pt x="128" y="842" on="0"/>
        <pt x="215" y="844" on="0"/>
        <pt x="306" y="847" on="0"/>
        <pt x="395" y="848" on="0"/>
        <pt x="465" y="849" on="0"/>
        <pt x="510" y="850" on="0"/>
        <pt x="512" y="850" on="1"/>
        <pt x="516" y="803" on="1"/>
        <pt x="86" y="63" on="1"/>
        <pt x="518" y="63" on="1"/>
        <pt x="527" y="59" on="0"/>
        <pt x="536" y="41" on="0"/>
        <pt x="533" y="22" on="0"/>
        <pt x="520" y="8" on="0"/>
        <pt x="508" y="8" on="1"/>
        <pt x="46" y="9" on="1"/>
        <pt x="35" y="9" on="0"/>
        <pt x="24" y="23" on="0"/>
        <pt x="19" y="43" on="0"/>
        <pt x="18" y="66" on="0"/>
        <pt x="18" y="75" on="1"/>
      </contour>
    </TTGlyph>
    <TTGlyph name="Zacute" xMin="5" yMin="8" xMax="536" yMax="1031">
      <component glyphName="Z" x="0" y="0" flags="0x4"/>
      <component glyphName="acute" x="159" y="207" flags="0x4"/>
    </TTGlyph>
    <TTGlyph name="Zcaron" xMin="5" yMin="8" xMax="536" yMax="1118">
      <component glyphName="Z" x="0" y="0" flags="0x4"/>
      <component glyphName="caron" x="76" y="248" flags="0x4"/>
    </TTGlyph>
    <TTGlyph name="Zdotaccent" xMin="5" yMin="8" xMax="536" yMax="980">
      <component glyphName="Z" x="0" y="0" flags="0x4"/>
      <component glyphName="dotaccent" x="182" y="274" flags="0x4"/>
    </TTGlyph>
    <TTGlyph name="a" xMin="15" yMin="-6" xMax="420" yMax="607">
      <contour>
        <pt x="366" y="10" on="1"/>
        <pt x="352" y="31" on="0"/>
        <pt x="345" y="99" on="0"/>
        <pt x="344" y="174" on="0"/>
        <pt x="345" y="247" on="0"/>
        <pt x="339" y="273" on="1"/>
        <pt x="292" y="170" on="0"/>
        <pt x="209" y="55" on="0"/>
        <pt x="140" y="6" on="0"/>
        <pt x="84" y="11" on="0"/>
        <pt x="45" y="46" on="0"/>
        <pt x="23" y="97" on="0"/>
        <pt x="22" y="120" on="1"/>
        <pt x="15" y="158" on="0"/>
        <pt x="28" y="265" on="0"/>
        <pt x="61" y="379" on="0"/>
        <pt x="112" y="488" on="0"/>
        <pt x="177" y="568" on="0"/>
        <pt x="251" y="607" on="0"/>
        <pt x="291" y="594" on="1"/>
        <pt x="311" y="596" on="0"/>
        <pt x="338" y="589" on="0"/>
        <pt x="356" y="567" on="0"/>
        <pt x="364" y="528" on="0"/>
        <pt x="366" y="498" on="1"/>
        <pt x="364" y="401" on="0"/>
        <pt x="379" y="265" on="0"/>
        <pt x="399" y="161" on="0"/>
        <pt x="418" y="77" on="0"/>
        <pt x="420" y="32" on="1"/>
        <pt x="420" y="16" on="0"/>
        <pt x="404" y="-1" on="0"/>
        <pt x="384" y="-6" on="0"/>
        <pt x="367" y="2" on="0"/>
      </contour>
      <contour>
        <pt x="308" y="515" on="1"/>
        <pt x="284" y="547" on="0"/>
        <pt x="228" y="537" on="0"/>
        <pt x="173" y="478" on="0"/>
        <pt x="123" y="383" on="0"/>
        <pt x="87" y="275" on="0"/>
        <pt x="70" y="168" on="0"/>
        <pt x="75" y="127" on="1"/>
        <pt x="89" y="82" on="0"/>
        <pt x="129" y="64" on="0"/>
        <pt x="175" y="95" on="0"/>
        <pt x="223" y="163" on="0"/>
        <pt x="267" y="242" on="0"/>
        <pt x="302" y="321" on="0"/>
        <pt x="313" y="348" on="1"/>
      </contour>
    </TTGlyph>
    <TTGlyph name="aacute" xMin="15" yMin="-6" xMax="420" yMax="824">
      <component glyphName="a" x="0" y="0" flags="0x4"/>
      <component glyphName="acute" x="143" y="0" flags="0x4"/>
    </TTGlyph>
    <TTGlyph name="abreve" xMin="15" yMin="-6" xMax="420" yMax="790">
      <component glyphName="a" x="0" y="0" flags="0x4"/>
      <component glyphName="breve" x="8" y="0" flags="0x4"/>
    </TTGlyph>
    <TTGlyph name="acircumflex" xMin="15" yMin="-6" xMax="420" yMax="859">
      <component glyphName="a" x="0" y="0" flags="0x4"/>
      <component glyphName="circumflex" x="-19" y="0" flags="0x4"/>
    </TTGlyph>
    <TTGlyph name="acute" xMin="19" yMin="668" xMax="157" yMax="824">
      <contour>
        <pt x="55" y="668" on="1"/>
        <pt x="25" y="674" on="0"/>
        <pt x="19" y="708" on="0"/>
        <pt x="48" y="751" on="0"/>
        <pt x="99" y="801" on="0"/>
        <pt x="125" y="824" on="1"/>
        <pt x="143" y="824" on="0"/>
        <pt x="157" y="804" on="0"/>
        <pt x="157" y="791" on="1"/>
        <pt x="157" y="783" on="1"/>
        <pt x="155" y="770" on="0"/>
        <pt x="132" y="739" on="0"/>
        <pt x="101" y="708" on="0"/>
        <pt x="67" y="679" on="0"/>
      </contour>
    </TTGlyph>
    <TTGlyph name="adieresis" xMin="15" yMin="-6" xMax="420" yMax="747">
      <component glyphName="a" x="0" y="0" flags="0x4"/>
      <component glyphName="dieresis" x="72" y="23" flags="0x4"/>
    </TTGlyph>
    <TTGlyph name="ae" xMin="21" yMin="-18" xMax="723" yMax="613">
      <contour>
        <pt x="28" y="97" on="1"/>
        <pt x="21" y="134" on="0"/>
        <pt x="44" y="238" on="0"/>
        <pt x="93" y="348" on="0"/>
        <pt x="162" y="454" on="0"/>
        <pt x="241" y="532" on="0"/>
        <pt x="325" y="572" on="0"/>
        <pt x="365" y="562" on="1"/>
        <pt x="384" y="586" on="0"/>
        <pt x="440" y="613" on="0"/>
        <pt x="481" y="609" on="1"/>
        <pt x="501" y="609" on="0"/>
        <pt x="551" y="590" on="0"/>
        <pt x="597" y="559" on="0"/>
        <pt x="631" y="516" on="0"/>
        <pt x="635" y="491" on="1"/>
        <pt x="642" y="482" on="0"/>
        <pt x="612" y="450" on="0"/>
        <pt x="558" y="414" on="0"/>
        <pt x="490" y="376" on="0"/>
        <pt x="427" y="342" on="0"/>
        <pt x="379" y="316" on="0"/>
        <pt x="372" y="311" on="1"/>
        <pt x="374" y="279" on="0"/>
        <pt x="382" y="197" on="0"/>
        <pt x="406" y="124" on="0"/>
        <pt x="450" y="70" on="0"/>
        <pt x="487" y="67" on="1"/>
        <pt x="531" y="64" on="0"/>
        <pt x="594" y="96" on="0"/>
        <pt x="636" y="148" on="0"/>
        <pt x="661" y="210" on="0"/>
        <pt x="674" y="266" on="0"/>
        <pt x="679" y="305" on="0"/>
        <pt x="681" y="307" on="1"/>
        <pt x="692" y="313" on="0"/>
        <pt x="720" y="302" on="0"/>
        <pt x="722" y="278" on="1"/>
        <pt x="723" y="239" on="0"/>
        <pt x="687" y="139" on="0"/>
        <pt x="624" y="55" on="0"/>
        <pt x="537" y="4" on="0"/>
        <pt x="488" y="12" on="1"/>
        <pt x="443" y="13" on="0"/>
        <pt x="387" y="51" on="0"/>
        <pt x="352" y="111" on="0"/>
        <pt x="335" y="183" on="0"/>
        <pt x="329" y="217" on="1"/>
        <pt x="284" y="125" on="0"/>
        <pt x="205" y="23" on="0"/>
        <pt x="139" y="-18" on="0"/>
        <pt x="87" y="-10" on="0"/>
        <pt x="50" y="25" on="0"/>
        <pt x="29" y="75" on="0"/>
      </contour>
      <contour>
        <pt x="81" y="104" on="1"/>
        <pt x="94" y="60" on="0"/>
        <pt x="133" y="41" on="0"/>
        <pt x="177" y="68" on="0"/>
        <pt x="224" y="131" on="0"/>
        <pt x="267" y="207" on="0"/>
        <pt x="303" y="285" on="0"/>
        <pt x="315" y="314" on="1"/>
        <pt x="313" y="365" on="0"/>
        <pt x="320" y="448" on="0"/>
        <pt x="329" y="484" on="1"/>
        <pt x="306" y="496" on="0"/>
        <pt x="248" y="468" on="0"/>
        <pt x="191" y="407" on="0"/>
        <pt x="137" y="322" on="0"/>
        <pt x="98" y="229" on="0"/>
        <pt x="77" y="139" on="0"/>
      </contour>
      <contour>
        <pt x="582" y="491" on="1"/>
        <pt x="550" y="535" on="0"/>
        <pt x="484" y="559" on="0"/>
        <pt x="449" y="554" on="1"/>
        <pt x="428" y="551" on="0"/>
        <pt x="396" y="518" on="0"/>
        <pt x="376" y="467" on="0"/>
        <pt x="368" y="404" on="0"/>
        <pt x="371" y="371" on="1"/>
      </contour>
    </TTGlyph>
    <TTGlyph name="aeacute" xMin="21" yMin="-18" xMax="723" yMax="824">
      <contour>
        <pt x="28" y="97" on="1"/>
        <pt x="29" y="75" on="0"/>
        <pt x="50" y="25" on="0"/>
        <pt x="87" y="-10" on="0"/>
        <pt x="139" y="-18" on="0"/>
        <pt x="205" y="23" on="0"/>
        <pt x="284" y="125" on="0"/>
        <pt x="329" y="217" on="1"/>
        <pt x="335" y="183" on="0"/>
        <pt x="352" y="111" on="0"/>
        <pt x="387" y="51" on="0"/>
        <pt x="443" y="13" on="0"/>
        <pt x="488" y="12" on="1"/>
        <pt x="537" y="4" on="0"/>
        <pt x="624" y="55" on="0"/>
        <pt x="687" y="139" on="0"/>
        <pt x="723" y="239" on="0"/>
        <pt x="722" y="278" on="1"/>
        <pt x="720" y="302" on="0"/>
        <pt x="692" y="313" on="0"/>
        <pt x="681" y="307" on="1"/>
        <pt x="679" y="305" on="0"/>
        <pt x="674" y="266" on="0"/>
        <pt x="661" y="210" on="0"/>
        <pt x="636" y="148" on="0"/>
        <pt x="594" y="96" on="0"/>
        <pt x="531" y="64" on="0"/>
        <pt x="487" y="67" on="1"/>
        <pt x="450" y="70" on="0"/>
        <pt x="406" y="124" on="0"/>
        <pt x="382" y="197" on="0"/>
        <pt x="374" y="279" on="0"/>
        <pt x="372" y="311" on="1"/>
        <pt x="379" y="316" on="0"/>
        <pt x="427" y="342" on="0"/>
        <pt x="490" y="376" on="0"/>
        <pt x="558" y="414" on="0"/>
        <pt x="612" y="450" on="0"/>
        <pt x="642" y="482" on="0"/>
        <pt x="635" y="491" on="1"/>
        <pt x="631" y="516" on="0"/>
        <pt x="597" y="559" on="0"/>
        <pt x="551" y="590" on="0"/>
        <pt x="501" y="609" on="0"/>
        <pt x="481" y="609" on="1"/>
        <pt x="440" y="613" on="0"/>
        <pt x="384" y="586" on="0"/>
        <pt x="365" y="562" on="1"/>
        <pt x="325" y="572" on="0"/>
        <pt x="241" y="532" on="0"/>
        <pt x="162" y="454" on="0"/>
        <pt x="93" y="348" on="0"/>
        <pt x="44" y="238" on="0"/>
        <pt x="21" y="134" on="0"/>
      </contour>
      <contour>
        <pt x="81" y="104" on="1"/>
        <pt x="77" y="139" on="0"/>
        <pt x="98" y="229" on="0"/>
        <pt x="137" y="322" on="0"/>
        <pt x="191" y="407" on="0"/>
        <pt x="248" y="468" on="0"/>
        <pt x="306" y="496" on="0"/>
        <pt x="329" y="484" on="1"/>
        <pt x="320" y="448" on="0"/>
        <pt x="313" y="365" on="0"/>
        <pt x="315" y="314" on="1"/>
        <pt x="303" y="285" on="0"/>
        <pt x="267" y="207" on="0"/>
        <pt x="224" y="131" on="0"/>
        <pt x="177" y="68" on="0"/>
        <pt x="133" y="41" on="0"/>
        <pt x="94" y="60" on="0"/>
      </contour>
      <contour>
        <pt x="371" y="371" on="1"/>
        <pt x="368" y="404" on="0"/>
        <pt x="376" y="467" on="0"/>
        <pt x="396" y="518" on="0"/>
        <pt x="428" y="551" on="0"/>
        <pt x="449" y="554" on="1"/>
        <pt x="484" y="559" on="0"/>
        <pt x="550" y="535" on="0"/>
        <pt x="582" y="491" on="1"/>
      </contour>
      <contour>
        <pt x="390" y="668" on="1"/>
        <pt x="360" y="674" on="0"/>
        <pt x="354" y="708" on="0"/>
        <pt x="383" y="751" on="0"/>
        <pt x="434" y="801" on="0"/>
        <pt x="460" y="824" on="1"/>
        <pt x="478" y="824" on="0"/>
        <pt x="492" y="804" on="0"/>
        <pt x="492" y="791" on="1"/>
        <pt x="492" y="783" on="1"/>
        <pt x="490" y="770" on="0"/>
        <pt x="467" y="739" on="0"/>
        <pt x="436" y="708" on="0"/>
        <pt x="402" y="679" on="0"/>
      </contour>
    </TTGlyph>
    <TTGlyph name="agrave" xMin="15" yMin="-6" xMax="420" yMax="810">
      <component glyphName="a" x="0" y="0" flags="0x4"/>
      <component glyphName="grave" x="109" y="0" flags="0x4"/>
    </TTGlyph>
    <TTGlyph name="amacron" xMin="15" yMin="-6" xMax="422" yMax="713">
      <component glyphName="a" x="0" y="0" flags="0x4"/>
      <component glyphName="macron" x="-11" y="0" flags="0x4"/>
    </TTGlyph>
    <TTGlyph name="ampersand" xMin="52" yMin="131" xMax="467" yMax="588">
      <contour>
        <pt x="283" y="308" on="1"/>
        <pt x="246" y="269" on="0"/>
        <pt x="173" y="234" on="0"/>
        <pt x="113" y="229" on="0"/>
        <pt x="70" y="249" on="0"/>
        <pt x="64" y="265" on="1"/>
        <pt x="52" y="294" on="0"/>
        <pt x="64" y="349" on="0"/>
        <pt x="99" y="396" on="0"/>
        <pt x="151" y="429" on="0"/>
        <pt x="208" y="443" on="0"/>
        <pt x="264" y="432" on="0"/>
        <pt x="286" y="411" on="1"/>
        <pt x="292" y="557" on="1"/>
        <pt x="292" y="570" on="0"/>
        <pt x="307" y="585" on="0"/>
        <pt x="327" y="588" on="0"/>
        <pt x="347" y="579" on="0"/>
        <pt x="352" y="569" on="1"/>
        <pt x="339" y="414" on="1"/>
        <pt x="439" y="478" on="1"/>
        <pt x="447" y="473" on="0"/>
        <pt x="461" y="460" on="0"/>
        <pt x="467" y="443" on="0"/>
        <pt x="462" y="421" on="0"/>
        <pt x="452" y="408" on="1"/>
        <pt x="344" y="345" on="1"/>
        <pt x="345" y="175" on="1"/>
        <pt x="345" y="155" on="0"/>
        <pt x="326" y="134" on="0"/>
        <pt x="303" y="131" on="0"/>
        <pt x="283" y="145" on="0"/>
        <pt x="283" y="161" on="1"/>
      </contour>
      <contour>
        <pt x="257" y="360" on="1"/>
        <pt x="240" y="380" on="0"/>
        <pt x="197" y="386" on="0"/>
        <pt x="154" y="371" on="0"/>
        <pt x="120" y="342" on="0"/>
        <pt x="103" y="311" on="0"/>
        <pt x="112" y="286" on="0"/>
        <pt x="134" y="282" on="1"/>
        <pt x="156" y="283" on="0"/>
        <pt x="203" y="305" on="0"/>
        <pt x="240" y="332" on="0"/>
        <pt x="260" y="357" on="0"/>
      </contour>
    </TTGlyph>
    <TTGlyph name="aogonek" xMin="15" yMin="-238" xMax="530" yMax="607">
      <component glyphName="a" x="0" y="0" flags="0x4"/>
      <component glyphName="ogonek" x="150" y="45" flags="0x4"/>
    </TTGlyph>
    <TTGlyph name="aring" xMin="15" yMin="-6" xMax="420" yMax="817">
      <component glyphName="a" x="0" y="0" flags="0x4"/>
      <component glyphName="ring" x="78" y="4" flags="0x4"/>
    </TTGlyph>
    <TTGlyph name="asciicircum" xMin="68" yMin="482" xMax="349" yMax="715">
      <contour>
        <pt x="127" y="489" on="1"/>
        <pt x="120" y="483" on="0"/>
        <pt x="100" y="482" on="0"/>
        <pt x="81" y="489" on="0"/>
        <pt x="68" y="504" on="0"/>
        <pt x="70" y="514" on="1"/>
        <pt x="168" y="697" on="1"/>
        <pt x="169" y="700" on="0"/>
        <pt x="183" y="710" on="0"/>
        <pt x="199" y="715" on="0"/>
        <pt x="214" y="712" on="0"/>
        <pt x="218" y="703" on="1"/>
        <pt x="340" y="530" on="1"/>
        <pt x="349" y="519" on="0"/>
        <pt x="340" y="501" on="0"/>
        <pt x="320" y="490" on="0"/>
        <pt x="296" y="487" on="0"/>
        <pt x="290" y="492" on="1"/>
        <pt x="201" y="627" on="1"/>
      </contour>
    </TTGlyph>
    <TTGlyph name="asciitilde" xMin="35" yMin="402" xMax="391" yMax="554">
      <contour>
        <pt x="342" y="541" on="1"/>
        <pt x="358" y="546" on="0"/>
        <pt x="385" y="547" on="0"/>
        <pt x="391" y="527" on="1"/>
        <pt x="386" y="497" on="0"/>
        <pt x="350" y="435" on="0"/>
        <pt x="299" y="402" on="0"/>
        <pt x="235" y="412" on="0"/>
        <pt x="201" y="454" on="1"/>
        <pt x="184" y="479" on="0"/>
        <pt x="140" y="501" on="0"/>
        <pt x="100" y="494" on="0"/>
        <pt x="74" y="454" on="0"/>
        <pt x="75" y="418" on="1"/>
        <pt x="64" y="414" on="0"/>
        <pt x="50" y="417" on="0"/>
        <pt x="42" y="426" on="0"/>
        <pt x="38" y="441" on="0"/>
        <pt x="35" y="449" on="1"/>
        <pt x="35" y="482" on="0"/>
        <pt x="58" y="526" on="0"/>
        <pt x="94" y="549" on="0"/>
        <pt x="139" y="554" on="0"/>
        <pt x="182" y="543" on="0"/>
        <pt x="218" y="517" on="0"/>
        <pt x="227" y="498" on="1"/>
        <pt x="247" y="467" on="0"/>
        <pt x="282" y="451" on="0"/>
        <pt x="309" y="461" on="0"/>
        <pt x="329" y="490" on="0"/>
        <pt x="342" y="519" on="0"/>
        <pt x="345" y="542" on="0"/>
      </contour>
    </TTGlyph>
    <TTGlyph name="asterisk" xMin="41" yMin="105" xMax="551" yMax="662">
      <contour>
        <pt x="75" y="310" on="1"/>
        <pt x="58" y="317" on="0"/>
        <pt x="41" y="342" on="0"/>
        <pt x="52" y="353" on="1"/>
        <pt x="219" y="396" on="1"/>
        <pt x="73" y="466" on="1"/>
        <pt x="63" y="471" on="0"/>
        <pt x="56" y="489" on="0"/>
        <pt x="61" y="505" on="0"/>
        <pt x="74" y="514" on="0"/>
        <pt x="83" y="510" on="1"/>
        <pt x="233" y="445" on="1"/>
        <pt x="226" y="635" on="1"/>
        <pt x="226" y="645" on="0"/>
        <pt x="241" y="660" on="0"/>
        <pt x="259" y="662" on="0"/>
        <pt x="275" y="648" on="0"/>
        <pt x="276" y="629" on="1"/>
        <pt x="285" y="451" on="1"/>
        <pt x="399" y="617" on="1"/>
        <pt x="416" y="625" on="0"/>
        <pt x="436" y="626" on="0"/>
        <pt x="445" y="616" on="0"/>
        <pt x="443" y="599" on="0"/>
        <pt x="439" y="589" on="1"/>
        <pt x="323" y="435" on="1"/>
        <pt x="524" y="483" on="1"/>
        <pt x="532" y="482" on="0"/>
        <pt x="546" y="469" on="0"/>
        <pt x="551" y="453" on="0"/>
        <pt x="544" y="437" on="0"/>
        <pt x="532" y="432" on="1"/>
        <pt x="521" y="430" on="0"/>
        <pt x="469" y="418" on="0"/>
        <pt x="410" y="404" on="0"/>
        <pt x="357" y="392" on="0"/>
        <pt x="347" y="389" on="1"/>
        <pt x="344" y="388" on="0"/>
        <pt x="336" y="387" on="0"/>
        <pt x="331" y="385" on="1"/>
        <pt x="496" y="286" on="1"/>
        <pt x="507" y="279" on="0"/>
        <pt x="514" y="262" on="0"/>
        <pt x="510" y="247" on="0"/>
        <pt x="496" y="236" on="0"/>
        <pt x="486" y="235" on="1"/>
        <pt x="305" y="333" on="1"/>
        <pt x="334" y="140" on="1"/>
        <pt x="336" y="127" on="0"/>
        <pt x="322" y="111" on="0"/>
        <pt x="303" y="105" on="0"/>
        <pt x="285" y="110" on="0"/>
        <pt x="284" y="119" on="1"/>
        <pt x="256" y="299" on="1"/>
        <pt x="120" y="137" on="1"/>
        <pt x="102" y="135" on="0"/>
        <pt x="90" y="158" on="0"/>
        <pt x="92" y="177" on="1"/>
        <pt x="222" y="340" on="1"/>
      </contour>
    </TTGlyph>
    <TTGlyph name="at" xMin="29" yMin="0" xMax="1058" yMax="1024">
      <contour>
        <pt x="29" y="327" on="1"/>
        <pt x="29" y="399" on="0"/>
        <pt x="78" y="559" on="0"/>
        <pt x="166" y="714" on="0"/>
        <pt x="284" y="854" on="0"/>
        <pt x="424" y="961" on="0"/>
        <pt x="577" y="1024" on="0"/>
        <pt x="655" y="1024" on="1"/>
        <pt x="720" y="1024" on="0"/>
        <pt x="830" y="963" on="0"/>
        <pt x="909" y="866" on="0"/>
        <pt x="953" y="744" on="0"/>
        <pt x="953" y="684" on="1"/>
        <pt x="953" y="630" on="0"/>
        <pt x="935" y="522" on="0"/>
        <pt x="886" y="435" on="0"/>
        <pt x="802" y="381" on="0"/>
        <pt x="736" y="381" on="1"/>
        <pt x="681" y="381" on="0"/>
        <pt x="620" y="405" on="0"/>
        <pt x="590" y="442" on="0"/>
        <pt x="582" y="487" on="0"/>
        <pt x="575" y="529" on="0"/>
        <pt x="561" y="562" on="0"/>
        <pt x="541" y="569" on="1"/>
        <pt x="522" y="537" on="0"/>
        <pt x="466" y="453" on="0"/>
        <pt x="398" y="378" on="0"/>
        <pt x="319" y="326" on="0"/>
        <pt x="276" y="326" on="1"/>
        <pt x="250" y="326" on="0"/>
        <pt x="226" y="357" on="0"/>
        <pt x="226" y="383" on="1"/>
        <pt x="226" y="414" on="0"/>
        <pt x="258" y="497" on="0"/>
        <pt x="311" y="585" on="0"/>
        <pt x="381" y="672" on="0"/>
        <pt x="457" y="740" on="0"/>
        <pt x="535" y="782" on="0"/>
        <pt x="569" y="782" on="1"/>
        <pt x="614" y="782" on="0"/>
        <pt x="642" y="747" on="0"/>
        <pt x="642" y="709" on="1"/>
        <pt x="642" y="703" on="0"/>
        <pt x="642" y="687" on="0"/>
        <pt x="637" y="673" on="0"/>
        <pt x="624" y="665" on="0"/>
        <pt x="611" y="669" on="1"/>
        <pt x="611" y="665" on="0"/>
        <pt x="611" y="644" on="0"/>
        <pt x="610" y="622" on="0"/>
        <pt x="610" y="601" on="0"/>
        <pt x="610" y="597" on="1"/>
        <pt x="610" y="564" on="0"/>
        <pt x="620" y="502" on="0"/>
        <pt x="648" y="454" on="0"/>
        <pt x="696" y="425" on="0"/>
        <pt x="735" y="425" on="1"/>
        <pt x="790" y="425" on="0"/>
        <pt x="855" y="469" on="0"/>
        <pt x="889" y="540" on="0"/>
        <pt x="898" y="627" on="0"/>
        <pt x="898" y="669" on="1"/>
        <pt x="898" y="718" on="0"/>
        <pt x="871" y="824" on="0"/>
        <pt x="814" y="911" on="0"/>
        <pt x="728" y="968" on="0"/>
        <pt x="669" y="968" on="1"/>
        <pt x="596" y="968" on="0"/>
        <pt x="455" y="916" on="0"/>
        <pt x="328" y="825" on="0"/>
        <pt x="220" y="705" on="0"/>
        <pt x="142" y="568" on="0"/>
        <pt x="98" y="423" on="0"/>
        <pt x="98" y="353" on="1"/>
        <pt x="98" y="269" on="0"/>
        <pt x="143" y="155" on="0"/>
        <pt x="230" y="86" on="0"/>
        <pt x="357" y="56" on="0"/>
        <pt x="438" y="56" on="1"/>
        <pt x="572" y="56" on="0"/>
        <pt x="811" y="143" on="0"/>
        <pt x="925" y="213" on="1"/>
        <pt x="939" y="222" on="0"/>
        <pt x="955" y="247" on="0"/>
        <pt x="969" y="271" on="0"/>
        <pt x="989" y="287" on="0"/>
        <pt x="1008" y="287" on="1"/>
        <pt x="1044" y="287" on="0"/>
        <pt x="1058" y="261" on="0"/>
        <pt x="1038" y="227" on="1"/>
        <pt x="969" y="178" on="0"/>
        <pt x="821" y="95" on="0"/>
        <pt x="664" y="34" on="0"/>
        <pt x="498" y="0" on="0"/>
        <pt x="413" y="0" on="1"/>
        <pt x="334" y="0" on="0"/>
        <pt x="195" y="36" on="0"/>
        <pt x="90" y="114" on="0"/>
        <pt x="29" y="238" on="0"/>
      </contour>
      <contour>
        <pt x="569" y="725" on="1"/>
        <pt x="538" y="725" on="0"/>
        <pt x="472" y="690" on="0"/>
        <pt x="408" y="632" on="0"/>
        <pt x="352" y="558" on="0"/>
        <pt x="309" y="481" on="0"/>
        <pt x="284" y="407" on="0"/>
        <pt x="284" y="378" on="1"/>
        <pt x="304" y="378" on="0"/>
        <pt x="346" y="401" on="0"/>
        <pt x="385" y="434" on="0"/>
        <pt x="417" y="470" on="0"/>
        <pt x="427" y="483" on="1"/>
        <pt x="435" y="494" on="0"/>
        <pt x="473" y="550" on="0"/>
        <pt x="513" y="614" on="0"/>
        <pt x="549" y="671" on="0"/>
        <pt x="555" y="683" on="1"/>
        <pt x="606" y="683" on="1"/>
        <pt x="606" y="700" on="0"/>
        <pt x="588" y="725" on="0"/>
      </contour>
    </TTGlyph>
    <TTGlyph name="atilde" xMin="15" yMin="-6" xMax="420" yMax="831">
      <component glyphName="a" x="0" y="0" flags="0x4"/>
      <component glyphName="tilde" x="25" y="50" flags="0x4"/>
    </TTGlyph>
    <TTGlyph name="b" xMin="27" yMin="-3" xMax="446" yMax="842">
      <contour>
        <pt x="45" y="2" on="1"/>
        <pt x="39" y="90" on="0"/>
        <pt x="34" y="254" on="0"/>
        <pt x="32" y="444" on="0"/>
        <pt x="30" y="680" on="0"/>
        <pt x="27" y="839" on="1"/>
        <pt x="40" y="839" on="0"/>
        <pt x="63" y="842" on="0"/>
        <pt x="80" y="840" on="0"/>
        <pt x="90" y="829" on="0"/>
        <pt x="90" y="814" on="1"/>
        <pt x="90" y="773" on="0"/>
        <pt x="91" y="696" on="0"/>
        <pt x="91" y="604" on="0"/>
        <pt x="92" y="486" on="0"/>
        <pt x="92" y="405" on="1"/>
        <pt x="131" y="456" on="0"/>
        <pt x="196" y="517" on="0"/>
        <pt x="254" y="548" on="0"/>
        <pt x="309" y="555" on="0"/>
        <pt x="337" y="552" on="1"/>
        <pt x="369" y="552" on="0"/>
        <pt x="411" y="525" on="0"/>
        <pt x="436" y="480" on="0"/>
        <pt x="446" y="422" on="0"/>
        <pt x="446" y="391" on="1"/>
        <pt x="445" y="369" on="0"/>
        <pt x="441" y="318" on="0"/>
        <pt x="422" y="259" on="0"/>
        <pt x="382" y="195" on="0"/>
        <pt x="309" y="124" on="0"/>
        <pt x="198" y="48" on="0"/>
        <pt x="118" y="8" on="1"/>
        <pt x="92" y="1" on="0"/>
        <pt x="63" y="-3" on="0"/>
        <pt x="48" y="-2" on="0"/>
        <pt x="45" y="1" on="0"/>
      </contour>
      <contour>
        <pt x="95" y="66" on="1"/>
        <pt x="100" y="70" on="0"/>
        <pt x="146" y="92" on="0"/>
        <pt x="210" y="128" on="0"/>
        <pt x="282" y="180" on="0"/>
        <pt x="345" y="249" on="0"/>
        <pt x="389" y="337" on="0"/>
        <pt x="393" y="391" on="1"/>
        <pt x="393" y="406" on="0"/>
        <pt x="384" y="442" on="0"/>
        <pt x="365" y="473" on="0"/>
        <pt x="336" y="494" on="0"/>
        <pt x="316" y="494" on="1"/>
        <pt x="275" y="494" on="0"/>
        <pt x="208" y="453" on="0"/>
        <pt x="154" y="391" on="0"/>
        <pt x="113" y="318" on="0"/>
        <pt x="99" y="286" on="1"/>
      </contour>
    </TTGlyph>
    <TTGlyph name="backslash" xMin="6" yMin="-10" xMax="447" yMax="855">
      <contour>
        <pt x="11" y="817" on="1"/>
        <pt x="6" y="825" on="0"/>
        <pt x="17" y="845" on="0"/>
        <pt x="35" y="855" on="0"/>
        <pt x="56" y="850" on="0"/>
        <pt x="63" y="834" on="1"/>
        <pt x="440" y="40" on="1"/>
        <pt x="447" y="25" on="0"/>
        <pt x="442" y="2" on="0"/>
        <pt x="427" y="-10" on="0"/>
        <pt x="406" y="-7" on="0"/>
        <pt x="397" y="5" on="1"/>
        <pt x="11" y="817" on="1"/>
      </contour>
    </TTGlyph>
    <TTGlyph name="bar" xMin="52" yMin="-26" xMax="112" yMax="899">
      <contour>
        <pt x="52" y="883" on="1"/>
        <pt x="58" y="887" on="0"/>
        <pt x="74" y="896" on="0"/>
        <pt x="91" y="899" on="0"/>
        <pt x="105" y="893" on="0"/>
        <pt x="109" y="883" on="1"/>
        <pt x="112" y="-9" on="1"/>
        <pt x="83" y="-26" on="0"/>
        <pt x="55" y="-18" on="0"/>
        <pt x="55" y="-4" on="1"/>
      </contour>
    </TTGlyph>
    <TTGlyph name="braceleft" xMin="24" yMin="-103" xMax="405" yMax="965">
      <contour>
        <pt x="344" y="-48" on="1"/>
        <pt x="358" y="-47" on="0"/>
        <pt x="364" y="-61" on="0"/>
        <pt x="357" y="-79" on="0"/>
        <pt x="341" y="-94" on="0"/>
        <pt x="332" y="-95" on="1"/>
        <pt x="282" y="-103" on="0"/>
        <pt x="180" y="-73" on="0"/>
        <pt x="94" y="-12" on="0"/>
        <pt x="35" y="73" on="0"/>
        <pt x="24" y="171" on="0"/>
        <pt x="70" y="275" on="0"/>
        <pt x="132" y="323" on="1"/>
        <pt x="147" y="335" on="0"/>
        <pt x="150" y="375" on="0"/>
        <pt x="132" y="415" on="0"/>
        <pt x="100" y="444" on="0"/>
        <pt x="81" y="444" on="1"/>
        <pt x="51" y="459" on="0"/>
        <pt x="44" y="491" on="0"/>
        <pt x="68" y="517" on="0"/>
        <pt x="112" y="531" on="0"/>
        <pt x="133" y="528" on="1"/>
        <pt x="152" y="539" on="0"/>
        <pt x="175" y="557" on="0"/>
        <pt x="180" y="578" on="0"/>
        <pt x="165" y="609" on="0"/>
        <pt x="146" y="634" on="1"/>
        <pt x="110" y="679" on="0"/>
        <pt x="95" y="775" on="0"/>
        <pt x="123" y="860" on="0"/>
        <pt x="186" y="928" on="0"/>
        <pt x="267" y="965" on="0"/>
        <pt x="361" y="964" on="0"/>
        <pt x="405" y="938" on="1"/>
        <pt x="405" y="922" on="0"/>
        <pt x="385" y="892" on="0"/>
        <pt x="371" y="889" on="1"/>
        <pt x="346" y="916" on="0"/>
        <pt x="279" y="924" on="0"/>
        <pt x="215" y="897" on="0"/>
        <pt x="162" y="842" on="0"/>
        <pt x="140" y="772" on="0"/>
        <pt x="158" y="693" on="0"/>
        <pt x="198" y="655" on="1"/>
        <pt x="243" y="612" on="0"/>
        <pt x="252" y="553" on="0"/>
        <pt x="223" y="536" on="1"/>
        <pt x="223" y="536" on="0"/>
        <pt x="197" y="519" on="0"/>
        <pt x="164" y="499" on="0"/>
        <pt x="137" y="482" on="0"/>
        <pt x="137" y="482" on="1"/>
        <pt x="188" y="448" on="0"/>
        <pt x="221" y="393" on="0"/>
        <pt x="211" y="344" on="0"/>
        <pt x="170" y="296" on="0"/>
        <pt x="124" y="245" on="0"/>
        <pt x="84" y="187" on="0"/>
        <pt x="80" y="152" on="1"/>
        <pt x="81" y="108" on="0"/>
        <pt x="112" y="43" on="0"/>
        <pt x="160" y="-2" on="0"/>
        <pt x="219" y="-30" on="0"/>
        <pt x="277" y="-45" on="0"/>
        <pt x="328" y="-49" on="0"/>
      </contour>
    </TTGlyph>
    <TTGlyph name="braceright" xMin="14" yMin="-110" xMax="395" yMax="958">
      <contour>
        <pt x="75" y="-55" on="1"/>
        <pt x="91" y="-56" on="0"/>
        <pt x="142" y="-52" on="0"/>
        <pt x="200" y="-37" on="0"/>
        <pt x="259" y="-9" on="0"/>
        <pt x="307" y="36" on="0"/>
        <pt x="338" y="101" on="0"/>
        <pt x="339" y="145" on="1"/>
        <pt x="335" y="180" on="0"/>
        <pt x="295" y="238" on="0"/>
        <pt x="249" y="289" on="0"/>
        <pt x="208" y="337" on="0"/>
        <pt x="198" y="386" on="0"/>
        <pt x="231" y="441" on="0"/>
        <pt x="282" y="475" on="1"/>
        <pt x="282" y="475" on="0"/>
        <pt x="255" y="492" on="0"/>
        <pt x="222" y="512" on="0"/>
        <pt x="196" y="529" on="0"/>
        <pt x="196" y="529" on="1"/>
        <pt x="167" y="546" on="0"/>
        <pt x="176" y="605" on="0"/>
        <pt x="221" y="648" on="1"/>
        <pt x="260" y="686" on="0"/>
        <pt x="279" y="765" on="0"/>
        <pt x="257" y="835" on="0"/>
        <pt x="204" y="890" on="0"/>
        <pt x="140" y="917" on="0"/>
        <pt x="73" y="909" on="0"/>
        <pt x="48" y="882" on="1"/>
        <pt x="34" y="885" on="0"/>
        <pt x="14" y="915" on="0"/>
        <pt x="14" y="931" on="1"/>
        <pt x="58" y="957" on="0"/>
        <pt x="152" y="958" on="0"/>
        <pt x="233" y="921" on="0"/>
        <pt x="296" y="853" on="0"/>
        <pt x="324" y="768" on="0"/>
        <pt x="309" y="672" on="0"/>
        <pt x="273" y="627" on="1"/>
        <pt x="253" y="602" on="0"/>
        <pt x="239" y="571" on="0"/>
        <pt x="244" y="550" on="0"/>
        <pt x="267" y="532" on="0"/>
        <pt x="286" y="521" on="1"/>
        <pt x="307" y="524" on="0"/>
        <pt x="351" y="510" on="0"/>
        <pt x="375" y="484" on="0"/>
        <pt x="368" y="452" on="0"/>
        <pt x="338" y="437" on="1"/>
        <pt x="319" y="437" on="0"/>
        <pt x="287" y="408" on="0"/>
        <pt x="269" y="368" on="0"/>
        <pt x="272" y="328" on="0"/>
        <pt x="287" y="316" on="1"/>
        <pt x="349" y="268" on="0"/>
        <pt x="395" y="164" on="0"/>
        <pt x="384" y="66" on="0"/>
        <pt x="325" y="-19" on="0"/>
        <pt x="239" y="-80" on="0"/>
        <pt x="137" y="-110" on="0"/>
        <pt x="87" y="-102" on="1"/>
        <pt x="78" y="-101" on="0"/>
        <pt x="62" y="-86" on="0"/>
        <pt x="55" y="-68" on="0"/>
        <pt x="61" y="-54" on="0"/>
      </contour>
    </TTGlyph>
    <TTGlyph name="bracketleft" xMin="13" yMin="-116" xMax="416" yMax="928">
      <contour>
        <pt x="36" y="-71" on="1"/>
        <pt x="27" y="99" on="0"/>
        <pt x="17" y="358" on="0"/>
        <pt x="13" y="551" on="0"/>
        <pt x="13" y="685" on="0"/>
        <pt x="15" y="773" on="0"/>
        <pt x="19" y="822" on="0"/>
        <pt x="23" y="846" on="0"/>
        <pt x="26" y="853" on="0"/>
        <pt x="26" y="854" on="1"/>
        <pt x="21" y="878" on="0"/>
        <pt x="59" y="906" on="0"/>
        <pt x="125" y="921" on="0"/>
        <pt x="210" y="925" on="0"/>
        <pt x="293" y="926" on="0"/>
        <pt x="366" y="925" on="0"/>
        <pt x="388" y="928" on="1"/>
        <pt x="401" y="926" on="0"/>
        <pt x="412" y="906" on="0"/>
        <pt x="409" y="885" on="0"/>
        <pt x="397" y="872" on="0"/>
        <pt x="388" y="877" on="1"/>
        <pt x="378" y="876" on="0"/>
        <pt x="330" y="875" on="0"/>
        <pt x="268" y="874" on="0"/>
        <pt x="198" y="872" on="0"/>
        <pt x="136" y="867" on="0"/>
        <pt x="88" y="858" on="0"/>
        <pt x="78" y="851" on="1"/>
        <pt x="78" y="850" on="0"/>
        <pt x="75" y="831" on="0"/>
        <pt x="73" y="770" on="0"/>
        <pt x="72" y="652" on="0"/>
        <pt x="77" y="453" on="0"/>
        <pt x="88" y="157" on="0"/>
        <pt x="98" y="-52" on="1"/>
        <pt x="391" y="-32" on="1"/>
        <pt x="396" y="-32" on="0"/>
        <pt x="409" y="-46" on="0"/>
        <pt x="416" y="-65" on="0"/>
        <pt x="413" y="-84" on="0"/>
        <pt x="402" y="-87" on="1"/>
        <pt x="79" y="-114" on="1"/>
        <pt x="71" y="-116" on="0"/>
        <pt x="56" y="-107" on="0"/>
        <pt x="44" y="-92" on="0"/>
        <pt x="36" y="-76" on="0"/>
      </contour>
    </TTGlyph>
    <TTGlyph name="bracketright" xMin="6" yMin="-116" xMax="409" yMax="928">
      <contour>
        <pt x="386" y="-71" on="1"/>
        <pt x="386" y="-76" on="0"/>
        <pt x="378" y="-92" on="0"/>
        <pt x="366" y="-107" on="0"/>
        <pt x="350" y="-116" on="0"/>
        <pt x="343" y="-114" on="1"/>
        <pt x="20" y="-87" on="1"/>
        <pt x="9" y="-84" on="0"/>
        <pt x="6" y="-65" on="0"/>
        <pt x="13" y="-46" on="0"/>
        <pt x="26" y="-32" on="0"/>
        <pt x="31" y="-32" on="1"/>
        <pt x="324" y="-52" on="1"/>
        <pt x="334" y="157" on="0"/>
        <pt x="345" y="453" on="0"/>
        <pt x="350" y="652" on="0"/>
        <pt x="349" y="770" on="0"/>
        <pt x="347" y="831" on="0"/>
        <pt x="344" y="850" on="0"/>
        <pt x="344" y="851" on="1"/>
        <pt x="334" y="858" on="0"/>
        <pt x="286" y="867" on="0"/>
        <pt x="224" y="872" on="0"/>
        <pt x="154" y="874" on="0"/>
        <pt x="92" y="875" on="0"/>
        <pt x="44" y="876" on="0"/>
        <pt x="34" y="877" on="1"/>
        <pt x="25" y="872" on="0"/>
        <pt x="13" y="885" on="0"/>
        <pt x="10" y="906" on="0"/>
        <pt x="20" y="926" on="0"/>
        <pt x="34" y="928" on="1"/>
        <pt x="55" y="925" on="0"/>
        <pt x="129" y="926" on="0"/>
        <pt x="212" y="925" on="0"/>
        <pt x="297" y="921" on="0"/>
        <pt x="363" y="906" on="0"/>
        <pt x="401" y="878" on="0"/>
        <pt x="396" y="854" on="1"/>
        <pt x="396" y="853" on="0"/>
        <pt x="399" y="846" on="0"/>
        <pt x="403" y="822" on="0"/>
        <pt x="407" y="773" on="0"/>
        <pt x="409" y="685" on="0"/>
        <pt x="409" y="551" on="0"/>
        <pt x="405" y="358" on="0"/>
        <pt x="395" y="99" on="0"/>
      </contour>
    </TTGlyph>
    <TTGlyph name="breve" xMin="41" yMin="624" xMax="312" yMax="790">
      <contour>
        <pt x="106" y="745" on="1"/>
        <pt x="110" y="742" on="0"/>
        <pt x="123" y="724" on="0"/>
        <pt x="141" y="706" on="0"/>
        <pt x="166" y="695" on="0"/>
        <pt x="198" y="703" on="0"/>
        <pt x="236" y="737" on="0"/>
        <pt x="259" y="774" on="1"/>
        <pt x="282" y="790" on="0"/>
        <pt x="306" y="787" on="0"/>
        <pt x="312" y="764" on="0"/>
        <pt x="306" y="731" on="0"/>
        <pt x="299" y="718" on="1"/>
        <pt x="265" y="674" on="0"/>
        <pt x="208" y="633" on="0"/>
        <pt x="159" y="624" on="0"/>
        <pt x="120" y="640" on="0"/>
        <pt x="89" y="667" on="0"/>
        <pt x="65" y="697" on="0"/>
        <pt x="57" y="707" on="1"/>
        <pt x="41" y="717" on="0"/>
        <pt x="50" y="745" on="0"/>
        <pt x="76" y="763" on="0"/>
        <pt x="104" y="763" on="0"/>
      </contour>
    </TTGlyph>
    <TTGlyph name="brokenbar" xMin="24" yMin="21" xMax="125" yMax="968">
      <contour>
        <pt x="59" y="592" on="1"/>
        <pt x="56" y="643" on="0"/>
        <pt x="48" y="752" on="0"/>
        <pt x="39" y="851" on="0"/>
        <pt x="29" y="931" on="0"/>
        <pt x="24" y="953" on="1"/>
        <pt x="34" y="960" on="0"/>
        <pt x="49" y="968" on="0"/>
        <pt x="59" y="968" on="1"/>
        <pt x="67" y="968" on="0"/>
        <pt x="78" y="962" on="0"/>
        <pt x="81" y="953" on="1"/>
        <pt x="85" y="915" on="0"/>
        <pt x="92" y="823" on="0"/>
        <pt x="100" y="727" on="0"/>
        <pt x="106" y="634" on="0"/>
        <pt x="108" y="595" on="1"/>
      </contour>
      <contour>
        <pt x="112" y="522" on="1"/>
        <pt x="116" y="450" on="0"/>
        <pt x="120" y="345" on="0"/>
        <pt x="122" y="248" on="0"/>
        <pt x="123" y="144" on="0"/>
        <pt x="125" y="74" on="1"/>
        <pt x="125" y="64" on="0"/>
        <pt x="124" y="30" on="0"/>
        <pt x="123" y="29" on="1"/>
        <pt x="108" y="21" on="0"/>
        <pt x="83" y="22" on="0"/>
        <pt x="63" y="34" on="0"/>
        <pt x="52" y="50" on="0"/>
        <pt x="52" y="57" on="1"/>
        <pt x="59" y="104" on="0"/>
        <pt x="67" y="202" on="0"/>
        <pt x="70" y="313" on="0"/>
        <pt x="67" y="443" on="0"/>
        <pt x="63" y="522" on="1"/>
      </contour>
    </TTGlyph>
    <TTGlyph name="bullet" xMin="40" yMin="256" xMax="186" yMax="414">
      <contour>
        <pt x="44" y="353" on="1"/>
        <pt x="57" y="371" on="0"/>
        <pt x="78" y="394" on="0"/>
        <pt x="99" y="408" on="0"/>
        <pt x="122" y="414" on="0"/>
        <pt x="137" y="414" on="1"/>
        <pt x="186" y="414" on="0"/>
        <pt x="186" y="353" on="1"/>
        <pt x="186" y="342" on="0"/>
        <pt x="173" y="307" on="0"/>
        <pt x="152" y="276" on="0"/>
        <pt x="127" y="259" on="0"/>
        <pt x="115" y="266" on="1"/>
        <pt x="103" y="256" on="0"/>
        <pt x="75" y="264" on="0"/>
        <pt x="52" y="291" on="0"/>
        <pt x="40" y="331" on="0"/>
      </contour>
    </TTGlyph>
    <TTGlyph name="c" xMin="29" yMin="0" xMax="406" yMax="612">
      <contour>
        <pt x="29" y="256" on="1"/>
        <pt x="32" y="297" on="0"/>
        <pt x="40" y="381" on="0"/>
        <pt x="56" y="460" on="0"/>
        <pt x="82" y="530" on="0"/>
        <pt x="123" y="582" on="0"/>
        <pt x="182" y="612" on="0"/>
        <pt x="223" y="611" on="1"/>
        <pt x="251" y="611" on="0"/>
        <pt x="281" y="564" on="0"/>
        <pt x="294" y="498" on="0"/>
        <pt x="295" y="428" on="0"/>
        <pt x="295" y="406" on="1"/>
        <pt x="280" y="400" on="0"/>
        <pt x="259" y="412" on="0"/>
        <pt x="246" y="439" on="0"/>
        <pt x="236" y="475" on="0"/>
        <pt x="229" y="511" on="0"/>
        <pt x="220" y="543" on="0"/>
        <pt x="214" y="553" on="1"/>
        <pt x="196" y="561" on="0"/>
        <pt x="162" y="535" on="0"/>
        <pt x="134" y="486" on="0"/>
        <pt x="111" y="418" on="0"/>
        <pt x="95" y="349" on="0"/>
        <pt x="85" y="285" on="0"/>
        <pt x="85" y="263" on="1"/>
        <pt x="86" y="233" on="0"/>
        <pt x="96" y="164" on="0"/>
        <pt x="118" y="104" on="0"/>
        <pt x="154" y="61" on="0"/>
        <pt x="182" y="55" on="1"/>
        <pt x="220" y="55" on="0"/>
        <pt x="273" y="80" on="0"/>
        <pt x="308" y="119" on="0"/>
        <pt x="328" y="167" on="0"/>
        <pt x="340" y="216" on="0"/>
        <pt x="347" y="259" on="0"/>
        <pt x="351" y="273" on="1"/>
        <pt x="377" y="280" on="0"/>
        <pt x="406" y="264" on="0"/>
        <pt x="406" y="253" on="1"/>
        <pt x="406" y="207" on="0"/>
        <pt x="374" y="116" on="0"/>
        <pt x="315" y="44" on="0"/>
        <pt x="231" y="0" on="0"/>
        <pt x="178" y="0" on="1"/>
        <pt x="133" y="0" on="0"/>
        <pt x="75" y="57" on="0"/>
        <pt x="42" y="137" on="0"/>
        <pt x="29" y="225" on="0"/>
      </contour>
    </TTGlyph>
    <TTGlyph name="cacute" xMin="29" yMin="0" xMax="406" yMax="841">
      <component glyphName="c" x="0" y="0" flags="0x4"/>
      <component glyphName="acute" x="125" y="17" flags="0x4"/>
    </TTGlyph>
    <TTGlyph name="caron" xMin="39" yMin="637" xMax="319" yMax="870">
      <contour>
        <pt x="261" y="863" on="1"/>
        <pt x="268" y="869" on="0"/>
        <pt x="288" y="870" on="0"/>
        <pt x="307" y="862" on="0"/>
        <pt x="319" y="848" on="0"/>
        <pt x="318" y="838" on="1"/>
        <pt x="220" y="655" on="1"/>
        <pt x="218" y="652" on="0"/>
        <pt x="205" y="642" on="0"/>
        <pt x="189" y="637" on="0"/>
        <pt x="174" y="640" on="0"/>
        <pt x="170" y="649" on="1"/>
        <pt x="48" y="822" on="1"/>
        <pt x="39" y="833" on="0"/>
        <pt x="48" y="851" on="0"/>
        <pt x="68" y="862" on="0"/>
        <pt x="92" y="864" on="0"/>
        <pt x="98" y="860" on="1"/>
        <pt x="187" y="725" on="1"/>
      </contour>
    </TTGlyph>
    <TTGlyph name="ccaron" xMin="29" yMin="0" xMax="406" yMax="870">
      <component glyphName="c" x="0" y="0" flags="0x204"/>
      <component glyphName="caron" x="-4" y="0" flags="0x4"/>
    </TTGlyph>
    <TTGlyph name="ccedilla" xMin="29" yMin="-256" xMax="406" yMax="612">
      <component glyphName="c" x="0" y="0" flags="0x204"/>
      <component glyphName="cedilla" x="72" y="15" flags="0x4"/>
    </TTGlyph>
    <TTGlyph name="ccircumflex" xMin="29" yMin="0" xMax="406" yMax="868">
      <component glyphName="c" x="0" y="0" flags="0x204"/>
      <component glyphName="circumflex" x="-23" y="9" flags="0x4"/>
    </TTGlyph>
    <TTGlyph name="cdotaccent" xMin="26" yMin="0" xMax="403" yMax="771">
      <component glyphName="c" x="-3" y="0" flags="0x4"/>
      <component glyphName="dotaccent" x="146" y="107" scalex="0.760864257812" scaley="0.941162109375" flags="0x4"/>
    </TTGlyph>
    <TTGlyph name="cedilla" xMin="73" yMin="-271" xMax="301" yMax="30">
      <contour>
        <pt x="88" y="-208" on="1"/>
        <pt x="88" y="-210" on="0"/>
        <pt x="129" y="-214" on="0"/>
        <pt x="179" y="-209" on="0"/>
        <pt x="222" y="-191" on="0"/>
        <pt x="224" y="-173" on="1"/>
        <pt x="225" y="-166" on="0"/>
        <pt x="226" y="-149" on="0"/>
        <pt x="215" y="-131" on="0"/>
        <pt x="188" y="-110" on="0"/>
        <pt x="161" y="-98" on="1"/>
        <pt x="137" y="-98" on="0"/>
        <pt x="103" y="-91" on="0"/>
        <pt x="82" y="-72" on="0"/>
        <pt x="73" y="-39" on="0"/>
        <pt x="73" y="-13" on="1"/>
        <pt x="77" y="11" on="0"/>
        <pt x="92" y="30" on="0"/>
        <pt x="108" y="29" on="0"/>
        <pt x="123" y="14" on="0"/>
        <pt x="132" y="-4" on="0"/>
        <pt x="134" y="-21" on="0"/>
        <pt x="129" y="-23" on="1"/>
        <pt x="132" y="-39" on="0"/>
        <pt x="169" y="-50" on="0"/>
        <pt x="217" y="-63" on="0"/>
        <pt x="266" y="-90" on="0"/>
        <pt x="282" y="-121" on="1"/>
        <pt x="301" y="-160" on="0"/>
        <pt x="276" y="-217" on="0"/>
        <pt x="217" y="-254" on="0"/>
        <pt x="142" y="-271" on="0"/>
        <pt x="111" y="-268" on="1"/>
        <pt x="99" y="-268" on="0"/>
        <pt x="89" y="-255" on="0"/>
        <pt x="86" y="-237" on="0"/>
        <pt x="88" y="-216" on="0"/>
      </contour>
    </TTGlyph>
    <TTGlyph name="cent" xMin="29" yMin="-79" xMax="406" yMax="796">
      <contour>
        <pt x="202" y="-65" on="1"/>
        <pt x="204" y="-50" on="0"/>
        <pt x="207" y="-16" on="0"/>
        <pt x="209" y="2" on="1"/>
        <pt x="201" y="0" on="0"/>
        <pt x="186" y="0" on="0"/>
        <pt x="178" y="0" on="1"/>
        <pt x="133" y="0" on="0"/>
        <pt x="75" y="57" on="0"/>
        <pt x="42" y="137" on="0"/>
        <pt x="29" y="225" on="0"/>
        <pt x="29" y="256" on="1"/>
        <pt x="33" y="313" on="0"/>
        <pt x="45" y="448" on="0"/>
        <pt x="76" y="569" on="0"/>
        <pt x="134" y="658" on="0"/>
        <pt x="184" y="668" on="1"/>
        <pt x="177" y="738" on="0"/>
        <pt x="167" y="781" on="1"/>
        <pt x="177" y="788" on="0"/>
        <pt x="192" y="796" on="0"/>
        <pt x="202" y="796" on="1"/>
        <pt x="210" y="796" on="0"/>
        <pt x="221" y="790" on="0"/>
        <pt x="224" y="781" on="1"/>
        <pt x="227" y="749" on="0"/>
        <pt x="233" y="689" on="0"/>
        <pt x="235" y="661" on="1"/>
        <pt x="257" y="650" on="0"/>
        <pt x="309" y="614" on="0"/>
        <pt x="346" y="570" on="0"/>
        <pt x="356" y="525" on="0"/>
        <pt x="337" y="505" on="1"/>
        <pt x="323" y="505" on="0"/>
        <pt x="296" y="525" on="0"/>
        <pt x="269" y="554" on="0"/>
        <pt x="246" y="584" on="0"/>
        <pt x="237" y="595" on="1"/>
        <pt x="240" y="536" on="0"/>
        <pt x="245" y="418" on="0"/>
        <pt x="249" y="291" on="0"/>
        <pt x="251" y="154" on="0"/>
        <pt x="253" y="78" on="1"/>
        <pt x="253" y="67" on="1"/>
        <pt x="284" y="81" on="0"/>
        <pt x="315" y="132" on="0"/>
        <pt x="335" y="193" on="0"/>
        <pt x="355" y="255" on="0"/>
        <pt x="376" y="281" on="1"/>
        <pt x="389" y="284" on="0"/>
        <pt x="401" y="277" on="0"/>
        <pt x="406" y="263" on="0"/>
        <pt x="406" y="247" on="0"/>
        <pt x="406" y="242" on="1"/>
        <pt x="406" y="206" on="0"/>
        <pt x="386" y="135" on="0"/>
        <pt x="348" y="75" on="0"/>
        <pt x="293" y="28" on="0"/>
        <pt x="259" y="15" on="1"/>
        <pt x="262" y="-12" on="0"/>
        <pt x="267" y="-58" on="0"/>
        <pt x="267" y="-59" on="1"/>
        <pt x="238" y="-76" on="0"/>
        <pt x="202" y="-79" on="0"/>
      </contour>
      <contour>
        <pt x="182" y="55" on="1"/>
        <pt x="190" y="55" on="0"/>
        <pt x="205" y="56" on="0"/>
        <pt x="212" y="57" on="1"/>
        <pt x="214" y="118" on="0"/>
        <pt x="213" y="261" on="0"/>
        <pt x="207" y="406" on="0"/>
        <pt x="197" y="548" on="0"/>
        <pt x="191" y="610" on="1"/>
        <pt x="174" y="603" on="0"/>
        <pt x="145" y="555" on="0"/>
        <pt x="121" y="489" on="0"/>
        <pt x="103" y="413" on="0"/>
        <pt x="91" y="340" on="0"/>
        <pt x="85" y="280" on="0"/>
        <pt x="85" y="263" on="1"/>
        <pt x="82" y="234" on="0"/>
        <pt x="87" y="166" on="0"/>
        <pt x="109" y="106" on="0"/>
        <pt x="149" y="62" on="0"/>
      </contour>
    </TTGlyph>
    <TTGlyph name="circumflex" xMin="90" yMin="631" xMax="371" yMax="859">
      <contour>
        <pt x="141" y="641" on="1"/>
        <pt x="134" y="635" on="0"/>
        <pt x="116" y="631" on="0"/>
        <pt x="100" y="636" on="0"/>
        <pt x="90" y="648" on="0"/>
        <pt x="92" y="658" on="1"/>
        <pt x="190" y="841" on="1"/>
        <pt x="191" y="844" on="0"/>
        <pt x="205" y="854" on="0"/>
        <pt x="221" y="859" on="0"/>
        <pt x="236" y="856" on="0"/>
        <pt x="240" y="847" on="1"/>
        <pt x="362" y="674" on="1"/>
        <pt x="371" y="663" on="0"/>
        <pt x="363" y="648" on="0"/>
        <pt x="345" y="640" on="0"/>
        <pt x="322" y="640" on="0"/>
        <pt x="316" y="645" on="1"/>
        <pt x="219" y="782" on="1"/>
      </contour>
    </TTGlyph>
    <TTGlyph name="colon" xMin="79" yMin="293" xMax="150" yMax="560">
      <contour>
        <pt x="79" y="522" on="1"/>
        <pt x="79" y="539" on="0"/>
        <pt x="101" y="558" on="0"/>
        <pt x="127" y="560" on="0"/>
        <pt x="149" y="544" on="0"/>
        <pt x="150" y="527" on="1"/>
        <pt x="150" y="506" on="0"/>
        <pt x="128" y="486" on="0"/>
        <pt x="102" y="486" on="0"/>
        <pt x="80" y="504" on="0"/>
      </contour>
      <contour>
        <pt x="79" y="329" on="1"/>
        <pt x="79" y="346" on="0"/>
        <pt x="101" y="365" on="0"/>
        <pt x="127" y="367" on="0"/>
        <pt x="149" y="351" on="0"/>
        <pt x="150" y="334" on="1"/>
        <pt x="150" y="313" on="0"/>
        <pt x="128" y="293" on="0"/>
        <pt x="102" y="293" on="0"/>
        <pt x="80" y="311" on="0"/>
      </contour>
    </TTGlyph>
    <TTGlyph name="comma" xMin="23" yMin="-132" xMax="107" yMax="127">
      <contour>
        <pt x="80" y="-121" on="1"/>
        <pt x="57" y="-132" on="0"/>
        <pt x="32" y="-123" on="0"/>
        <pt x="23" y="-106" on="1"/>
        <pt x="27" y="-89" on="0"/>
        <pt x="38" y="-41" on="0"/>
        <pt x="44" y="10" on="0"/>
        <pt x="41" y="59" on="0"/>
        <pt x="32" y="78" on="1"/>
        <pt x="32" y="94" on="0"/>
        <pt x="35" y="113" on="0"/>
        <pt x="44" y="123" on="0"/>
        <pt x="63" y="127" on="0"/>
        <pt x="78" y="127" on="1"/>
        <pt x="88" y="112" on="0"/>
        <pt x="103" y="73" on="0"/>
        <pt x="107" y="16" on="0"/>
        <pt x="96" y="-64" on="0"/>
      </contour>
    </TTGlyph>
    <TTGlyph name="commaaccent" xMin="60" yMin="-293" xMax="144" yMax="-34">
      <contour>
        <pt x="117" y="-282" on="1"/>
        <pt x="94" y="-293" on="0"/>
        <pt x="69" y="-284" on="0"/>
        <pt x="60" y="-267" on="1"/>
        <pt x="64" y="-250" on="0"/>
        <pt x="75" y="-202" on="0"/>
        <pt x="81" y="-151" on="0"/>
        <pt x="78" y="-102" on="0"/>
        <pt x="69" y="-83" on="1"/>
        <pt x="69" y="-67" on="0"/>
        <pt x="72" y="-48" on="0"/>
        <pt x="81" y="-38" on="0"/>
        <pt x="100" y="-34" on="0"/>
        <pt x="115" y="-34" on="1"/>
        <pt x="125" y="-49" on="0"/>
        <pt x="140" y="-88" on="0"/>
        <pt x="144" y="-145" on="0"/>
        <pt x="133" y="-225" on="0"/>
      </contour>
    </TTGlyph>
    <TTGlyph name="copyright" xMin="17" yMin="-1" xMax="542" yMax="770">
      <contour>
        <pt x="17" y="238" on="1"/>
        <pt x="26" y="367" on="0"/>
        <pt x="84" y="561" on="0"/>
        <pt x="167" y="693" on="0"/>
        <pt x="266" y="762" on="0"/>
        <pt x="365" y="770" on="0"/>
        <pt x="455" y="716" on="0"/>
        <pt x="488" y="660" on="1"/>
        <pt x="525" y="591" on="0"/>
        <pt x="542" y="440" on="0"/>
        <pt x="513" y="294" on="0"/>
        <pt x="444" y="162" on="0"/>
        <pt x="347" y="61" on="0"/>
        <pt x="227" y="0" on="0"/>
        <pt x="161" y="-1" on="1"/>
        <pt x="120" y="-1" on="0"/>
        <pt x="65" y="50" on="0"/>
        <pt x="31" y="124" on="0"/>
        <pt x="17" y="206" on="0"/>
      </contour>
      <contour>
        <pt x="153" y="352" on="1"/>
        <pt x="157" y="388" on="0"/>
        <pt x="167" y="473" on="0"/>
        <pt x="197" y="546" on="0"/>
        <pt x="255" y="595" on="0"/>
        <pt x="305" y="594" on="1"/>
        <pt x="328" y="594" on="0"/>
        <pt x="352" y="566" on="0"/>
        <pt x="363" y="528" on="0"/>
        <pt x="364" y="488" on="0"/>
        <pt x="364" y="475" on="1"/>
        <pt x="342" y="470" on="0"/>
        <pt x="313" y="491" on="0"/>
        <pt x="296" y="519" on="0"/>
        <pt x="291" y="544" on="0"/>
        <pt x="293" y="544" on="1"/>
        <pt x="269" y="544" on="0"/>
        <pt x="239" y="498" on="0"/>
        <pt x="222" y="436" on="0"/>
        <pt x="216" y="374" on="0"/>
        <pt x="216" y="358" on="1"/>
        <pt x="214" y="341" on="0"/>
        <pt x="213" y="301" on="0"/>
        <pt x="224" y="265" on="0"/>
        <pt x="252" y="239" on="0"/>
        <pt x="279" y="235" on="1"/>
        <pt x="320" y="247" on="0"/>
        <pt x="361" y="282" on="0"/>
        <pt x="387" y="319" on="0"/>
        <pt x="412" y="354" on="0"/>
        <pt x="437" y="367" on="1"/>
        <pt x="450" y="369" on="0"/>
        <pt x="460" y="361" on="0"/>
        <pt x="461" y="356" on="1"/>
        <pt x="470" y="464" on="0"/>
        <pt x="447" y="608" on="0"/>
        <pt x="397" y="688" on="0"/>
        <pt x="326" y="709" on="0"/>
        <pt x="249" y="677" on="0"/>
        <pt x="173" y="599" on="0"/>
        <pt x="113" y="483" on="0"/>
        <pt x="76" y="332" on="0"/>
        <pt x="76" y="244" on="1"/>
        <pt x="76" y="217" on="0"/>
        <pt x="81" y="157" on="0"/>
        <pt x="101" y="108" on="0"/>
        <pt x="142" y="75" on="0"/>
        <pt x="177" y="74" on="1"/>
        <pt x="219" y="73" on="0"/>
        <pt x="292" y="101" on="0"/>
        <pt x="355" y="151" on="0"/>
        <pt x="406" y="220" on="0"/>
        <pt x="425" y="259" on="1"/>
        <pt x="413" y="247" on="0"/>
        <pt x="381" y="219" on="0"/>
        <pt x="342" y="196" on="0"/>
        <pt x="297" y="181" on="0"/>
        <pt x="272" y="181" on="1"/>
        <pt x="235" y="181" on="0"/>
        <pt x="188" y="221" on="0"/>
        <pt x="162" y="276" on="0"/>
        <pt x="153" y="334" on="0"/>
      </contour>
    </TTGlyph>
    <TTGlyph name="currency" xMin="40" yMin="90" xMax="483" yMax="748">
      <contour>
        <pt x="93" y="99" on="1"/>
        <pt x="73" y="90" on="0"/>
        <pt x="49" y="101" on="0"/>
        <pt x="40" y="127" on="0"/>
        <pt x="47" y="159" on="0"/>
        <pt x="60" y="172" on="1"/>
        <pt x="161" y="321" on="1"/>
        <pt x="146" y="380" on="0"/>
        <pt x="140" y="482" on="0"/>
        <pt x="162" y="536" on="1"/>
        <pt x="145" y="571" on="0"/>
        <pt x="124" y="638" on="0"/>
        <pt x="127" y="664" on="1"/>
        <pt x="138" y="692" on="0"/>
        <pt x="165" y="681" on="1"/>
        <pt x="192" y="676" on="0"/>
        <pt x="206" y="636" on="0"/>
        <pt x="210" y="607" on="1"/>
        <pt x="241" y="637" on="0"/>
        <pt x="291" y="649" on="1"/>
        <pt x="338" y="640" on="0"/>
        <pt x="364" y="616" on="1"/>
        <pt x="381" y="653" on="0"/>
        <pt x="409" y="721" on="0"/>
        <pt x="418" y="745" on="1"/>
        <pt x="423" y="748" on="0"/>
        <pt x="445" y="745" on="0"/>
        <pt x="467" y="736" on="0"/>
        <pt x="483" y="722" on="0"/>
        <pt x="482" y="714" on="1"/>
        <pt x="471" y="667" on="0"/>
        <pt x="426" y="587" on="0"/>
        <pt x="400" y="548" on="1"/>
        <pt x="408" y="517" on="0"/>
        <pt x="411" y="447" on="0"/>
        <pt x="415" y="412" on="1"/>
        <pt x="415" y="379" on="0"/>
        <pt x="410" y="297" on="0"/>
        <pt x="389" y="249" on="1"/>
        <pt x="424" y="166" on="1"/>
        <pt x="425" y="165" on="0"/>
        <pt x="424" y="150" on="0"/>
        <pt x="422" y="146" on="1"/>
        <pt x="420" y="140" on="0"/>
        <pt x="413" y="128" on="0"/>
        <pt x="402" y="119" on="0"/>
        <pt x="388" y="117" on="0"/>
        <pt x="379" y="123" on="1"/>
        <pt x="372" y="138" on="0"/>
        <pt x="354" y="181" on="0"/>
        <pt x="343" y="207" on="1"/>
        <pt x="329" y="195" on="0"/>
        <pt x="294" y="181" on="0"/>
        <pt x="271" y="181" on="1"/>
        <pt x="225" y="161" on="0"/>
        <pt x="187" y="244" on="1"/>
        <pt x="170" y="218" on="0"/>
        <pt x="125" y="147" on="0"/>
      </contour>
      <contour>
        <pt x="200" y="449" on="1"/>
        <pt x="201" y="373" on="0"/>
        <pt x="218" y="287" on="0"/>
        <pt x="244" y="250" on="0"/>
        <pt x="277" y="253" on="0"/>
        <pt x="309" y="279" on="0"/>
        <pt x="338" y="321" on="0"/>
        <pt x="358" y="363" on="0"/>
        <pt x="365" y="394" on="0"/>
        <pt x="360" y="397" on="1"/>
        <pt x="360" y="429" on="0"/>
        <pt x="359" y="484" on="0"/>
        <pt x="348" y="529" on="0"/>
        <pt x="323" y="563" on="0"/>
        <pt x="299" y="574" on="1"/>
        <pt x="279" y="574" on="0"/>
        <pt x="242" y="551" on="0"/>
        <pt x="215" y="515" on="0"/>
        <pt x="199" y="474" on="0"/>
        <pt x="199" y="456" on="1"/>
        <pt x="199" y="452" on="1"/>
        <pt x="199" y="450" on="0"/>
      </contour>
    </TTGlyph>
    <TTGlyph name="d" xMin="15" yMin="-55" xMax="372" yMax="851">
      <contour>
        <pt x="315" y="192" on="1"/>
        <pt x="304" y="167" on="0"/>
        <pt x="260" y="101" on="0"/>
        <pt x="202" y="43" on="0"/>
        <pt x="133" y="2" on="0"/>
        <pt x="96" y="2" on="1"/>
        <pt x="80" y="2" on="0"/>
        <pt x="61" y="10" on="0"/>
        <pt x="46" y="25" on="0"/>
        <pt x="34" y="47" on="0"/>
        <pt x="25" y="61" on="1"/>
        <pt x="16" y="111" on="0"/>
        <pt x="15" y="233" on="0"/>
        <pt x="36" y="357" on="0"/>
        <pt x="79" y="470" on="0"/>
        <pt x="148" y="550" on="0"/>
        <pt x="245" y="585" on="0"/>
        <pt x="309" y="570" on="1"/>
        <pt x="315" y="633" on="0"/>
        <pt x="305" y="760" on="0"/>
        <pt x="302" y="829" on="1"/>
        <pt x="302" y="839" on="0"/>
        <pt x="320" y="848" on="0"/>
        <pt x="343" y="851" on="0"/>
        <pt x="364" y="849" on="0"/>
        <pt x="367" y="846" on="1"/>
        <pt x="366" y="756" on="0"/>
        <pt x="365" y="606" on="0"/>
        <pt x="365" y="473" on="0"/>
        <pt x="365" y="349" on="0"/>
        <pt x="366" y="219" on="0"/>
        <pt x="367" y="75" on="0"/>
        <pt x="367" y="-11" on="1"/>
        <pt x="372" y="-27" on="0"/>
        <pt x="357" y="-49" on="0"/>
        <pt x="335" y="-55" on="0"/>
        <pt x="312" y="-43" on="0"/>
        <pt x="309" y="-26" on="1"/>
      </contour>
      <contour>
        <pt x="267" y="515" on="1"/>
        <pt x="229" y="521" on="0"/>
        <pt x="162" y="468" on="0"/>
        <pt x="110" y="377" on="0"/>
        <pt x="76" y="264" on="0"/>
        <pt x="67" y="159" on="0"/>
        <pt x="85" y="75" on="0"/>
        <pt x="111" y="59" on="1"/>
        <pt x="136" y="59" on="0"/>
        <pt x="184" y="94" on="0"/>
        <pt x="227" y="148" on="0"/>
        <pt x="264" y="215" on="0"/>
        <pt x="292" y="279" on="0"/>
        <pt x="307" y="332" on="0"/>
        <pt x="307" y="346" on="1"/>
        <pt x="307" y="357" on="0"/>
        <pt x="307" y="413" on="0"/>
        <pt x="300" y="471" on="0"/>
        <pt x="283" y="515" on="0"/>
      </contour>
    </TTGlyph>
    <TTGlyph name="dagger" xMin="61" yMin="-26" xMax="459" yMax="839">
      <contour>
        <pt x="92" y="475" on="1"/>
        <pt x="84" y="470" on="0"/>
        <pt x="67" y="487" on="0"/>
        <pt x="61" y="514" on="0"/>
        <pt x="72" y="542" on="0"/>
        <pt x="92" y="547" on="1"/>
        <pt x="222" y="551" on="1"/>
        <pt x="219" y="823" on="1"/>
        <pt x="225" y="827" on="0"/>
        <pt x="241" y="836" on="0"/>
        <pt x="258" y="839" on="0"/>
        <pt x="272" y="833" on="0"/>
        <pt x="276" y="823" on="1"/>
        <pt x="279" y="553" on="1"/>
        <pt x="437" y="558" on="1"/>
        <pt x="447" y="558" on="0"/>
        <pt x="457" y="543" on="0"/>
        <pt x="459" y="520" on="0"/>
        <pt x="454" y="496" on="0"/>
        <pt x="449" y="489" on="1"/>
        <pt x="280" y="482" on="1"/>
        <pt x="286" y="-9" on="1"/>
        <pt x="257" y="-26" on="0"/>
        <pt x="229" y="-18" on="0"/>
        <pt x="229" y="-4" on="1"/>
        <pt x="223" y="480" on="1"/>
        <pt x="92" y="475" on="1"/>
      </contour>
    </TTGlyph>
    <TTGlyph name="daggerdbl" xMin="59" yMin="-3" xMax="462" yMax="855">
      <contour>
        <pt x="90" y="523" on="1"/>
        <pt x="82" y="518" on="0"/>
        <pt x="65" y="535" on="0"/>
        <pt x="59" y="562" on="0"/>
        <pt x="70" y="590" on="0"/>
        <pt x="90" y="595" on="1"/>
        <pt x="227" y="599" on="1"/>
        <pt x="231" y="839" on="1"/>
        <pt x="237" y="843" on="0"/>
        <pt x="253" y="852" on="0"/>
        <pt x="270" y="855" on="0"/>
        <pt x="284" y="849" on="0"/>
        <pt x="288" y="839" on="1"/>
        <pt x="284" y="601" on="1"/>
        <pt x="435" y="606" on="1"/>
        <pt x="445" y="606" on="0"/>
        <pt x="455" y="591" on="0"/>
        <pt x="457" y="568" on="0"/>
        <pt x="452" y="544" on="0"/>
        <pt x="447" y="537" on="1"/>
        <pt x="282" y="530" on="1"/>
        <pt x="280" y="426" on="1"/>
        <pt x="440" y="431" on="1"/>
        <pt x="450" y="431" on="0"/>
        <pt x="460" y="416" on="0"/>
        <pt x="462" y="393" on="0"/>
        <pt x="457" y="369" on="0"/>
        <pt x="452" y="362" on="1"/>
        <pt x="279" y="355" on="1"/>
        <pt x="273" y="14" on="1"/>
        <pt x="244" y="-3" on="0"/>
        <pt x="216" y="5" on="0"/>
        <pt x="216" y="19" on="1"/>
        <pt x="222" y="353" on="1"/>
        <pt x="95" y="348" on="1"/>
        <pt x="87" y="343" on="0"/>
        <pt x="70" y="360" on="0"/>
        <pt x="64" y="387" on="0"/>
        <pt x="75" y="415" on="0"/>
        <pt x="95" y="420" on="1"/>
        <pt x="223" y="424" on="1"/>
        <pt x="225" y="528" on="1"/>
        <pt x="90" y="523" on="1"/>
      </contour>
    </TTGlyph>
    <TTGlyph name="degree" xMin="26" yMin="437" xMax="205" yMax="617">
      <contour>
        <pt x="32" y="513" on="1"/>
        <pt x="26" y="532" on="0"/>
        <pt x="35" y="569" on="0"/>
        <pt x="61" y="599" on="0"/>
        <pt x="101" y="617" on="0"/>
        <pt x="126" y="617" on="1"/>
        <pt x="158" y="617" on="0"/>
        <pt x="186" y="593" on="0"/>
        <pt x="197" y="575" on="1"/>
        <pt x="205" y="543" on="0"/>
        <pt x="205" y="490" on="0"/>
        <pt x="182" y="454" on="0"/>
        <pt x="131" y="437" on="0"/>
        <pt x="88" y="439" on="1"/>
        <pt x="71" y="439" on="0"/>
        <pt x="50" y="456" on="0"/>
        <pt x="37" y="480" on="0"/>
        <pt x="32" y="505" on="0"/>
      </contour>
      <contour>
        <pt x="71" y="514" on="1"/>
        <pt x="71" y="503" on="0"/>
        <pt x="86" y="490" on="0"/>
        <pt x="94" y="479" on="1"/>
        <pt x="113" y="477" on="0"/>
        <pt x="135" y="475" on="0"/>
        <pt x="148" y="482" on="0"/>
        <pt x="158" y="500" on="0"/>
        <pt x="166" y="517" on="1"/>
        <pt x="168" y="543" on="0"/>
        <pt x="138" y="571" on="0"/>
        <pt x="101" y="571" on="0"/>
        <pt x="70" y="543" on="0"/>
      </contour>
    </TTGlyph>
    <TTGlyph name="dieresis" xMin="41" yMin="631" xMax="279" yMax="724">
      <contour>
        <pt x="46" y="679" on="1"/>
        <pt x="41" y="695" on="0"/>
        <pt x="67" y="717" on="0"/>
        <pt x="102" y="722" on="0"/>
        <pt x="132" y="704" on="0"/>
        <pt x="132" y="679" on="1"/>
        <pt x="132" y="673" on="0"/>
        <pt x="124" y="656" on="0"/>
        <pt x="111" y="641" on="0"/>
        <pt x="96" y="633" on="0"/>
        <pt x="89" y="636" on="1"/>
        <pt x="82" y="631" on="0"/>
        <pt x="65" y="636" on="0"/>
        <pt x="51" y="649" on="0"/>
        <pt x="44" y="668" on="0"/>
      </contour>
      <contour>
        <pt x="184" y="682" on="1"/>
        <pt x="187" y="702" on="0"/>
        <pt x="217" y="724" on="0"/>
        <pt x="251" y="724" on="0"/>
        <pt x="279" y="702" on="0"/>
        <pt x="279" y="679" on="1"/>
        <pt x="279" y="673" on="0"/>
        <pt x="271" y="656" on="0"/>
        <pt x="258" y="641" on="0"/>
        <pt x="243" y="633" on="0"/>
        <pt x="236" y="636" on="1"/>
        <pt x="229" y="631" on="0"/>
        <pt x="209" y="637" on="0"/>
        <pt x="192" y="651" on="0"/>
        <pt x="182" y="671" on="0"/>
      </contour>
    </TTGlyph>
    <TTGlyph name="divide" xMin="26" yMin="293" xMax="362" yMax="560">
      <component glyphName="colon" x="125" y="0" flags="0x4"/>
      <component glyphName="minus" x="-20" y="0" flags="0x4"/>
    </TTGlyph>
    <TTGlyph name="dollar" xMin="13" yMin="-54" xMax="585" yMax="868">
      <contour>
        <pt x="233" y="52" on="1"/>
        <pt x="181" y="41" on="0"/>
        <pt x="90" y="30" on="0"/>
        <pt x="58" y="32" on="1"/>
        <pt x="48" y="32" on="0"/>
        <pt x="34" y="46" on="0"/>
        <pt x="38" y="62" on="1"/>
        <pt x="39" y="66" on="0"/>
        <pt x="71" y="75" on="0"/>
        <pt x="124" y="85" on="0"/>
        <pt x="194" y="98" on="0"/>
        <pt x="232" y="106" on="1"/>
        <pt x="227" y="303" on="1"/>
        <pt x="185" y="310" on="0"/>
        <pt x="107" y="335" on="0"/>
        <pt x="48" y="373" on="0"/>
        <pt x="13" y="429" on="0"/>
        <pt x="13" y="468" on="1"/>
        <pt x="13" y="507" on="0"/>
        <pt x="46" y="577" on="0"/>
        <pt x="102" y="638" on="0"/>
        <pt x="175" y="690" on="0"/>
        <pt x="216" y="710" on="1"/>
        <pt x="213" y="854" on="1"/>
        <pt x="213" y="863" on="0"/>
        <pt x="227" y="868" on="0"/>
        <pt x="245" y="866" on="0"/>
        <pt x="262" y="859" on="0"/>
        <pt x="265" y="857" on="1"/>
        <pt x="266" y="827" on="0"/>
        <pt x="267" y="764" on="0"/>
        <pt x="268" y="732" on="1"/>
        <pt x="310" y="748" on="0"/>
        <pt x="391" y="765" on="0"/>
        <pt x="426" y="765" on="1"/>
        <pt x="436" y="765" on="0"/>
        <pt x="458" y="766" on="0"/>
        <pt x="475" y="762" on="0"/>
        <pt x="486" y="749" on="0"/>
        <pt x="486" y="736" on="1"/>
        <pt x="486" y="704" on="0"/>
        <pt x="444" y="676" on="0"/>
        <pt x="414" y="676" on="1"/>
        <pt x="371" y="690" on="1"/>
        <pt x="349" y="690" on="0"/>
        <pt x="298" y="677" on="0"/>
        <pt x="270" y="666" on="1"/>
        <pt x="272" y="590" on="0"/>
        <pt x="276" y="433" on="0"/>
        <pt x="278" y="353" on="1"/>
        <pt x="332" y="347" on="0"/>
        <pt x="441" y="336" on="0"/>
        <pt x="529" y="315" on="0"/>
        <pt x="585" y="276" on="0"/>
        <pt x="585" y="242" on="1"/>
        <pt x="585" y="213" on="0"/>
        <pt x="534" y="161" on="0"/>
        <pt x="449" y="116" on="0"/>
        <pt x="341" y="78" on="0"/>
        <pt x="286" y="64" on="1"/>
        <pt x="286" y="44" on="0"/>
        <pt x="287" y="5" on="0"/>
        <pt x="288" y="-14" on="1"/>
        <pt x="294" y="-24" on="0"/>
        <pt x="284" y="-43" on="0"/>
        <pt x="265" y="-54" on="0"/>
        <pt x="243" y="-51" on="0"/>
        <pt x="236" y="-40" on="1"/>
      </contour>
      <contour>
        <pt x="71" y="469" on="1"/>
        <pt x="71" y="444" on="0"/>
        <pt x="95" y="408" on="0"/>
        <pt x="137" y="383" on="0"/>
        <pt x="193" y="367" on="0"/>
        <pt x="225" y="361" on="1"/>
        <pt x="218" y="642" on="1"/>
        <pt x="189" y="626" on="0"/>
        <pt x="135" y="586" on="0"/>
        <pt x="95" y="541" on="0"/>
        <pt x="71" y="493" on="0"/>
      </contour>
      <contour>
        <pt x="526" y="236" on="1"/>
        <pt x="526" y="252" on="0"/>
        <pt x="484" y="270" on="0"/>
        <pt x="415" y="281" on="0"/>
        <pt x="326" y="289" on="0"/>
        <pt x="280" y="295" on="1"/>
        <pt x="281" y="249" on="0"/>
        <pt x="283" y="161" on="0"/>
        <pt x="284" y="117" on="1"/>
        <pt x="323" y="126" on="0"/>
        <pt x="400" y="150" on="0"/>
        <pt x="465" y="179" on="0"/>
        <pt x="514" y="215" on="0"/>
      </contour>
    </TTGlyph>
    <TTGlyph name="dotaccent" xMin="20" yMin="618" xMax="108" yMax="706">
      <contour>
        <pt x="22" y="666" on="1"/>
        <pt x="23" y="679" on="0"/>
        <pt x="46" y="700" on="0"/>
        <pt x="74" y="706" on="0"/>
        <pt x="102" y="690" on="0"/>
        <pt x="108" y="666" on="1"/>
        <pt x="108" y="660" on="0"/>
        <pt x="100" y="643" on="0"/>
        <pt x="87" y="628" on="0"/>
        <pt x="72" y="620" on="0"/>
        <pt x="65" y="623" on="1"/>
        <pt x="58" y="618" on="0"/>
        <pt x="41" y="623" on="0"/>
        <pt x="27" y="636" on="0"/>
        <pt x="20" y="655" on="0"/>
      </contour>
    </TTGlyph>
    <TTGlyph name="dotlessi" xMin="40" yMin="-9" xMax="104" yMax="639">
      <contour>
        <pt x="40" y="630" on="1"/>
        <pt x="48" y="634" on="0"/>
        <pt x="69" y="639" on="0"/>
        <pt x="88" y="639" on="0"/>
        <pt x="102" y="630" on="0"/>
        <pt x="103" y="620" on="1"/>
        <pt x="103" y="22" on="1"/>
        <pt x="104" y="7" on="0"/>
        <pt x="86" y="-9" on="0"/>
        <pt x="65" y="-9" on="0"/>
        <pt x="47" y="6" on="0"/>
        <pt x="47" y="22" on="1"/>
      </contour>
    </TTGlyph>
    <TTGlyph name="dotlessj" xMin="-218" yMin="-310" xMax="90" yMax="585">
      <contour>
        <pt x="-212" y="-229" on="1"/>
        <pt x="-218" y="-222" on="0"/>
        <pt x="-214" y="-197" on="0"/>
        <pt x="-202" y="-178" on="0"/>
        <pt x="-183" y="-173" on="0"/>
        <pt x="-173" y="-187" on="1"/>
        <pt x="-145" y="-225" on="0"/>
        <pt x="-81" y="-260" on="0"/>
        <pt x="-24" y="-244" on="0"/>
        <pt x="20" y="-170" on="0"/>
        <pt x="28" y="-98" on="1"/>
        <pt x="34" y="-28" on="0"/>
        <pt x="34" y="137" on="0"/>
        <pt x="30" y="311" on="0"/>
        <pt x="27" y="488" on="0"/>
        <pt x="30" y="569" on="1"/>
        <pt x="33" y="576" on="0"/>
        <pt x="49" y="585" on="0"/>
        <pt x="67" y="585" on="0"/>
        <pt x="84" y="578" on="0"/>
        <pt x="87" y="569" on="1"/>
        <pt x="85" y="478" on="0"/>
        <pt x="87" y="315" on="0"/>
        <pt x="90" y="155" on="0"/>
        <pt x="89" y="-10" on="0"/>
        <pt x="83" y="-104" on="1"/>
        <pt x="84" y="-137" on="0"/>
        <pt x="62" y="-207" on="0"/>
        <pt x="22" y="-265" on="0"/>
        <pt x="-33" y="-304" on="0"/>
        <pt x="-99" y="-310" on="0"/>
        <pt x="-173" y="-275" on="0"/>
      </contour>
    </TTGlyph>
    <TTGlyph name="e" xMin="-21" yMin="-5" xMax="463" yMax="605">
      <contour>
        <pt x="60" y="267" on="1"/>
        <pt x="53" y="261" on="0"/>
        <pt x="18" y="264" on="0"/>
        <pt x="-11" y="276" on="0"/>
        <pt x="-21" y="297" on="0"/>
        <pt x="-4" y="311" on="1"/>
        <pt x="3" y="317" on="0"/>
        <pt x="20" y="322" on="0"/>
        <pt x="37" y="327" on="0"/>
        <pt x="48" y="337" on="0"/>
        <pt x="49" y="348" on="1"/>
        <pt x="50" y="393" on="0"/>
        <pt x="63" y="487" on="0"/>
        <pt x="99" y="561" on="0"/>
        <pt x="166" y="605" on="0"/>
        <pt x="221" y="600" on="1"/>
        <pt x="241" y="600" on="0"/>
        <pt x="291" y="581" on="0"/>
        <pt x="337" y="550" on="0"/>
        <pt x="371" y="507" on="0"/>
        <pt x="375" y="482" on="1"/>
        <pt x="382" y="472" on="0"/>
        <pt x="352" y="442" on="0"/>
        <pt x="298" y="405" on="0"/>
        <pt x="230" y="367" on="0"/>
        <pt x="167" y="333" on="0"/>
        <pt x="119" y="307" on="0"/>
        <pt x="112" y="302" on="1"/>
        <pt x="118" y="263" on="0"/>
        <pt x="132" y="177" on="0"/>
        <pt x="158" y="105" on="0"/>
        <pt x="197" y="58" on="0"/>
        <pt x="227" y="58" on="1"/>
        <pt x="271" y="55" on="0"/>
        <pt x="334" y="87" on="0"/>
        <pt x="376" y="139" on="0"/>
        <pt x="401" y="201" on="0"/>
        <pt x="414" y="257" on="0"/>
        <pt x="419" y="296" on="0"/>
        <pt x="421" y="298" on="1"/>
        <pt x="432" y="304" on="0"/>
        <pt x="460" y="293" on="0"/>
        <pt x="462" y="269" on="1"/>
        <pt x="463" y="230" on="0"/>
        <pt x="427" y="130" on="0"/>
        <pt x="364" y="46" on="0"/>
        <pt x="277" y="-5" on="0"/>
        <pt x="228" y="3" on="1"/>
        <pt x="177" y="4" on="0"/>
        <pt x="117" y="61" on="0"/>
        <pt x="82" y="142" on="0"/>
        <pt x="66" y="232" on="0"/>
      </contour>
      <contour>
        <pt x="322" y="482" on="1"/>
        <pt x="290" y="526" on="0"/>
        <pt x="224" y="550" on="0"/>
        <pt x="189" y="545" on="1"/>
        <pt x="168" y="542" on="0"/>
        <pt x="136" y="509" on="0"/>
        <pt x="116" y="458" on="0"/>
        <pt x="108" y="395" on="0"/>
        <pt x="111" y="362" on="1"/>
      </contour>
    </TTGlyph>
    <TTGlyph name="eacute" xMin="-21" yMin="-5" xMax="463" yMax="835">
      <component glyphName="e" x="0" y="0" flags="0x4"/>
      <component glyphName="acute" x="125" y="11" flags="0x4"/>
    </TTGlyph>
    <TTGlyph name="ebreve" xMin="-21" yMin="-5" xMax="463" yMax="821">
      <component glyphName="e" x="0" y="0" flags="0x4"/>
      <component glyphName="breve" x="36" y="31" flags="0x4"/>
    </TTGlyph>
    <TTGlyph name="ecaron" xMin="-21" yMin="-5" xMax="463" yMax="870">
      <component glyphName="e" x="0" y="0" flags="0x4"/>
      <component glyphName="caron" x="12" y="0" flags="0x4"/>
    </TTGlyph>
    <TTGlyph name="ecircumflex" xMin="-21" yMin="-5" xMax="463" yMax="862">
      <component glyphName="e" x="0" y="0" flags="0x4"/>
      <component glyphName="circumflex" x="-25" y="3" flags="0x4"/>
    </TTGlyph>
    <TTGlyph name="edieresis" xMin="-21" yMin="-5" xMax="463" yMax="742">
      <component glyphName="e" x="0" y="0" flags="0x4"/>
      <component glyphName="dieresis" x="36" y="18" flags="0x4"/>
    </TTGlyph>
    <TTGlyph name="edotaccent" xMin="-21" yMin="-5" xMax="463" yMax="749">
      <component glyphName="e" x="0" y="0" flags="0x4"/>
      <component glyphName="dotaccent" x="100" y="43" flags="0x4"/>
    </TTGlyph>
    <TTGlyph name="egrave" xMin="-21" yMin="-5" xMax="463" yMax="833">
      <component glyphName="e" x="0" y="0" flags="0x4"/>
      <component glyphName="grave" x="96" y="23" flags="0x4"/>
    </TTGlyph>
    <TTGlyph name="eight" xMin="19" yMin="-1" xMax="362" yMax="852">
      <contour>
        <pt x="179" y="-1" on="1"/>
        <pt x="126" y="4" on="0"/>
        <pt x="67" y="59" on="0"/>
        <pt x="45" y="138" on="0"/>
        <pt x="54" y="231" on="0"/>
        <pt x="83" y="316" on="0"/>
        <pt x="127" y="384" on="0"/>
        <pt x="152" y="399" on="1"/>
        <pt x="104" y="422" on="0"/>
        <pt x="45" y="505" on="0"/>
        <pt x="19" y="603" on="0"/>
        <pt x="27" y="704" on="0"/>
        <pt x="67" y="788" on="0"/>
        <pt x="137" y="844" on="0"/>
        <pt x="187" y="848" on="1"/>
        <pt x="237" y="852" on="0"/>
        <pt x="302" y="814" on="0"/>
        <pt x="336" y="747" on="0"/>
        <pt x="340" y="657" on="0"/>
        <pt x="319" y="558" on="0"/>
        <pt x="274" y="458" on="0"/>
        <pt x="242" y="414" on="1"/>
        <pt x="269" y="388" on="0"/>
        <pt x="320" y="308" on="0"/>
        <pt x="353" y="217" on="0"/>
        <pt x="362" y="125" on="0"/>
        <pt x="330" y="49" on="0"/>
        <pt x="250" y="1" on="0"/>
      </contour>
      <contour>
        <pt x="201" y="368" on="1"/>
        <pt x="179" y="358" on="0"/>
        <pt x="138" y="302" on="0"/>
        <pt x="110" y="230" on="0"/>
        <pt x="100" y="151" on="0"/>
        <pt x="119" y="87" on="0"/>
        <pt x="172" y="48" on="0"/>
        <pt x="221" y="52" on="1"/>
        <pt x="234" y="53" on="0"/>
        <pt x="263" y="69" on="0"/>
        <pt x="286" y="93" on="0"/>
        <pt x="300" y="121" on="0"/>
        <pt x="300" y="135" on="1"/>
        <pt x="298" y="176" on="0"/>
        <pt x="280" y="251" on="0"/>
        <pt x="252" y="312" on="0"/>
        <pt x="218" y="357" on="0"/>
      </contour>
      <contour>
        <pt x="195" y="805" on="1"/>
        <pt x="159" y="801" on="0"/>
        <pt x="107" y="754" on="0"/>
        <pt x="79" y="685" on="0"/>
        <pt x="75" y="603" on="0"/>
        <pt x="98" y="526" on="0"/>
        <pt x="149" y="463" on="0"/>
        <pt x="190" y="448" on="1"/>
        <pt x="217" y="470" on="0"/>
        <pt x="260" y="537" on="0"/>
        <pt x="286" y="612" on="0"/>
        <pt x="292" y="688" on="0"/>
        <pt x="275" y="753" on="0"/>
        <pt x="232" y="798" on="0"/>
      </contour>
    </TTGlyph>
    <TTGlyph name="ellipsis" xMin="27" yMin="-5" xMax="409" yMax="82">
      <contour>
        <pt x="29" y="43" on="1"/>
        <pt x="29" y="56" on="0"/>
        <pt x="51" y="77" on="0"/>
        <pt x="80" y="82" on="0"/>
        <pt x="109" y="67" on="0"/>
        <pt x="115" y="43" on="1"/>
        <pt x="115" y="37" on="0"/>
        <pt x="107" y="20" on="0"/>
        <pt x="94" y="5" on="0"/>
        <pt x="79" y="-3" on="0"/>
        <pt x="72" y="0" on="1"/>
        <pt x="65" y="-5" on="0"/>
        <pt x="48" y="0" on="0"/>
        <pt x="34" y="13" on="0"/>
        <pt x="27" y="32" on="0"/>
      </contour>
      <contour>
        <pt x="176" y="43" on="1"/>
        <pt x="180" y="56" on="0"/>
        <pt x="207" y="74" on="0"/>
        <pt x="236" y="78" on="0"/>
        <pt x="260" y="63" on="0"/>
        <pt x="262" y="43" on="1"/>
        <pt x="262" y="37" on="0"/>
        <pt x="254" y="20" on="0"/>
        <pt x="241" y="5" on="0"/>
        <pt x="226" y="-3" on="0"/>
        <pt x="219" y="0" on="1"/>
        <pt x="212" y="-5" on="0"/>
        <pt x="195" y="0" on="0"/>
        <pt x="181" y="13" on="0"/>
        <pt x="174" y="32" on="0"/>
      </contour>
      <contour>
        <pt x="323" y="43" on="1"/>
        <pt x="327" y="55" on="0"/>
        <pt x="351" y="76" on="0"/>
        <pt x="379" y="82" on="0"/>
        <pt x="404" y="67" on="0"/>
        <pt x="409" y="43" on="1"/>
        <pt x="409" y="37" on="0"/>
        <pt x="401" y="20" on="0"/>
        <pt x="388" y="5" on="0"/>
        <pt x="373" y="-3" on="0"/>
        <pt x="366" y="0" on="1"/>
        <pt x="359" y="-5" on="0"/>
        <pt x="342" y="0" on="0"/>
        <pt x="328" y="13" on="0"/>
        <pt x="321" y="32" on="0"/>
      </contour>
    </TTGlyph>
    <TTGlyph name="emacron" xMin="-21" yMin="-5" xMax="463" yMax="733">
      <component glyphName="e" x="0" y="0" flags="0x204"/>
      <component glyphName="macron" x="-3" y="20" flags="0x4"/>
    </TTGlyph>
    <TTGlyph name="emdash" xMin="35" yMin="260" xMax="591" yMax="337">
      <contour>
        <pt x="66" y="265" on="1"/>
        <pt x="58" y="260" on="0"/>
        <pt x="41" y="277" on="0"/>
        <pt x="35" y="304" on="0"/>
        <pt x="46" y="332" on="0"/>
        <pt x="66" y="337" on="1"/>
        <pt x="569" y="334" on="1"/>
        <pt x="579" y="334" on="0"/>
        <pt x="589" y="319" on="0"/>
        <pt x="591" y="296" on="0"/>
        <pt x="586" y="272" on="0"/>
        <pt x="581" y="265" on="1"/>
        <pt x="66" y="265" on="1"/>
      </contour>
    </TTGlyph>
    <TTGlyph name="endash" xMin="35" yMin="260" xMax="433" yMax="348">
      <contour>
        <pt x="66" y="265" on="1"/>
        <pt x="58" y="260" on="0"/>
        <pt x="41" y="277" on="0"/>
        <pt x="35" y="304" on="0"/>
        <pt x="46" y="332" on="0"/>
        <pt x="66" y="337" on="1"/>
        <pt x="411" y="348" on="1"/>
        <pt x="421" y="348" on="0"/>
        <pt x="431" y="333" on="0"/>
        <pt x="433" y="310" on="0"/>
        <pt x="428" y="286" on="0"/>
        <pt x="423" y="279" on="1"/>
        <pt x="66" y="265" on="1"/>
      </contour>
    </TTGlyph>
    <TTGlyph name="eogonek" xMin="-21" yMin="-249" xMax="463" yMax="605">
      <component glyphName="e" x="0" y="0" flags="0x4"/>
      <component glyphName="ogonek" x="47" y="34" flags="0x4"/>
    </TTGlyph>
    <TTGlyph name="equal" xMin="121" yMin="217" xMax="524" yMax="480">
      <contour>
        <pt x="157" y="222" on="1"/>
        <pt x="149" y="217" on="0"/>
        <pt x="132" y="234" on="0"/>
        <pt x="126" y="261" on="0"/>
        <pt x="137" y="289" on="0"/>
        <pt x="157" y="294" on="1"/>
        <pt x="502" y="305" on="1"/>
        <pt x="512" y="305" on="0"/>
        <pt x="522" y="290" on="0"/>
        <pt x="524" y="267" on="0"/>
        <pt x="519" y="243" on="0"/>
        <pt x="514" y="236" on="1"/>
      </contour>
      <contour>
        <pt x="152" y="397" on="1"/>
        <pt x="144" y="392" on="0"/>
        <pt x="127" y="409" on="0"/>
        <pt x="121" y="436" on="0"/>
        <pt x="132" y="464" on="0"/>
        <pt x="152" y="469" on="1"/>
        <pt x="497" y="480" on="1"/>
        <pt x="507" y="480" on="0"/>
        <pt x="517" y="465" on="0"/>
        <pt x="519" y="442" on="0"/>
        <pt x="514" y="418" on="0"/>
        <pt x="509" y="411" on="1"/>
      </contour>
    </TTGlyph>
    <TTGlyph name="eth" xMin="17" yMin="3" xMax="533" yMax="846">
      <contour>
        <pt x="451" y="576" on="1"/>
        <pt x="361" y="554" on="1"/>
        <pt x="413" y="436" on="0"/>
        <pt x="426" y="243" on="0"/>
        <pt x="373" y="101" on="0"/>
        <pt x="264" y="15" on="0"/>
        <pt x="193" y="3" on="1"/>
        <pt x="142" y="6" on="0"/>
        <pt x="71" y="66" on="0"/>
        <pt x="30" y="152" on="0"/>
        <pt x="17" y="250" on="0"/>
        <pt x="34" y="333" on="0"/>
        <pt x="81" y="388" on="0"/>
        <pt x="118" y="388" on="1"/>
        <pt x="184" y="388" on="0"/>
        <pt x="295" y="322" on="0"/>
        <pt x="344" y="262" on="1"/>
        <pt x="360" y="284" on="0"/>
        <pt x="358" y="359" on="0"/>
        <pt x="337" y="442" on="0"/>
        <pt x="307" y="521" on="0"/>
        <pt x="296" y="547" on="1"/>
        <pt x="109" y="522" on="1"/>
        <pt x="106" y="529" on="0"/>
        <pt x="99" y="553" on="0"/>
        <pt x="97" y="576" on="0"/>
        <pt x="106" y="594" on="0"/>
        <pt x="118" y="596" on="1"/>
        <pt x="262" y="615" on="1"/>
        <pt x="243" y="656" on="0"/>
        <pt x="196" y="751" on="0"/>
        <pt x="167" y="808" on="1"/>
        <pt x="153" y="823" on="0"/>
        <pt x="166" y="840" on="0"/>
        <pt x="194" y="846" on="0"/>
        <pt x="225" y="840" on="0"/>
        <pt x="229" y="832" on="1"/>
        <pt x="332" y="620" on="1"/>
        <pt x="501" y="653" on="1"/>
        <pt x="532" y="633" on="0"/>
        <pt x="533" y="607" on="0"/>
        <pt x="504" y="590" on="0"/>
        <pt x="462" y="580" on="0"/>
      </contour>
      <contour>
        <pt x="218" y="72" on="1"/>
        <pt x="268" y="103" on="0"/>
        <pt x="304" y="168" on="0"/>
        <pt x="295" y="229" on="0"/>
        <pt x="253" y="282" on="0"/>
        <pt x="199" y="317" on="0"/>
        <pt x="142" y="333" on="0"/>
        <pt x="124" y="326" on="1"/>
        <pt x="105" y="319" on="0"/>
        <pt x="82" y="272" on="0"/>
        <pt x="77" y="211" on="0"/>
        <pt x="90" y="145" on="0"/>
        <pt x="124" y="93" on="0"/>
        <pt x="179" y="65" on="0"/>
      </contour>
    </TTGlyph>
    <TTGlyph name="exclam" xMin="44" yMin="1" xMax="115" yMax="847">
      <contour>
        <pt x="46" y="40" on="1"/>
        <pt x="46" y="60" on="0"/>
        <pt x="67" y="76" on="0"/>
        <pt x="93" y="72" on="0"/>
        <pt x="115" y="52" on="0"/>
        <pt x="115" y="36" on="1"/>
        <pt x="115" y="19" on="0"/>
        <pt x="92" y="1" on="0"/>
        <pt x="65" y="2" on="0"/>
        <pt x="44" y="21" on="0"/>
      </contour>
      <contour>
        <pt x="47" y="828" on="1"/>
        <pt x="55" y="841" on="0"/>
        <pt x="73" y="847" on="0"/>
        <pt x="89" y="843" on="0"/>
        <pt x="100" y="834" on="0"/>
        <pt x="101" y="831" on="1"/>
        <pt x="101" y="770" on="0"/>
        <pt x="97" y="609" on="0"/>
        <pt x="95" y="441" on="0"/>
        <pt x="98" y="281" on="0"/>
        <pt x="104" y="221" on="1"/>
        <pt x="100" y="209" on="0"/>
        <pt x="81" y="200" on="0"/>
        <pt x="62" y="203" on="0"/>
        <pt x="46" y="215" on="0"/>
        <pt x="44" y="224" on="1"/>
      </contour>
    </TTGlyph>
    <TTGlyph name="exclamdown" xMin="212" yMin="93" xMax="274" yMax="741">
      <component glyphName="exclam" x="174" y="742" scalex="0.871215820312" scaley="-0.766479492188" flags="0x4"/>
    </TTGlyph>
    <TTGlyph name="f" xMin="-21" yMin="-8" xMax="399" yMax="869">
      <contour>
        <pt x="17" y="388" on="1"/>
        <pt x="-3" y="387" on="0"/>
        <pt x="-19" y="397" on="0"/>
        <pt x="-21" y="412" on="0"/>
        <pt x="-13" y="429" on="0"/>
        <pt x="-8" y="436" on="1"/>
        <pt x="113" y="490" on="1"/>
        <pt x="107" y="559" on="0"/>
        <pt x="106" y="697" on="0"/>
        <pt x="130" y="806" on="0"/>
        <pt x="185" y="869" on="0"/>
        <pt x="235" y="863" on="1"/>
        <pt x="259" y="863" on="0"/>
        <pt x="301" y="832" on="0"/>
        <pt x="332" y="786" on="0"/>
        <pt x="351" y="732" on="0"/>
        <pt x="351" y="710" on="1"/>
        <pt x="350" y="700" on="0"/>
        <pt x="338" y="689" on="0"/>
        <pt x="324" y="686" on="0"/>
        <pt x="309" y="689" on="0"/>
        <pt x="305" y="693" on="1"/>
        <pt x="301" y="729" on="0"/>
        <pt x="284" y="775" on="0"/>
        <pt x="263" y="802" on="0"/>
        <pt x="241" y="812" on="0"/>
        <pt x="233" y="812" on="1"/>
        <pt x="201" y="811" on="0"/>
        <pt x="170" y="767" on="0"/>
        <pt x="158" y="688" on="0"/>
        <pt x="161" y="577" on="0"/>
        <pt x="164" y="509" on="1"/>
        <pt x="380" y="587" on="1"/>
        <pt x="391" y="580" on="0"/>
        <pt x="399" y="559" on="0"/>
        <pt x="385" y="538" on="1"/>
        <pt x="168" y="449" on="1"/>
        <pt x="198" y="14" on="1"/>
        <pt x="196" y="6" on="0"/>
        <pt x="180" y="-5" on="0"/>
        <pt x="160" y="-8" on="0"/>
        <pt x="143" y="1" on="0"/>
        <pt x="141" y="14" on="1"/>
        <pt x="118" y="431" on="1"/>
      </contour>
    </TTGlyph>
    <TTGlyph name="fi" xMin="-21" yMin="-8" xMax="436" yMax="869">
      <component glyphName="f" x="0" y="0" flags="0x4"/>
      <component glyphName="i" x="332" y="10" flags="0x4"/>
    </TTGlyph>
    <TTGlyph name="five" xMin="28" yMin="-9" xMax="456" yMax="851">
      <contour>
        <pt x="46" y="37" on="1"/>
        <pt x="51" y="42" on="0"/>
        <pt x="96" y="60" on="0"/>
        <pt x="157" y="91" on="0"/>
        <pt x="225" y="139" on="0"/>
        <pt x="285" y="212" on="0"/>
        <pt x="327" y="313" on="0"/>
        <pt x="330" y="381" on="1"/>
        <pt x="319" y="432" on="0"/>
        <pt x="276" y="461" on="0"/>
        <pt x="208" y="425" on="0"/>
        <pt x="115" y="326" on="0"/>
        <pt x="55" y="250" on="1"/>
        <pt x="48" y="251" on="0"/>
        <pt x="35" y="331" on="0"/>
        <pt x="28" y="475" on="0"/>
        <pt x="28" y="677" on="0"/>
        <pt x="34" y="801" on="1"/>
        <pt x="405" y="851" on="1"/>
        <pt x="439" y="851" on="0"/>
        <pt x="456" y="826" on="0"/>
        <pt x="434" y="794" on="1"/>
        <pt x="406" y="798" on="0"/>
        <pt x="311" y="791" on="0"/>
        <pt x="207" y="777" on="0"/>
        <pt x="113" y="758" on="0"/>
        <pt x="86" y="751" on="1"/>
        <pt x="83" y="650" on="0"/>
        <pt x="83" y="510" on="0"/>
        <pt x="84" y="418" on="0"/>
        <pt x="86" y="372" on="0"/>
        <pt x="86" y="366" on="1"/>
        <pt x="110" y="393" on="0"/>
        <pt x="154" y="444" on="0"/>
        <pt x="204" y="485" on="0"/>
        <pt x="261" y="509" on="0"/>
        <pt x="299" y="509" on="1"/>
        <pt x="322" y="509" on="0"/>
        <pt x="354" y="484" on="0"/>
        <pt x="374" y="445" on="0"/>
        <pt x="383" y="400" on="0"/>
        <pt x="383" y="381" on="1"/>
        <pt x="382" y="302" on="0"/>
        <pt x="324" y="175" on="0"/>
        <pt x="232" y="78" on="0"/>
        <pt x="116" y="10" on="0"/>
        <pt x="58" y="-9" on="1"/>
        <pt x="52" y="-7" on="0"/>
        <pt x="44" y="5" on="0"/>
        <pt x="41" y="20" on="0"/>
        <pt x="43" y="34" on="0"/>
      </contour>
    </TTGlyph>
    <TTGlyph name="fl" xMin="-21" yMin="-8" xMax="428" yMax="869">
      <component glyphName="f" x="0" y="0" flags="0x4"/>
      <component glyphName="l" x="338" y="2" flags="0x4"/>
    </TTGlyph>
    <TTGlyph name="florin" xMin="-46" yMin="-268" xMax="390" yMax="859">
      <contour>
        <pt x="118" y="429" on="1"/>
        <pt x="118" y="434" on="0"/>
        <pt x="78" y="421" on="0"/>
        <pt x="27" y="400" on="0"/>
        <pt x="-19" y="380" on="0"/>
        <pt x="-26" y="380" on="1"/>
        <pt x="-31" y="380" on="0"/>
        <pt x="-39" y="390" on="0"/>
        <pt x="-44" y="405" on="0"/>
        <pt x="-46" y="422" on="0"/>
        <pt x="-46" y="429" on="1"/>
        <pt x="104" y="496" on="1"/>
        <pt x="103" y="514" on="0"/>
        <pt x="97" y="584" on="0"/>
        <pt x="96" y="666" on="0"/>
        <pt x="104" y="752" on="0"/>
        <pt x="131" y="819" on="0"/>
        <pt x="178" y="859" on="0"/>
        <pt x="217" y="855" on="1"/>
        <pt x="243" y="852" on="0"/>
        <pt x="285" y="816" on="0"/>
        <pt x="315" y="768" on="0"/>
        <pt x="332" y="715" on="0"/>
        <pt x="332" y="694" on="1"/>
        <pt x="332" y="679" on="0"/>
        <pt x="309" y="671" on="0"/>
        <pt x="295" y="674" on="1"/>
        <pt x="269" y="741" on="0"/>
        <pt x="234" y="798" on="0"/>
        <pt x="221" y="800" on="1"/>
        <pt x="201" y="803" on="0"/>
        <pt x="170" y="762" on="0"/>
        <pt x="153" y="683" on="0"/>
        <pt x="151" y="573" on="0"/>
        <pt x="161" y="509" on="1"/>
        <pt x="377" y="587" on="1"/>
        <pt x="390" y="553" on="0"/>
        <pt x="374" y="531" on="1"/>
        <pt x="178" y="443" on="1"/>
        <pt x="180" y="396" on="0"/>
        <pt x="191" y="264" on="0"/>
        <pt x="200" y="116" on="0"/>
        <pt x="202" y="-35" on="0"/>
        <pt x="196" y="-101" on="1"/>
        <pt x="191" y="-149" on="0"/>
        <pt x="166" y="-224" on="0"/>
        <pt x="119" y="-266" on="0"/>
        <pt x="51" y="-268" on="0"/>
        <pt x="3" y="-244" on="1"/>
        <pt x="-14" y="-236" on="0"/>
        <pt x="-24" y="-212" on="0"/>
        <pt x="-16" y="-194" on="0"/>
        <pt x="5" y="-189" on="0"/>
        <pt x="20" y="-198" on="1"/>
        <pt x="51" y="-218" on="0"/>
        <pt x="96" y="-213" on="0"/>
        <pt x="125" y="-175" on="0"/>
        <pt x="141" y="-108" on="0"/>
        <pt x="144" y="-66" on="1"/>
        <pt x="148" y="-8" on="0"/>
        <pt x="144" y="133" on="0"/>
        <pt x="133" y="270" on="0"/>
        <pt x="121" y="391" on="0"/>
      </contour>
    </TTGlyph>
    <TTGlyph name="four" xMin="8" yMin="-15" xMax="560" yMax="853">
      <contour>
        <pt x="8" y="299" on="1"/>
        <pt x="54" y="370" on="0"/>
        <pt x="142" y="499" on="0"/>
        <pt x="228" y="627" on="0"/>
        <pt x="309" y="760" on="0"/>
        <pt x="348" y="835" on="1"/>
        <pt x="351" y="842" on="0"/>
        <pt x="369" y="852" on="0"/>
        <pt x="388" y="853" on="0"/>
        <pt x="404" y="845" on="0"/>
        <pt x="405" y="835" on="1"/>
        <pt x="403" y="441" on="1"/>
        <pt x="441" y="441" on="0"/>
        <pt x="512" y="459" on="0"/>
        <pt x="550" y="459" on="1"/>
        <pt x="560" y="427" on="0"/>
        <pt x="536" y="404" on="0"/>
        <pt x="488" y="398" on="0"/>
        <pt x="428" y="395" on="0"/>
        <pt x="403" y="384" on="1"/>
        <pt x="405" y="3" on="1"/>
        <pt x="405" y="-7" on="0"/>
        <pt x="389" y="-15" on="0"/>
        <pt x="369" y="-15" on="0"/>
        <pt x="350" y="-7" on="0"/>
        <pt x="346" y="-2" on="1"/>
        <pt x="346" y="374" on="1"/>
      </contour>
      <contour>
        <pt x="121" y="368" on="1"/>
        <pt x="345" y="423" on="1"/>
        <pt x="362" y="739" on="1"/>
      </contour>
    </TTGlyph>
    <TTGlyph name="fraction" xMin="28" yMin="-51" xMax="325" yMax="838">
      <contour>
        <pt x="28" y="-7" on="1"/>
        <pt x="286" y="838" on="1"/>
        <pt x="325" y="823" on="1"/>
        <pt x="64" y="-51" on="1"/>
        <pt x="50" y="-51" on="0"/>
        <pt x="28" y="-29" on="0"/>
        <pt x="28" y="-15" on="1"/>
      </contour>
    </TTGlyph>
    <TTGlyph name="g" xMin="19" yMin="-324" xMax="437" yMax="616">
      <contour>
        <pt x="85" y="-259" on="1"/>
        <pt x="159" y="-255" on="0"/>
        <pt x="263" y="-200" on="0"/>
        <pt x="331" y="-110" on="0"/>
        <pt x="365" y="10" on="0"/>
        <pt x="370" y="80" on="1"/>
        <pt x="373" y="125" on="0"/>
        <pt x="374" y="194" on="0"/>
        <pt x="371" y="251" on="0"/>
        <pt x="367" y="303" on="0"/>
        <pt x="363" y="359" on="0"/>
        <pt x="360" y="424" on="0"/>
        <pt x="360" y="466" on="1"/>
        <pt x="312" y="325" on="0"/>
        <pt x="228" y="153" on="0"/>
        <pt x="155" y="65" on="0"/>
        <pt x="96" y="47" on="0"/>
        <pt x="52" y="72" on="0"/>
        <pt x="24" y="129" on="0"/>
        <pt x="19" y="159" on="1"/>
        <pt x="21" y="209" on="0"/>
        <pt x="55" y="330" on="0"/>
        <pt x="111" y="447" on="0"/>
        <pt x="185" y="548" on="0"/>
        <pt x="271" y="608" on="0"/>
        <pt x="362" y="616" on="0"/>
        <pt x="408" y="581" on="1"/>
        <pt x="409" y="582" on="0"/>
        <pt x="412" y="536" on="0"/>
        <pt x="417" y="458" on="0"/>
        <pt x="422" y="355" on="0"/>
        <pt x="428" y="243" on="0"/>
        <pt x="433" y="131" on="0"/>
        <pt x="436" y="83" on="1"/>
        <pt x="437" y="-10" on="0"/>
        <pt x="379" y="-166" on="0"/>
        <pt x="282" y="-274" on="0"/>
        <pt x="157" y="-324" on="0"/>
        <pt x="91" y="-311" on="1"/>
        <pt x="88" y="-311" on="0"/>
        <pt x="75" y="-303" on="0"/>
        <pt x="68" y="-289" on="0"/>
        <pt x="72" y="-270" on="0"/>
      </contour>
      <contour>
        <pt x="72" y="158" on="1"/>
        <pt x="83" y="122" on="0"/>
        <pt x="119" y="123" on="0"/>
        <pt x="164" y="174" on="0"/>
        <pt x="214" y="262" on="0"/>
        <pt x="265" y="367" on="0"/>
        <pt x="313" y="476" on="0"/>
        <pt x="334" y="522" on="1"/>
        <pt x="334" y="534" on="0"/>
        <pt x="323" y="555" on="0"/>
        <pt x="304" y="551" on="1"/>
        <pt x="273" y="545" on="0"/>
        <pt x="214" y="496" on="0"/>
        <pt x="162" y="427" on="0"/>
        <pt x="119" y="344" on="0"/>
        <pt x="89" y="261" on="0"/>
        <pt x="72" y="185" on="0"/>
      </contour>
    </TTGlyph>
    <TTGlyph name="gbreve" xMin="19" yMin="-324" xMax="437" yMax="863">
      <component glyphName="g" x="0" y="0" flags="0x4"/>
      <component glyphName="breve" x="48" y="73" flags="0x4"/>
    </TTGlyph>
    <TTGlyph name="gcircumflex" xMin="19" yMin="-324" xMax="437" yMax="859">
      <component glyphName="g" x="0" y="0" flags="0x4"/>
      <component glyphName="circumflex" x="20" y="0" flags="0x4"/>
    </TTGlyph>
    <TTGlyph name="gdotaccent" xMin="19" yMin="-324" xMax="437" yMax="771">
      <component glyphName="g" x="0" y="0" flags="0x4"/>
      <component glyphName="dotaccent" x="243" y="65" flags="0x4"/>
    </TTGlyph>
    <TTGlyph name="germandbls" xMin="37" yMin="-132" xMax="553" yMax="840">
      <contour>
        <pt x="98" y="-98" on="1"/>
        <pt x="98" y="-124" on="0"/>
        <pt x="68" y="-132" on="0"/>
        <pt x="39" y="-121" on="1"/>
        <pt x="37" y="702" on="1"/>
        <pt x="41" y="733" on="0"/>
        <pt x="104" y="785" on="0"/>
        <pt x="194" y="821" on="0"/>
        <pt x="296" y="840" on="0"/>
        <pt x="384" y="838" on="0"/>
        <pt x="443" y="811" on="0"/>
        <pt x="445" y="784" on="1"/>
        <pt x="445" y="757" on="0"/>
        <pt x="420" y="698" on="0"/>
        <pt x="380" y="638" on="0"/>
        <pt x="332" y="580" on="0"/>
        <pt x="286" y="529" on="0"/>
        <pt x="246" y="488" on="0"/>
        <pt x="236" y="475" on="1"/>
        <pt x="251" y="489" on="0"/>
        <pt x="306" y="513" on="0"/>
        <pt x="372" y="527" on="0"/>
        <pt x="441" y="528" on="0"/>
        <pt x="500" y="508" on="0"/>
        <pt x="542" y="465" on="0"/>
        <pt x="548" y="428" on="1"/>
        <pt x="553" y="395" on="0"/>
        <pt x="510" y="304" on="0"/>
        <pt x="436" y="209" on="0"/>
        <pt x="343" y="118" on="0"/>
        <pt x="254" y="50" on="0"/>
        <pt x="179" y="11" on="0"/>
        <pt x="161" y="17" on="1"/>
        <pt x="128" y="54" on="1"/>
        <pt x="136" y="56" on="0"/>
        <pt x="189" y="85" on="0"/>
        <pt x="259" y="132" on="0"/>
        <pt x="339" y="192" on="0"/>
        <pt x="412" y="259" on="0"/>
        <pt x="468" y="328" on="0"/>
        <pt x="490" y="392" on="0"/>
        <pt x="469" y="446" on="0"/>
        <pt x="429" y="465" on="1"/>
        <pt x="373" y="472" on="0"/>
        <pt x="244" y="439" on="0"/>
        <pt x="190" y="402" on="1"/>
        <pt x="190" y="518" on="1"/>
        <pt x="228" y="552" on="0"/>
        <pt x="307" y="631" on="0"/>
        <pt x="363" y="706" on="0"/>
        <pt x="381" y="769" on="0"/>
        <pt x="359" y="788" on="1"/>
        <pt x="341" y="790" on="0"/>
        <pt x="290" y="787" on="0"/>
        <pt x="234" y="776" on="0"/>
        <pt x="178" y="756" on="0"/>
        <pt x="132" y="727" on="0"/>
        <pt x="101" y="689" on="0"/>
        <pt x="98" y="666" on="1"/>
      </contour>
    </TTGlyph>
    <TTGlyph name="grave" xMin="16" yMin="641" xMax="149" yMax="810">
      <contour>
        <pt x="118" y="641" on="1"/>
        <pt x="107" y="653" on="0"/>
        <pt x="78" y="684" on="0"/>
        <pt x="50" y="718" on="0"/>
        <pt x="29" y="752" on="0"/>
        <pt x="28" y="766" on="1"/>
        <pt x="16" y="780" on="0"/>
        <pt x="31" y="808" on="0"/>
        <pt x="56" y="810" on="1"/>
        <pt x="79" y="785" on="0"/>
        <pt x="124" y="731" on="0"/>
        <pt x="149" y="684" on="0"/>
        <pt x="145" y="648" on="0"/>
      </contour>
    </TTGlyph>
    <TTGlyph name="greater" xMin="37" yMin="166" xMax="407" yMax="712">
      <contour>
        <pt x="81" y="175" on="1"/>
        <pt x="67" y="166" on="0"/>
        <pt x="47" y="174" on="0"/>
        <pt x="37" y="193" on="0"/>
        <pt x="41" y="217" on="0"/>
        <pt x="52" y="224" on="1"/>
        <pt x="342" y="423" on="1"/>
        <pt x="67" y="659" on="1"/>
        <pt x="54" y="671" on="0"/>
        <pt x="55" y="695" on="0"/>
        <pt x="70" y="710" on="0"/>
        <pt x="93" y="712" on="0"/>
        <pt x="101" y="702" on="1"/>
        <pt x="380" y="460" on="1"/>
        <pt x="405" y="444" on="0"/>
        <pt x="407" y="409" on="0"/>
        <pt x="389" y="387" on="1"/>
      </contour>
    </TTGlyph>
    <TTGlyph name="guillemotleft" xMin="48" yMin="145" xMax="669" yMax="738">
      <contour>
        <pt x="57" y="407" on="1"/>
        <pt x="58" y="409" on="0"/>
        <pt x="58" y="410" on="1"/>
        <pt x="395" y="690" on="1"/>
        <pt x="400" y="696" on="0"/>
        <pt x="408" y="710" on="0"/>
        <pt x="416" y="720" on="0"/>
        <pt x="428" y="725" on="0"/>
        <pt x="438" y="721" on="1"/>
        <pt x="453" y="716" on="0"/>
        <pt x="457" y="690" on="0"/>
        <pt x="452" y="676" on="1"/>
        <pt x="451" y="675" on="0"/>
        <pt x="451" y="672" on="1"/>
        <pt x="451" y="671" on="0"/>
        <pt x="450" y="670" on="1"/>
        <pt x="413" y="619" on="0"/>
        <pt x="341" y="554" on="0"/>
        <pt x="263" y="499" on="0"/>
        <pt x="178" y="441" on="0"/>
        <pt x="129" y="397" on="1"/>
        <pt x="137" y="379" on="1"/>
        <pt x="138" y="377" on="0"/>
        <pt x="184" y="347" on="0"/>
        <pt x="247" y="308" on="0"/>
        <pt x="314" y="268" on="0"/>
        <pt x="335" y="256" on="1"/>
        <pt x="339" y="253" on="0"/>
        <pt x="365" y="242" on="0"/>
        <pt x="395" y="231" on="0"/>
        <pt x="421" y="221" on="0"/>
        <pt x="427" y="220" on="1"/>
        <pt x="430" y="208" on="0"/>
        <pt x="432" y="192" on="0"/>
        <pt x="428" y="182" on="1"/>
        <pt x="423" y="169" on="0"/>
        <pt x="397" y="149" on="0"/>
        <pt x="383" y="145" on="1"/>
        <pt x="367" y="160" on="0"/>
        <pt x="301" y="200" on="0"/>
        <pt x="224" y="246" on="0"/>
        <pt x="144" y="294" on="0"/>
        <pt x="82" y="341" on="0"/>
        <pt x="48" y="385" on="0"/>
        <pt x="55" y="403" on="1"/>
      </contour>
      <contour>
        <pt x="269" y="420" on="1"/>
        <pt x="270" y="422" on="0"/>
        <pt x="270" y="423" on="1"/>
        <pt x="607" y="703" on="1"/>
        <pt x="612" y="709" on="0"/>
        <pt x="620" y="723" on="0"/>
        <pt x="628" y="733" on="0"/>
        <pt x="640" y="738" on="0"/>
        <pt x="650" y="734" on="1"/>
        <pt x="665" y="729" on="0"/>
        <pt x="669" y="703" on="0"/>
        <pt x="664" y="689" on="1"/>
        <pt x="663" y="688" on="0"/>
        <pt x="663" y="685" on="1"/>
        <pt x="663" y="684" on="0"/>
        <pt x="662" y="683" on="1"/>
        <pt x="625" y="632" on="0"/>
        <pt x="553" y="567" on="0"/>
        <pt x="475" y="512" on="0"/>
        <pt x="390" y="454" on="0"/>
        <pt x="341" y="410" on="1"/>
        <pt x="349" y="392" on="1"/>
        <pt x="350" y="390" on="0"/>
        <pt x="396" y="360" on="0"/>
        <pt x="459" y="321" on="0"/>
        <pt x="526" y="281" on="0"/>
        <pt x="547" y="269" on="1"/>
        <pt x="551" y="266" on="0"/>
        <pt x="577" y="255" on="0"/>
        <pt x="607" y="244" on="0"/>
        <pt x="633" y="234" on="0"/>
        <pt x="639" y="233" on="1"/>
        <pt x="642" y="221" on="0"/>
        <pt x="644" y="205" on="0"/>
        <pt x="640" y="195" on="1"/>
        <pt x="635" y="182" on="0"/>
        <pt x="609" y="162" on="0"/>
        <pt x="595" y="158" on="1"/>
        <pt x="578" y="173" on="0"/>
        <pt x="513" y="213" on="0"/>
        <pt x="436" y="259" on="0"/>
        <pt x="356" y="307" on="0"/>
        <pt x="294" y="354" on="0"/>
        <pt x="260" y="398" on="0"/>
        <pt x="267" y="416" on="1"/>
      </contour>
    </TTGlyph>
    <TTGlyph name="guillemotright" xMin="52" yMin="124" xMax="657" yMax="765">
      <contour>
        <pt x="52" y="164" on="1"/>
        <pt x="56" y="187" on="0"/>
        <pt x="115" y="246" on="0"/>
        <pt x="196" y="309" on="0"/>
        <pt x="286" y="376" on="0"/>
        <pt x="356" y="437" on="0"/>
        <pt x="392" y="492" on="0"/>
        <pt x="379" y="512" on="1"/>
        <pt x="68" y="680" on="1"/>
        <pt x="64" y="683" on="0"/>
        <pt x="53" y="704" on="0"/>
        <pt x="53" y="709" on="1"/>
        <pt x="53" y="713" on="0"/>
        <pt x="59" y="725" on="0"/>
        <pt x="68" y="738" on="0"/>
        <pt x="78" y="748" on="0"/>
        <pt x="82" y="751" on="1"/>
        <pt x="422" y="555" on="1"/>
        <pt x="449" y="537" on="0"/>
        <pt x="442" y="476" on="0"/>
        <pt x="394" y="402" on="0"/>
        <pt x="317" y="322" on="0"/>
        <pt x="230" y="247" on="0"/>
        <pt x="146" y="182" on="0"/>
        <pt x="84" y="139" on="0"/>
        <pt x="55" y="124" on="0"/>
        <pt x="68" y="136" on="1"/>
        <pt x="56" y="136" on="0"/>
        <pt x="52" y="158" on="0"/>
      </contour>
      <contour>
        <pt x="260" y="178" on="1"/>
        <pt x="264" y="201" on="0"/>
        <pt x="323" y="260" on="0"/>
        <pt x="404" y="323" on="0"/>
        <pt x="494" y="390" on="0"/>
        <pt x="564" y="451" on="0"/>
        <pt x="600" y="506" on="0"/>
        <pt x="587" y="526" on="1"/>
        <pt x="276" y="694" on="1"/>
        <pt x="272" y="697" on="0"/>
        <pt x="261" y="718" on="0"/>
        <pt x="261" y="723" on="1"/>
        <pt x="261" y="727" on="0"/>
        <pt x="267" y="739" on="0"/>
        <pt x="276" y="752" on="0"/>
        <pt x="286" y="762" on="0"/>
        <pt x="290" y="765" on="1"/>
        <pt x="630" y="569" on="1"/>
        <pt x="657" y="551" on="0"/>
        <pt x="650" y="490" on="0"/>
        <pt x="602" y="416" on="0"/>
        <pt x="525" y="336" on="0"/>
        <pt x="438" y="261" on="0"/>
        <pt x="354" y="196" on="0"/>
        <pt x="292" y="153" on="0"/>
        <pt x="263" y="138" on="0"/>
        <pt x="276" y="150" on="1"/>
        <pt x="264" y="150" on="0"/>
        <pt x="260" y="172" on="0"/>
      </contour>
    </TTGlyph>
    <TTGlyph name="guilsinglleft" xMin="48" yMin="145" xMax="457" yMax="725">
      <contour>
        <pt x="57" y="407" on="1"/>
        <pt x="58" y="409" on="0"/>
        <pt x="58" y="410" on="1"/>
        <pt x="395" y="690" on="1"/>
        <pt x="400" y="696" on="0"/>
        <pt x="408" y="710" on="0"/>
        <pt x="416" y="720" on="0"/>
        <pt x="428" y="725" on="0"/>
        <pt x="438" y="721" on="1"/>
        <pt x="453" y="716" on="0"/>
        <pt x="457" y="690" on="0"/>
        <pt x="452" y="676" on="1"/>
        <pt x="451" y="675" on="0"/>
        <pt x="451" y="672" on="1"/>
        <pt x="451" y="671" on="0"/>
        <pt x="450" y="670" on="1"/>
        <pt x="413" y="619" on="0"/>
        <pt x="341" y="554" on="0"/>
        <pt x="263" y="499" on="0"/>
        <pt x="178" y="441" on="0"/>
        <pt x="129" y="397" on="1"/>
        <pt x="137" y="379" on="1"/>
        <pt x="138" y="377" on="0"/>
        <pt x="184" y="347" on="0"/>
        <pt x="247" y="308" on="0"/>
        <pt x="314" y="268" on="0"/>
        <pt x="335" y="256" on="1"/>
        <pt x="339" y="253" on="0"/>
        <pt x="365" y="242" on="0"/>
        <pt x="395" y="231" on="0"/>
        <pt x="421" y="221" on="0"/>
        <pt x="427" y="220" on="1"/>
        <pt x="430" y="208" on="0"/>
        <pt x="432" y="192" on="0"/>
        <pt x="428" y="182" on="1"/>
        <pt x="423" y="169" on="0"/>
        <pt x="397" y="149" on="0"/>
        <pt x="383" y="145" on="1"/>
        <pt x="367" y="160" on="0"/>
        <pt x="301" y="200" on="0"/>
        <pt x="224" y="246" on="0"/>
        <pt x="144" y="294" on="0"/>
        <pt x="82" y="341" on="0"/>
        <pt x="48" y="385" on="0"/>
        <pt x="55" y="403" on="1"/>
      </contour>
    </TTGlyph>
    <TTGlyph name="guilsinglright" xMin="52" yMin="124" xMax="449" yMax="751">
      <contour>
        <pt x="52" y="164" on="1"/>
        <pt x="56" y="187" on="0"/>
        <pt x="115" y="246" on="0"/>
        <pt x="196" y="309" on="0"/>
        <pt x="286" y="376" on="0"/>
        <pt x="356" y="437" on="0"/>
        <pt x="392" y="492" on="0"/>
        <pt x="379" y="512" on="1"/>
        <pt x="68" y="680" on="1"/>
        <pt x="64" y="683" on="0"/>
        <pt x="53" y="704" on="0"/>
        <pt x="53" y="709" on="1"/>
        <pt x="53" y="713" on="0"/>
        <pt x="59" y="725" on="0"/>
        <pt x="68" y="738" on="0"/>
        <pt x="78" y="748" on="0"/>
        <pt x="82" y="751" on="1"/>
        <pt x="422" y="555" on="1"/>
        <pt x="449" y="537" on="0"/>
        <pt x="442" y="476" on="0"/>
        <pt x="394" y="402" on="0"/>
        <pt x="317" y="322" on="0"/>
        <pt x="230" y="247" on="0"/>
        <pt x="146" y="182" on="0"/>
        <pt x="84" y="139" on="0"/>
        <pt x="55" y="124" on="0"/>
        <pt x="68" y="136" on="1"/>
        <pt x="56" y="136" on="0"/>
        <pt x="52" y="158" on="0"/>
      </contour>
    </TTGlyph>
    <TTGlyph name="h" xMin="15" yMin="-14" xMax="490" yMax="850">
      <contour>
        <pt x="423" y="12" on="1"/>
        <pt x="426" y="46" on="0"/>
        <pt x="430" y="150" on="0"/>
        <pt x="429" y="268" on="0"/>
        <pt x="423" y="387" on="0"/>
        <pt x="410" y="483" on="0"/>
        <pt x="389" y="546" on="0"/>
        <pt x="374" y="549" on="1"/>
        <pt x="342" y="559" on="0"/>
        <pt x="283" y="528" on="0"/>
        <pt x="231" y="461" on="0"/>
        <pt x="187" y="368" on="0"/>
        <pt x="150" y="265" on="0"/>
        <pt x="121" y="162" on="0"/>
        <pt x="103" y="76" on="0"/>
        <pt x="94" y="15" on="0"/>
        <pt x="95" y="6" on="1"/>
        <pt x="88" y="6" on="0"/>
        <pt x="67" y="1" on="0"/>
        <pt x="47" y="-2" on="0"/>
        <pt x="32" y="3" on="0"/>
        <pt x="32" y="13" on="1"/>
        <pt x="15" y="836" on="1"/>
        <pt x="15" y="845" on="0"/>
        <pt x="31" y="850" on="0"/>
        <pt x="51" y="848" on="0"/>
        <pt x="69" y="840" on="0"/>
        <pt x="72" y="836" on="1"/>
        <pt x="77" y="204" on="1"/>
        <pt x="83" y="221" on="0"/>
        <pt x="102" y="297" on="0"/>
        <pt x="132" y="391" on="0"/>
        <pt x="176" y="490" on="0"/>
        <pt x="239" y="569" on="0"/>
        <pt x="326" y="615" on="0"/>
        <pt x="383" y="610" on="1"/>
        <pt x="401" y="600" on="0"/>
        <pt x="430" y="569" on="0"/>
        <pt x="453" y="514" on="0"/>
        <pt x="470" y="430" on="0"/>
        <pt x="482" y="304" on="0"/>
        <pt x="489" y="128" on="0"/>
        <pt x="490" y="10" on="1"/>
        <pt x="487" y="3" on="0"/>
        <pt x="469" y="-10" on="0"/>
        <pt x="448" y="-14" on="0"/>
        <pt x="428" y="-4" on="0"/>
      </contour>
    </TTGlyph>
    <TTGlyph name="hbar" xMin="-93" yMin="-14" xMax="490" yMax="850">
      <component glyphName="h" x="0" y="0" flags="0x4"/>
      <component glyphName="macron" x="-118" y="12" scalex="0.712951660156" scaley="0.934753417969" flags="0x4"/>
    </TTGlyph>
    <TTGlyph name="hcircumflex" xMin="15" yMin="-14" xMax="490" yMax="997">
      <component glyphName="h" x="0" y="0" flags="0x4"/>
      <component glyphName="circumflex" x="33" y="138" flags="0x4"/>
    </TTGlyph>
</ttFont>
